<?xml version="1.0" encoding="UTF-8"?>
<svg version="1.1" xmlns="http://www.w3.org/2000/svg" width="612" height="408">
<path d="M0 0 C2.67943712 0.997915 4.00919299 2.35308306 5.99633789 4.40628052 C6.74391357 5.17022125 7.49148926 5.93416199 8.26171875 6.72125244 C9.45873413 7.96502151 9.45873413 7.96502151 10.67993164 9.23391724 C12.3801985 10.96723932 14.08072728 12.70030451 15.78149414 14.43313599 C18.45885063 17.17897841 21.13204424 19.92869343 23.80004883 22.68362427 C26.37433004 25.33607191 28.96357378 27.97316653 31.55493164 30.60891724 C32.75194702 31.858759 32.75194702 31.858759 33.97314453 33.1338501 C34.72072021 33.89148651 35.4682959 34.64912292 36.23852539 35.42971802 C36.89264404 36.10398834 37.5467627 36.77825867 38.22070312 37.47296143 C40.02000768 39.00918399 40.02000768 39.00918399 42.20751953 38.67041016 C44.75971543 37.49206265 46.11458779 35.60126632 47.82055664 33.42141724 C49.73979835 31.00502255 51.84775015 28.874258 54.11743164 26.78860474 C54.77743164 26.78860474 55.43743164 26.78860474 56.11743164 26.78860474 C56.61243164 25.30360474 56.61243164 25.30360474 57.11743164 23.78860474 C58.56951334 22.56753603 60.0256513 21.3505813 61.51196289 20.17141724 C63.37395325 18.64519301 63.37395325 18.64519301 65.55493164 15.85110474 C67.99923787 12.92986071 70.49553396 10.71094578 73.41821289 8.30813599 C75.09900863 6.80507956 76.42534552 5.25470961 77.80493164 3.47610474 C80.11743164 0.78860474 80.11743164 0.78860474 82.17993164 -0.27389526 C84.94736173 -0.18462333 86.16003643 0.9011165 88.11743164 2.78860474 C88.11743164 3.44860474 88.11743164 4.10860474 88.11743164 4.78860474 C88.98368164 5.09604614 88.98368164 5.09604614 89.86743164 5.40969849 C97.08638611 9.83381468 102.60194283 22.97765036 104.70263672 31.03250122 C108.78063273 50.54476026 106.15368065 68.61815462 96.11743164 85.78860474 C86.39635194 100.3903925 71.53282582 109.97946209 54.48632812 113.70559692 C37.5972255 116.98532848 21.03060001 114.14515149 6.41430664 105.13626099 C-9.97249992 93.89336027 -19.51451158 79.34083117 -23.47631836 59.87063599 C-25.89793006 41.49898572 -22.09785759 24.07188071 -10.84741211 9.28079224 C-10.19901367 8.45837036 -9.55061523 7.63594849 -8.88256836 6.78860474 C-8.36823242 6.13118286 -7.85389648 5.47376099 -7.32397461 4.79641724 C-3.17002095 -0.35596445 -3.17002095 -0.35596445 0 0 Z M-1.88256836 16.78860474 C-2.21256836 18.10860474 -2.54256836 19.42860474 -2.88256836 20.78860474 C-3.54256836 20.78860474 -4.20256836 20.78860474 -4.88256836 20.78860474 C-7.87624719 27.0044875 -10.69163171 32.96413632 -11.88256836 39.78860474 C-12.02823242 40.48727661 -12.17389648 41.18594849 -12.32397461 41.90579224 C-14.61488622 56.23001851 -9.77036231 70.04702042 -1.88256836 81.78860474 C6.61429424 92.69478566 19.55606157 100.31030669 33.11743164 102.78860474 C47.2825699 104.29859409 60.48016124 101.3675279 72.11743164 92.78860474 C72.7684082 92.37223755 73.41938477 91.95587036 74.09008789 91.52688599 C84.57171014 84.4785504 91.04373785 72.97611231 93.86743164 60.91360474 C97.02469464 44.46443896 93.34927166 30.63636477 84.11743164 16.78860474 C81.15184763 16.44010857 81.15184763 16.44010857 79.72290039 18.14407349 C79.02100586 19.05092896 79.02100586 19.05092896 78.30493164 19.97610474 C75.54219253 23.38007219 72.48981113 25.97828849 69.11743164 28.78860474 C68.09657632 29.93706698 67.09711229 31.10482395 66.11743164 32.28860474 C63.41595707 35.55288651 60.37521109 38.07378853 57.11743164 40.78860474 C56.09657632 41.93706698 55.09711229 43.10482395 54.11743164 44.28860474 C51.38843546 47.58345577 48.4555027 50.11814789 45.11743164 52.78860474 C44.58118164 53.40735474 44.04493164 54.02610474 43.49243164 54.66360474 C43.03868164 55.03485474 42.58493164 55.40610474 42.11743164 55.78860474 C39.65392762 55.49581123 38.41584155 55.07920286 36.62524414 53.33547974 C36.16891602 52.74251099 35.71258789 52.14954224 35.24243164 51.53860474 C33.27760416 49.10972253 31.55195693 47.31737581 29.11743164 45.28860474 C26.11853411 42.78952346 23.82840876 40.18765923 21.41430664 37.14407349 C20.98633789 36.6967688 20.55836914 36.24946411 20.11743164 35.78860474 C19.45743164 35.78860474 18.79743164 35.78860474 18.11743164 35.78860474 C17.45743164 34.46860474 16.79743164 33.14860474 16.11743164 31.78860474 C15.45743164 31.78860474 14.79743164 31.78860474 14.11743164 31.78860474 C13.45743164 30.46860474 12.79743164 29.14860474 12.11743164 27.78860474 C11.45743164 27.78860474 10.79743164 27.78860474 10.11743164 27.78860474 C9.78743164 26.79860474 9.45743164 25.80860474 9.11743164 24.78860474 C7.13482738 23.10128196 5.13419744 21.43494416 3.11743164 19.78860474 C2.45743164 18.79860474 1.79743164 17.80860474 1.11743164 16.78860474 C0.12743164 16.78860474 -0.86256836 16.78860474 -1.88256836 16.78860474 Z " fill="#0C73B8" transform="translate(264.882568359375,144.21139526367188)"/>
<path d="M0 0 C3.23307241 1.41646956 5.33604303 3.11314342 7.78710938 5.6394043 C8.51466431 6.38324875 9.24221924 7.1270932 9.99182129 7.89347839 C10.76795776 8.69562271 11.54409424 9.49776703 12.34375 10.32421875 C13.99826889 12.008885 15.65323019 13.69311685 17.30859375 15.37695312 C19.91432554 18.03862412 22.51598337 20.70397229 25.10986328 23.37719727 C27.61433311 25.95390686 30.13396864 28.51495902 32.65625 31.07421875 C33.82045471 32.28654427 33.82045471 32.28654427 35.00817871 33.52336121 C36.09951111 34.62494316 36.09951111 34.62494316 37.21289062 35.7487793 C37.84924438 36.40226852 38.48559814 37.05575775 39.14123535 37.72904968 C40.91612803 39.21831543 40.91612803 39.21831543 43.11169434 38.89070129 C45.3504765 38.03316654 45.3504765 38.03316654 47 35 C47.66 35 48.32 35 49 35 C49.66 33.68 50.32 32.36 51 31 C51.66 31 52.32 31 53 31 C53.66 29.68 54.32 28.36 55 27 C55.66 27 56.32 27 57 27 C57.66 25.68 58.32 24.36 59 23 C59.66 23 60.32 23 61 23 C61.66 21.68 62.32 20.36 63 19 C63.66 19 64.32 19 65 19 C65.66 17.68 66.32 16.36 67 15 C67.66 15 68.32 15 69 15 C69.66 13.68 70.32 12.36 71 11 C71.66 11 72.32 11 73 11 C73.66 9.68 74.32 8.36 75 7 C75.66 7 76.32 7 77 7 C77.66 5.68 78.32 4.36 79 3 C79.66 3 80.32 3 81 3 C81.33 2.01 81.66 1.02 82 0 C82.99 0 83.98 0 85 0 C92.70241789 15.46572446 95.05420176 28.70493371 90.27734375 45.3984375 C88.4994924 50.41121715 86.08236561 54.68468814 83 59 C82.48566406 59.74894531 81.97132813 60.49789062 81.44140625 61.26953125 C80.96574219 61.84058594 80.49007812 62.41164062 80 63 C79.34 63 78.68 63 78 63 C77.68482422 63.86625 77.68482422 63.86625 77.36328125 64.75 C73.00615379 71.941133 61.12737411 76.28636366 53.37890625 78.375 C39.13513001 81.00968694 25.18486715 78.42845151 13.0390625 70.49609375 C10.37458129 68.54111999 8.18602246 66.4814309 6 64 C5.44699219 63.43796875 4.89398438 62.8759375 4.32421875 62.296875 C-4.61628458 52.87775801 -8.40775115 41.00637261 -8.3125 28.1875 C-8.30758545 27.40068848 -8.3026709 26.61387695 -8.29760742 25.80322266 C-8.09948097 15.90909233 -5.83850423 8.05390504 0 0 Z M4 19 C1.71507466 21.28492534 2.62700211 26.98022964 2.61938477 30.14672852 C2.84526716 41.05151322 6.98404063 49.025569 14.5546875 56.80859375 C23.22477521 64.57843274 33.42211146 68.53764813 45.125 67.9375 C55.59366151 66.66650063 65.88516039 61.89126059 73 54 C74.1053514 52.22562012 75.14628822 50.40975443 76.125 48.5625 C76.62257813 47.63566406 77.12015625 46.70882812 77.6328125 45.75390625 C78.30957031 44.39072266 78.30957031 44.39072266 79 43 C79.38671875 42.26265625 79.7734375 41.5253125 80.171875 40.765625 C81.42303464 36.58722393 81.20902413 32.52120626 81.125 28.1875 C81.11597656 27.30384766 81.10695313 26.42019531 81.09765625 25.50976562 C81.07419637 23.33972641 81.03832865 21.16982753 81 19 C77.76454161 20.07848613 77.2149361 20.68079723 75.1875 23.25 C72.42120414 26.61200808 69.35381719 29.21704531 66 32 C65.195625 32.969375 64.39125 33.93875 63.5625 34.9375 C61.11561866 37.8618216 58.60972876 40.08201703 55.69140625 42.49609375 C53.16540764 44.74207404 51.15539252 47.40247568 49 50 C47.05939084 51.76040974 45.05723995 53.37334515 43 55 C39.10297892 53.42306589 36.7510227 50.88838498 33.875 47.875 C32.28810774 46.21276567 30.67090822 44.57775654 29 43 C28.34 43 27.68 43 27 43 C26.7635376 42.43829102 26.5270752 41.87658203 26.28344727 41.29785156 C24.70140683 38.46540633 22.76488444 36.52290533 20.46484375 34.234375 C19.57345703 33.34492188 18.68207031 32.45546875 17.76367188 31.5390625 C16.83103516 30.61867187 15.89839844 29.69828125 14.9375 28.75 C13.99113361 27.8050908 13.04516564 26.85978238 12.09960938 25.9140625 C8.50624625 21.55216878 8.50624625 21.55216878 4 19 Z " fill="#1074B8" transform="translate(264,165)"/>
<path d="M0 0 C2.475 0.495 2.475 0.495 5 1 C5.495 2.485 5.495 2.485 6 4 C6.55437744 4.27038086 7.10875488 4.54076172 7.67993164 4.81933594 C11.06971127 6.54436743 13.47697411 9.21222666 16.12109375 11.890625 C16.99375633 12.76397491 16.99375633 12.76397491 17.88404846 13.65496826 C19.11265564 14.8865918 20.33883617 16.12064017 21.56274414 17.35693359 C23.42222877 19.23457961 25.2894949 21.10419445 27.15820312 22.97265625 C28.35463759 24.17401036 29.55061592 25.37581894 30.74609375 26.578125 C31.29833115 27.13147522 31.85056854 27.68482544 32.41954041 28.25494385 C35.81592664 31.69242547 38.95436986 35.24751855 42 39 C40.55754029 42.36573933 38.916532 44.75010389 36 47 C33.26859033 47.02865115 31.59950773 46.51056815 29.5090332 44.73022461 C27.80245862 42.96996242 26.17750247 41.15714205 24.5625 39.3125 C23.33435094 37.95102887 22.10381106 36.59171128 20.87109375 35.234375 C20.23929199 34.53634766 19.60749023 33.83832031 18.95654297 33.11914062 C15.77399012 29.6721031 12.45652591 26.36482836 9.125 23.0625 C8.51213135 22.4538208 7.8992627 21.8451416 7.26782227 21.21801758 C5.84737577 19.80982864 4.42403632 18.40455862 3 17 C-1.70341126 20.92288258 -6.14273951 25.01018696 -10.4375 29.375 C-10.97826172 29.92027344 -11.51902344 30.46554688 -12.07617188 31.02734375 C-13.38646723 32.34923464 -14.69358284 33.67427618 -16 35 C-10.33425951 41.92810724 -3.96966361 48.14204142 2.375 54.4375 C3.50413955 55.56161467 4.63304778 56.68596174 5.76171875 57.81054688 C8.50515188 60.54305235 11.25169985 63.27239009 14 66 C12.27845212 69.76488042 10.00765886 72.15063897 7 75 C2.37972249 73.77698536 0.35967693 71.36201307 -2.53515625 67.796875 C-5.48763552 64.17516709 -8.855333 61.10228354 -12.4375 58.125 C-15.47765915 55.5641748 -17.94258543 52.78299634 -20.46484375 49.72265625 C-22.54897553 47.38397403 -24.90801296 45.4770882 -27.3203125 43.48828125 C-29.87239584 41.22701671 -31.89606795 38.67773171 -34 36 C-32.57937485 32.7731002 -30.85754559 30.60057488 -28.375 28.109375 C-27.66859375 27.40039062 -26.9621875 26.69140625 -26.234375 25.9609375 C-25.49703125 25.23132813 -24.7596875 24.50171875 -24 23.75 C-23.26265625 23.00492188 -22.5253125 22.25984375 -21.765625 21.4921875 C-21.05921875 20.78835937 -20.3528125 20.08453125 -19.625 19.359375 C-18.97789062 18.71452148 -18.33078125 18.06966797 -17.6640625 17.40527344 C-16 16 -16 16 -14 16 C-13.34 14.68 -12.68 13.36 -12 12 C-11.34 12 -10.68 12 -10 12 C-9.34 10.68 -8.68 9.36 -8 8 C-7.34 8 -6.68 8 -6 8 C-5.34 6.68 -4.68 5.36 -4 4 C-3.34 4 -2.68 4 -2 4 C-1.34 2.68 -0.68 1.36 0 0 Z " fill="#1B7CBB" transform="translate(304,102)"/>
<path d="M0 0 C0.99 0 1.98 0 3 0 C6 5.75 6 5.75 6 8 C4.68 8 3.36 8 2 8 C1.505 6.02 1.505 6.02 1 4 C-2.22833656 4.68327509 -2.22833656 4.68327509 -3.3125 7.625 C-5.06308078 11.12616156 -7.06261165 13.53790067 -9.6953125 16.38671875 C-11.22206402 18.08174757 -11.22206402 18.08174757 -12 21 C-10.01508358 20.73323796 -10.01508358 20.73323796 -8 20 C-7.505 18.515 -7.505 18.515 -7 17 C-6.01 16.67 -5.02 16.34 -4 16 C-4 16.66 -4 17.32 -4 18 C-3.01 18.33 -2.02 18.66 -1 19 C-1.99 19.33 -2.98 19.66 -4 20 C-5.20882096 22.00016466 -5.20882096 22.00016466 -6 24 C-6.66 24 -7.32 24 -8 24 C-8.66 25.32 -9.32 26.64 -10 28 C-10.66 28 -11.32 28 -12 28 C-12.495 29.485 -12.495 29.485 -13 31 C-14.4294357 32.19673687 -15.86304856 33.38909815 -17.32421875 34.546875 C-19.0894073 36.07752801 -20.51534799 37.69804769 -22 39.5 C-24.70147457 42.76428178 -27.74222055 45.28518379 -31 48 C-32.55677288 49.81236245 -34.05076082 51.653531 -35.5078125 53.546875 C-37.40047096 55.38998743 -38.3371314 55.97543479 -41 56 C-43.359375 54.12890625 -43.359375 54.12890625 -45.75 51.5625 C-46.54921875 50.71816406 -47.3484375 49.87382812 -48.171875 49.00390625 C-48.77515625 48.34261719 -49.3784375 47.68132812 -50 47 C-49.01 46.505 -49.01 46.505 -48 46 C-45.375 46.9375 -45.375 46.9375 -43 48 C-42.67 45.36 -42.34 42.72 -42 40 C-43.32 39.67 -44.64 39.34 -46 39 C-46.33 39.99 -46.66 40.98 -47 42 C-47.144375 41.0925 -47.28875 40.185 -47.4375 39.25 C-47.86464992 36.78202269 -48.3741273 34.41933984 -49 32 C-48.52949219 32.42152344 -48.05898438 32.84304687 -47.57421875 33.27734375 C-46.64029297 34.09912109 -46.64029297 34.09912109 -45.6875 34.9375 C-44.76517578 35.75541016 -44.76517578 35.75541016 -43.82421875 36.58984375 C-41.94758042 38.20081559 -41.94758042 38.20081559 -39 39 C-38.38125 38.34 -37.7625 37.68 -37.125 37 C-35 35 -35 35 -33 35 C-32.34 33.68 -31.68 32.36 -31 31 C-30.34 31 -29.68 31 -29 31 C-28.34 29.68 -27.68 28.36 -27 27 C-26.34 27 -25.68 27 -25 27 C-24.34 25.68 -23.68 24.36 -23 23 C-22.34 23 -21.68 23 -21 23 C-20.34 21.68 -19.68 20.36 -19 19 C-18.34 19 -17.68 19 -17 19 C-16.34 17.68 -15.68 16.36 -15 15 C-14.34 15 -13.68 15 -13 15 C-12.34 13.68 -11.68 12.36 -11 11 C-10.34 11 -9.68 11 -9 11 C-8.34 9.68 -7.68 8.36 -7 7 C-6.34 7 -5.68 7 -5 7 C-4.34 5.68 -3.68 4.36 -3 3 C-2.34 3 -1.68 3 -1 3 C-0.67 2.01 -0.34 1.02 0 0 Z " fill="#187ABB" transform="translate(346,165)"/>
<path d="M0 0 C5.72821495 4.7966101 11.15580774 9.8424917 16.5 15.0625 C17.3353125 15.85205078 18.170625 16.64160156 19.03125 17.45507812 C19.815 18.22400391 20.59875 18.99292969 21.40625 19.78515625 C22.12103516 20.47488525 22.83582031 21.16461426 23.57226562 21.87524414 C25 24 25 24 24.88476562 26.58764648 C23.6718762 29.89464439 21.58937884 31.67619848 19 34 C15.09148801 32.41568547 12.47632644 29.73364905 9.578125 26.7734375 C9.07327576 26.26575836 8.56842651 25.75807922 8.04827881 25.23501587 C6.44407904 23.61966158 4.84699144 21.99747791 3.25 20.375 C2.16061893 19.27558302 1.0707801 18.17661941 -0.01953125 17.078125 C-2.68501885 14.3906398 -5.34415143 11.69700979 -8 9 C-7.34 7.68 -6.68 6.36 -6 5 C-5.34 5 -4.68 5 -4 5 C-3.566875 4.0409375 -3.566875 4.0409375 -3.125 3.0625 C-2 1 -2 1 0 0 Z " fill="#056FB7" transform="translate(306,129)"/>
<path d="M0 0 C0.66 0 1.32 0 2 0 C1.67 2.97 1.34 5.94 1 9 C0.34 9 -0.32 9 -1 9 C-0.979375 10.299375 -0.95875 11.59875 -0.9375 12.9375 C-0.91600546 14.29165633 -0.92851801 15.64756083 -1 17 C-1.33 17.33 -1.66 17.66 -2 18 C-1.85194293 23.43255553 -0.87043678 28.79568879 0.125 34.125 C0.97125916 39.14441503 1.34687517 43.06145771 0 48 C-2.5625 50 -2.5625 50 -5 51 C-11.71722746 44.05886496 -11.38388161 34.40295984 -11.75 25.25 C-11.80542969 24.23550781 -11.86085937 23.22101563 -11.91796875 22.17578125 C-11.96050781 21.19480469 -12.00304687 20.21382812 -12.046875 19.203125 C-12.08651367 18.32301758 -12.12615234 17.44291016 -12.16699219 16.53613281 C-11.9791332 13.68309316 -11.18559846 11.58602133 -10 9 C-9.34 9 -8.68 9 -8 9 C-7.67 8.34 -7.34 7.68 -7 7 C-5.35353315 5.31337542 -3.68816933 3.64488294 -2 2 C-1.34 2.33 -0.68 2.66 0 3 C0 2.01 0 1.02 0 0 Z " fill="#036FB7" transform="translate(254,166)"/>
<path d="M0 0 C3.43803208 1.93389305 4.69276462 2.9601264 5.8125 6.75 C5.874375 7.4925 5.93625 8.235 6 9 C3.36 9 0.72 9 -2 9 C-2.33 8.34 -2.66 7.68 -3 7 C-4.32 7.33 -5.64 7.66 -7 8 C-7 11.3 -7 14.6 -7 18 C-5.68 18 -4.36 18 -3 18 C-2.67 17.34 -2.34 16.68 -2 16 C-3.32 15.67 -4.64 15.34 -6 15 C-5.67 13.35 -5.34 11.7 -5 10 C-3.35425434 9.97311849 -1.70838587 9.95365877 -0.0625 9.9375 C0.85402344 9.92589844 1.77054687 9.91429687 2.71484375 9.90234375 C5 10 5 10 6 11 C6.07226502 12.85287502 6.0838122 14.70833878 6.0625 16.5625 C6.05347656 17.57441406 6.04445313 18.58632813 6.03515625 19.62890625 C6.02355469 20.41136719 6.01195312 21.19382812 6 22 C1.09573204 24.40209043 -2.41771413 25.62025399 -8 25 C-11.8277901 23.29875996 -13.46566023 21.85274743 -15 18 C-15.65739666 12.93957453 -15.9934905 7.78476898 -13.125 3.375 C-9.36038671 -0.83250897 -5.38669786 -0.66984844 0 0 Z " fill="#1F2021" transform="translate(264,272)"/>
<path d="M0 0 C1.65 0 3.3 0 5 0 C5.33773438 0.74765625 5.67546875 1.4953125 6.0234375 2.265625 C6.46945312 3.25046875 6.91546875 4.2353125 7.375 5.25 C8.03628906 6.71179688 8.03628906 6.71179688 8.7109375 8.203125 C9.76638138 10.49311839 10.85543935 12.75366601 12 15 C12.34933594 14.00097656 12.69867188 13.00195312 13.05859375 11.97265625 C13.51807919 10.66921795 13.97772279 9.3658354 14.4375 8.0625 C14.66759766 7.40314453 14.89769531 6.74378906 15.13476562 6.06445312 C16.88671875 1.11328125 16.88671875 1.11328125 18 0 C19.98 0 21.96 0 24 0 C24 7.92 24 15.84 24 24 C22.35 24 20.7 24 19 24 C18.67 21.03 18.34 18.06 18 15 C16.02 19.455 16.02 19.455 14 24 C12.35 24 10.7 24 9 24 C7.68 20.7 6.36 17.4 5 14 C4.67 17.3 4.34 20.6 4 24 C2.68 24 1.36 24 0 24 C0 16.08 0 8.16 0 0 Z " fill="#303030" transform="translate(359,272)"/>
<path d="M0 0 C2.53112995 1.96865663 3.45419872 3.29091187 4.6875 6.3125 C5.33324113 11.48620903 5.56318239 15.78005581 2.9375 20.375 C-0.19918616 23.0760353 -2.06132029 24.14930265 -6.1875 24.6875 C-10.24586385 24.20049634 -12.22886607 22.97563839 -15.3125 20.3125 C-17.92231457 15.43328145 -17.49950102 10.57742387 -16.3125 5.3125 C-15.30473775 2.97215958 -14.7128032 1.62042554 -12.6875 0.0625 C-8.47889936 -1.26653178 -4.22882285 -1.2572176 0 0 Z M-7.3125 5.3125 C-9.54302992 8.3460207 -10.35664957 9.73855564 -10.0625 13.5625 C-9.58641004 16.20396961 -9.58641004 16.20396961 -8.3125 17.3125 C-6.6625 17.3125 -5.0125 17.3125 -3.3125 17.3125 C-3.3125 13.6825 -3.3125 10.0525 -3.3125 6.3125 C-4.6325 5.9825 -5.9525 5.6525 -7.3125 5.3125 Z " fill="#1D1E1E" transform="translate(242.3125,272.6875)"/>
<path d="M0 0 C2.75569447 2.18159145 4.43588747 3.87177494 6 7 C6.41079745 11.90586951 6.62569374 16.46705034 4.75 21.0625 C1.80059573 24.32791187 -0.03481462 24.91225587 -4.4375 25.3125 C-8.37658205 24.96696649 -10.05122613 24.62113233 -13 22 C-15.77286837 17.66934042 -16.28212352 13.7928345 -15.5 8.75 C-14.68088087 5.56181177 -14.00632306 4.00804753 -11.9375 1.375 C-7.87864262 -0.52489069 -4.39967652 -0.94848099 0 0 Z M-6 6 C-8.21370051 7.78657757 -8.21370051 7.78657757 -8.1953125 10.1640625 C-8.17210937 10.97617187 -8.14890625 11.78828125 -8.125 12.625 C-8.10695313 13.44226563 -8.08890625 14.25953125 -8.0703125 15.1015625 C-8.04710937 15.72804688 -8.02390625 16.35453125 -8 17 C-6.02 17.99 -6.02 17.99 -4 19 C-2.33358994 18.009245 -2.33358994 18.009245 -1 16 C-0.60508601 13.20126171 -0.772871 10.86182546 -1 8 C-1.66 7.34 -2.32 6.68 -3 6 C-3.99 6 -4.98 6 -6 6 Z " fill="#1D1D1E" transform="translate(287,272)"/>
<path d="M0 0 C0.99 0.33 1.98 0.66 3 1 C3.144375 1.7425 3.28875 2.485 3.4375 3.25 C3.90187492 5.52027739 4.41863569 7.75759479 5 10 C6.32 9.67 7.64 9.34 9 9 C9 10.32 9 11.64 9 13 C9.99 13 10.98 13 12 13 C12 12.01 12 11.02 12 10 C12.66 10 13.32 10 14 10 C13.4740625 9.13375 13.4740625 9.13375 12.9375 8.25 C11.83422289 5.60213494 12.19843491 4.66814674 13 2 C15.40008604 4.37073409 17.79426638 6.74735022 20.1875 9.125 C20.86103516 9.79015625 21.53457031 10.4553125 22.22851562 11.140625 C26.04739081 14.94087153 29.62843098 18.79699551 33 23 C31.55754029 26.36573933 29.916532 28.75010389 27 31 C24.22834831 31.04383983 22.57255534 30.49028172 20.46069336 28.68188477 C18.70750273 26.87547933 17.03552333 25.01693033 15.375 23.125 C14.142307 21.76019768 12.90791087 20.39693183 11.671875 19.03515625 C11.05892578 18.35598145 10.44597656 17.67680664 9.81445312 16.97705078 C7.16497747 14.09014902 4.41101973 11.31699737 1.625 8.5625 C0.73039062 7.67691406 -0.16421875 6.79132813 -1.0859375 5.87890625 C-1.71757812 5.25886719 -2.34921875 4.63882813 -3 4 C-1.68 3.67 -0.36 3.34 1 3 C0.67 2.01 0.34 1.02 0 0 Z " fill="#046FB5" transform="translate(313,118)"/>
<path d="M0 0 C5.89118072 2.01489894 11.56816792 8.7698632 14.7109375 14.0078125 C15.59658326 16.34269677 15.53586985 18.34653011 15.3984375 20.8203125 C16.3884375 20.4903125 17.3784375 20.1603125 18.3984375 19.8203125 C19.0584375 20.1503125 19.7184375 20.4803125 20.3984375 20.8203125 C20.59375 26.875 20.59375 26.875 20.3984375 28.8203125 C19.7384375 29.4803125 19.0784375 30.1403125 18.3984375 30.8203125 C18.3984375 30.1603125 18.3984375 29.5003125 18.3984375 28.8203125 C17.3465625 28.5934375 16.2946875 28.3665625 15.2109375 28.1328125 C11.14099886 26.94676252 9.24974613 25.01106263 6.3984375 21.8203125 C4.00017298 19.51132348 1.59785665 17.20670667 -0.80859375 14.90625 C-2.6015625 12.8203125 -2.6015625 12.8203125 -2.6015625 9.8203125 C-3.2615625 9.4903125 -3.9215625 9.1603125 -4.6015625 8.8203125 C-4.6015625 7.5003125 -4.6015625 6.1803125 -4.6015625 4.8203125 C-5.9215625 4.4903125 -7.2415625 4.1603125 -8.6015625 3.8203125 C-6.48305135 0.64254578 -3.75175264 -0.09762925 0 0 Z " fill="#0E73B7" transform="translate(283.6015625,184.1796875)"/>
<path d="M0 0 C1.65 0 3.3 0 5 0 C7.23828125 2.625 7.23828125 2.625 9.3125 6 C10.00988281 7.11375 10.70726562 8.2275 11.42578125 9.375 C11.94527344 10.24125 12.46476562 11.1075 13 12 C13.33 8.04 13.66 4.08 14 0 C15.65 0 17.3 0 19 0 C19 7.92 19 15.84 19 24 C17.35 24 15.7 24 14 24 C11.76171875 21.375 11.76171875 21.375 9.6875 18 C8.99011719 16.88625 8.29273438 15.7725 7.57421875 14.625 C7.05472656 13.75875 6.53523438 12.8925 6 12 C5.67 15.96 5.34 19.92 5 24 C3.35 24 1.7 24 0 24 C0 16.08 0 8.16 0 0 Z " fill="#3C3C3D" transform="translate(312,272)"/>
<path d="M0 0 C0.99 0 1.98 0 3 0 C6 5.75 6 5.75 6 8 C4.68 8 3.36 8 2 8 C1.67 6.68 1.34 5.36 1 4 C-2.22833656 4.68327509 -2.22833656 4.68327509 -3.3125 7.625 C-5.06308078 11.12616156 -7.06261165 13.53790067 -9.6953125 16.38671875 C-11.22206402 18.08174757 -11.22206402 18.08174757 -12 21 C-10.01508358 20.73323796 -10.01508358 20.73323796 -8 20 C-7.67 19.01 -7.34 18.02 -7 17 C-6.01 16.67 -5.02 16.34 -4 16 C-4 16.66 -4 17.32 -4 18 C-3.01 18.33 -2.02 18.66 -1 19 C-1.99 19.33 -2.98 19.66 -4 20 C-5.20882096 22.00016466 -5.20882096 22.00016466 -6 24 C-6.66 24 -7.32 24 -8 24 C-8.66 25.32 -9.32 26.64 -10 28 C-10.66 28 -11.32 28 -12 28 C-12.33 28.99 -12.66 29.98 -13 31 C-14.42458777 32.19267813 -15.85351904 33.38089963 -17.3125 34.53125 C-19.71883766 36.625655 -21.63358722 39.04807196 -23.60546875 41.546875 C-25 43 -25 43 -28 44 C-28 42.35 -28 40.7 -28 39 C-27.01 39 -26.02 39 -25 39 C-25.495 37.515 -25.495 37.515 -26 36 C-24.515 35.505 -24.515 35.505 -23 35 C-21.90833725 33.06669397 -21.90833725 33.06669397 -21 31 C-20.34 30.34 -19.68 29.68 -19 29 C-18.83312552 26.41645782 -18.83312552 26.41645782 -19 24 C-21.57737166 25.03094867 -22.76284247 25.5108626 -24 28.0625 C-25 30 -25 30 -27.125 30.75 C-28.053125 30.87375 -28.053125 30.87375 -29 31 C-28.34 29.68 -27.68 28.36 -27 27 C-26.34 27 -25.68 27 -25 27 C-24.34 25.68 -23.68 24.36 -23 23 C-22.34 23 -21.68 23 -21 23 C-20.34 21.68 -19.68 20.36 -19 19 C-18.34 19 -17.68 19 -17 19 C-16.34 17.68 -15.68 16.36 -15 15 C-14.34 15 -13.68 15 -13 15 C-12.34 13.68 -11.68 12.36 -11 11 C-10.34 11 -9.68 11 -9 11 C-8.34 9.68 -7.68 8.36 -7 7 C-6.34 7 -5.68 7 -5 7 C-4.34 5.68 -3.68 4.36 -3 3 C-2.34 3 -1.68 3 -1 3 C-0.67 2.01 -0.34 1.02 0 0 Z " fill="#2782BA" transform="translate(346,165)"/>
<path d="M0 0 C2.2477975 2.05233685 3.0022242 3.00667261 4 6 C4.99 6.33 5.98 6.66 7 7 C8.6875 8.5625 8.6875 8.5625 10 10 C9.34 10.66 8.68 11.32 8 12 C7.29875 11.649375 6.5975 11.29875 5.875 10.9375 C2.48459505 9.83193317 0.45020389 10.31664937 -3 11 C-2.93941406 11.86802246 -2.87882812 12.73604492 -2.81640625 13.63037109 C-2.59222317 16.84696721 -2.36865562 20.06360535 -2.14550781 23.28027344 C-2.04875014 24.6731943 -1.9517462 26.06609808 -1.85449219 27.45898438 C-1.71484875 29.45959043 -1.5761606 31.46026309 -1.4375 33.4609375 C-1.35371094 34.66540527 -1.26992188 35.86987305 -1.18359375 37.11083984 C-1.08016764 38.73842569 -1 40.36913133 -1 42 C0.45833358 43.62514468 0.45833358 43.62514468 2 45 C0.68 45.66 -0.64 46.32 -2 47 C-2.66 46.34 -3.32 45.68 -4 45 C-6.58354218 44.83312552 -6.58354218 44.83312552 -9 45 C-10.125 39.25 -10.125 39.25 -9 37 C-9.66 36.67 -10.32 36.34 -11 36 C-10.98839844 35.10796875 -10.97679687 34.2159375 -10.96484375 33.296875 C-10.95582031 32.12640625 -10.94679688 30.9559375 -10.9375 29.75 C-10.92589844 28.58984375 -10.91429687 27.4296875 -10.90234375 26.234375 C-10.98217908 23.59022872 -11.21356222 21.50173909 -12 19 C-10.68 18.34 -9.36 17.68 -8 17 C-8 16.01 -8 15.02 -8 14 C-7.01 14.33 -6.02 14.66 -5 15 C-4.67 13.02 -4.34 11.04 -4 9 C-3.34 9 -2.68 9 -2 9 C-2.04125 7.88625 -2.0825 6.7725 -2.125 5.625 C-2 2 -2 2 0 0 Z " fill="#0A71B7" transform="translate(270,172)"/>
<path d="M0 0 C0.66 0 1.32 0 2 0 C1.67 1.65 1.34 3.3 1 5 C0.01 5.33 -0.98 5.66 -2 6 C-3.20882096 8.00016466 -3.20882096 8.00016466 -4 10 C-4.66 10 -5.32 10 -6 10 C-6.66 11.32 -7.32 12.64 -8 14 C-8.66 14 -9.32 14 -10 14 C-10.66 15.32 -11.32 16.64 -12 18 C-12.66 18 -13.32 18 -14 18 C-14.66 19.32 -15.32 20.64 -16 22 C-16.66 22 -17.32 22 -18 22 C-18.66 23.32 -19.32 24.64 -20 26 C-20.33 24.68 -20.66 23.36 -21 22 C-22.11375 21.9175 -23.2275 21.835 -24.375 21.75 C-28 21 -28 21 -29.4375 18.9375 C-29.623125 18.298125 -29.80875 17.65875 -30 17 C-29.071875 16.2575 -28.14375 15.515 -27.1875 14.75 C-24.71061648 12.70438561 -22.913529 10.58326416 -21 8 C-20.34 8 -19.68 8 -19 8 C-18.67 7.01 -18.34 6.02 -18 5 C-16.70644173 3.62804426 -15.37701298 2.28817344 -14 1 C-13.34 1.33 -12.68 1.66 -12 2 C-12.33 2.33 -12.66 2.66 -13 3 C-9.67913229 5.77000825 -9.67913229 5.77000825 -6 8 C-6 7.34 -6 6.68 -6 6 C-5.34 5.67 -4.68 5.34 -4 5 C-4 4.34 -4 3.68 -4 3 C-3.01 3 -2.02 3 -1 3 C-0.67 2.01 -0.34 1.02 0 0 Z " fill="#0170BC" transform="translate(340,163)"/>
<path d="M0 0 C6.62185633 5.84281441 11.12346796 13.36795261 13 22 C12.34 22 11.68 22 11 22 C11 22.99 11 23.98 11 25 C10.360625 25.144375 9.72125 25.28875 9.0625 25.4375 C7.02454854 25.81007181 7.02454854 25.81007181 6 27 C6.32265151 28.66876748 6.65808858 30.33507193 7 32 C7.07747197 33.76552798 7.10799073 35.53358456 7.09765625 37.30078125 C7.09443359 38.27724609 7.09121094 39.25371094 7.08789062 40.25976562 C7.07951172 41.26716797 7.07113281 42.27457031 7.0625 43.3125 C7.05798828 44.33923828 7.05347656 45.36597656 7.04882812 46.42382812 C7.03708184 48.94927882 7.02065565 51.47460905 7 54 C6.34 54 5.68 54 5 54 C5.06960938 52.63681641 5.06960938 52.63681641 5.140625 51.24609375 C5.4958024 38.87830916 3.7634632 27.45804028 -2.94921875 16.734375 C-4 15 -4 15 -5 12 C-5.99 12 -6.98 12 -8 12 C-8.33 12.99 -8.66 13.98 -9 15 C-9.33 15 -9.66 15 -10 15 C-10.36923077 9.46153846 -10.36923077 9.46153846 -8.5 7.125 C-8.005 6.75375 -7.51 6.3825 -7 6 C-6.67 6.99 -6.34 7.98 -6 9 C-5.34 9 -4.68 9 -4 9 C-4 9.66 -4 10.32 -4 11 C-3.4225 10.62875 -2.845 10.2575 -2.25 9.875 C0 9 0 9 2.25 9.875 C2.8275 10.24625 3.405 10.6175 4 11 C4 9.68 4 8.36 4 7 C3.01 6.67 2.02 6.34 1 6 C0.67 4.02 0.34 2.04 0 0 Z " fill="#1E78B5" transform="translate(354,149)"/>
<path d="M0 0 C-0.125 2.1875 -0.125 2.1875 -1 5 C-1.99 5.804375 -2.98 6.60875 -4 7.4375 C-7.54121328 10.46228634 -7.31800984 11.61577751 -8 16 C-10.25 17.25 -10.25 17.25 -13 18 C-15.70465742 18.86454438 -15.70465742 18.86454438 -18 20 C-18.33 20.99 -18.66 21.98 -19 23 C-20.98 23 -22.96 23 -25 23 C-25 22.01 -25 21.02 -25 20 C-26.32 20 -27.64 20 -29 20 C-29 20.66 -29 21.32 -29 22 C-28.34 22.33 -27.68 22.66 -27 23 C-28.39195915 25.7839183 -30.15575779 25.97898997 -33 27 C-33 25.68 -33 24.36 -33 23 C-34.98 22.67 -36.96 22.34 -39 22 C-38.67 21.34 -38.34 20.68 -38 20 C-35.66752239 19.66073053 -33.33414529 19.32759934 -31 19 C-30.34 18.34 -29.68 17.68 -29 17 C-25.375 16.875 -25.375 16.875 -22 17 C-22.33 15.35 -22.66 13.7 -23 12 C-11.28571429 4 -11.28571429 4 -7 4 C-7 3.01 -7 2.02 -7 1 C-4.53721199 -0.231394 -2.7204945 -0.07159196 0 0 Z " fill="#0872B9" transform="translate(354,228)"/>
<path d="M0 0 C2.42260742 0.14868164 2.42260742 0.14868164 5 1 C6.30200195 3.00952148 6.30200195 3.00952148 7.23828125 5.62109375 C7.58310547 6.55630859 7.92792969 7.49152344 8.28320312 8.45507812 C8.79270508 9.93137695 8.79270508 9.93137695 9.3125 11.4375 C9.67150391 12.41783203 10.03050781 13.39816406 10.40039062 14.40820312 C13 21.60293155 13 21.60293155 13 24 C11.35 24 9.7 24 8 24 C7.34 22.35 6.68 20.7 6 19 C3.36 19 0.72 19 -2 19 C-2.99 21.475 -2.99 21.475 -4 24 C-5.65 24 -7.3 24 -9 24 C-3.234375 3.234375 -3.234375 3.234375 0 0 Z M2 9 C1.34 10.65 0.68 12.3 0 14 C1.32 14 2.64 14 4 14 C3.67 12.35 3.34 10.7 3 9 C2.67 9 2.34 9 2 9 Z " fill="#292929" transform="translate(343,272)"/>
<path d="M0 0 C2.64 0 5.28 0 8 0 C8 5.94 8 11.88 8 18 C10.97 18 13.94 18 17 18 C17 19.98 17 21.96 17 24 C11.39 24 5.78 24 0 24 C0 16.08 0 8.16 0 0 Z " fill="#121213" transform="translate(208,272)"/>
<path d="M0 0 C5.28 0 10.56 0 16 0 C16 1.32 16 2.64 16 4 C12.37 4 8.74 4 5 4 C5 5.98 5 7.96 5 10 C7.97 10 10.94 10 14 10 C14 11.32 14 12.64 14 14 C11.03 14 8.06 14 5 14 C5 15.98 5 17.96 5 20 C8.63 20 12.26 20 16 20 C16 21.32 16 22.64 16 24 C10.72 24 5.44 24 0 24 C0 16.08 0 8.16 0 0 Z " fill="#121212" transform="translate(388,272)"/>
<path d="M0 0 C3 0 3 0 4.5 1.4375 C4.995 1.953125 5.49 2.46875 6 3 C6.99 3.33 7.98 3.66 9 4 C10.99186369 9.13691161 11.1921227 13.52450293 11 19 C7.04 20.98 7.04 20.98 3 23 C3 21.68 3 20.36 3 19 C2.34 19 1.68 19 1 19 C1 17.35 1 15.7 1 14 C-2.04913228 12.98888907 -2.04913228 12.98888907 -5 14 C-5 14.99 -5 15.98 -5 17 C-6.65 17 -8.3 17 -10 17 C-9.38722388 14.03824877 -8.74627478 12.61941217 -7 10 C-6.34 10 -5.68 10 -5 10 C-4.731875 9.46375 -4.46375 8.9275 -4.1875 8.375 C-2.79166667 5.58333333 -1.39583333 2.79166667 0 0 Z " fill="#026EB7" transform="translate(344,169)"/>
<path d="M0 0 C0.66 0.33 1.32 0.66 2 1 C1.95875 1.78375 1.9175 2.5675 1.875 3.375 C1.71271266 6.16116119 1.71271266 6.16116119 4 8 C4.4125 7.360625 4.825 6.72125 5.25 6.0625 C7.17810487 3.79009069 8.11424181 3.39803561 11 3 C9.53932951 7.13856638 7.5279885 10.41868296 5 14 C4.59007812 14.62003906 4.18015625 15.24007812 3.7578125 15.87890625 C-3.0714272 25.73693305 -13.19640745 32.15126281 -24 37 C-24.99 37 -25.98 37 -27 37 C-27 36.34 -27 35.68 -27 35 C-25.68 35 -24.36 35 -23 35 C-23 34.34 -23 33.68 -23 33 C-21.68 33 -20.36 33 -19 33 C-18.938125 32.38125 -18.87625 31.7625 -18.8125 31.125 C-18 29 -18 29 -15.75 27.8125 C-13.17493405 27.05168506 -10.64555693 26.45352405 -8 26 C-8.12375 25.113125 -8.2475 24.22625 -8.375 23.3125 C-8 20 -8 20 -5.125 17.4375 C-4.09375 16.633125 -3.0625 15.82875 -2 15 C-0.60180488 12.3485518 -0.60180488 12.3485518 0 10 C-2.31 10.66 -4.62 11.32 -7 12 C-7 12.99 -7 13.98 -7 15 C-8.98 15.33 -10.96 15.66 -13 16 C-12.34 15.01 -11.68 14.02 -11 13 C-10.34 13 -9.68 13 -9 13 C-8.61714844 12.15695313 -8.61714844 12.15695313 -8.2265625 11.296875 C-6.84307219 8.70613518 -5.20061417 6.54892155 -3.375 4.25 C-2.74335938 3.45078125 -2.11171875 2.6515625 -1.4609375 1.828125 C-0.97882813 1.22484375 -0.49671875 0.6215625 0 0 Z " fill="#0870B5" transform="translate(354,218)"/>
<path d="M0 0 C4.71200227 3.92666856 8.93312797 7.96823338 13.0078125 12.55859375 C14.96441907 14.31051147 14.96441907 14.31051147 17.7421875 13.72265625 C18.48726563 13.48417969 19.23234375 13.24570313 20 13 C20.495 14.485 20.495 14.485 21 16 C14.25 19 14.25 19 12 19 C12 17.35 12 15.7 12 14 C10.35 14.66 8.7 15.32 7 16 C6.9175 15.38125 6.835 14.7625 6.75 14.125 C6.18741541 11.81562433 6.18741541 11.81562433 3.9375 10.75 C3.298125 10.5025 2.65875 10.255 2 10 C2.33 10.99 2.66 11.98 3 13 C3 15 3 17 3 19 C-0.41749503 17.86083499 -1.42509214 16.36727857 -3.609375 13.6171875 C-5.80591106 11.06278882 -8.38164104 9.11697108 -11 7 C-13.375 4.8125 -13.375 4.8125 -15 3 C-15 2.34 -15 1.68 -15 1 C-12.5625 1.375 -12.5625 1.375 -10 2 C-9.67 2.66 -9.34 3.32 -9 4 C-7.13803054 4.92393164 -7.13803054 4.92393164 -5 5 C-3.35405861 3.60411246 -3.35405861 3.60411246 -2 2 C-1.34 2 -0.68 2 0 2 C0 1.34 0 0.68 0 0 Z " fill="#247FBE" transform="translate(290,169)"/>
<path d="M0 0 C0.33 1.32 0.66 2.64 1 4 C1.556875 4.061875 2.11375 4.12375 2.6875 4.1875 C6.07268083 5.37688786 7.74885185 7.24859671 10 10 C10.3125 12.8125 10.3125 12.8125 10 15 C8.68 15.33 7.36 15.66 6 16 C6.33 17.65 6.66 19.3 7 21 C7.53625 20.814375 8.0725 20.62875 8.625 20.4375 C11.61990614 19.88580676 14.03745829 20.39402556 17 21 C17.33 21.99 17.66 22.98 18 24 C14.47314313 24.08015584 11.3680275 24.08646048 8 23 C7.195625 22.7525 6.39125 22.505 5.5625 22.25 C2.25721699 20.63766682 0.32784948 18.84514936 -2 16 C-2.8125 12.6875 -2.8125 12.6875 -3 10 C-3.99 10 -4.98 10 -6 10 C-7.75 8.1875 -7.75 8.1875 -9 6 C-8.67 5.01 -8.34 4.02 -8 3 C-7.67 3.66 -7.34 4.32 -7 5 C-4.97536745 5.65213292 -4.97536745 5.65213292 -3 6 C-2.814375 5.071875 -2.814375 5.071875 -2.625 4.125 C-2 2 -2 2 0 0 Z " fill="#0870B7" transform="translate(284,134)"/>
<path d="M0 0 C0.94875 0.45375 1.8975 0.9075 2.875 1.375 C7.42383401 3.34585006 12.13502224 4.16796155 17 5 C16.01 5.66 15.02 6.32 14 7 C13.61781233 8.65614657 13.28604898 10.32457024 13 12 C12.01 13.485 12.01 13.485 11 15 C17.93 15 24.86 15 32 15 C22.92626211 19.53686895 11.55993642 17.24804726 2.24609375 14.27734375 C-3.68837123 11.94212107 -9.40249988 9.39625019 -13 4 C-10 5 -7 6 -4 7 C-2.00038436 7.03920815 0.00049364 7.04443347 2 7 C2 5.68 2 4.36 2 3 C1.34 2.67 0.68 2.34 0 2 C0 1.34 0 0.68 0 0 Z " fill="#3288BE" transform="translate(286,227)"/>
<path d="M0 0 C6.01658253 1.02504739 9.92927599 5.48401964 13.375 10.25 C14.59347394 13.37851418 15.00027676 15.87749083 15.375 19.25 C14.715 19.25 14.055 19.25 13.375 19.25 C13.375 20.24 13.375 21.23 13.375 22.25 C12.385 22.25 11.395 22.25 10.375 22.25 C9.715 21.26 9.055 20.27 8.375 19.25 C7.715 19.25 7.055 19.25 6.375 19.25 C4.85051369 16.2673094 3.43559933 13.431798 2.375 10.25 C2.375 10.91 2.375 11.57 2.375 12.25 C0.5 12.0625 0.5 12.0625 -1.625 11.25 C-2.6875 8.875 -2.6875 8.875 -3.625 6.25 C-5.14507842 4.47722741 -5.14507842 4.47722741 -6.625 3.25 C-4.71725059 0.26914154 -3.58617611 0.24732249 0 0 Z " fill="#036FB8" transform="translate(311.625,108.75)"/>
<path d="M0 0 C6.27 0 12.54 0 19 0 C18.34 1.65 17.68 3.3 17 5 C18.65 4.34 20.3 3.68 22 3 C22.99 4.485 22.99 4.485 24 6 C18.41523931 9.58214448 13.51742747 9.3564056 7.125 9.1875 C5.66320312 9.16719727 5.66320312 9.16719727 4.171875 9.14648438 C1.78067137 9.11131962 -0.60936975 9.0621067 -3 9 C-2 6 -1 3 0 0 Z " fill="#086DAF" transform="translate(300,233)"/>
<path d="M0 0 C5.66129431 4.69766975 10.85228904 9.74723372 16 15 C14.68 15.33 13.36 15.66 12 16 C12 15.34 12 14.68 12 14 C9.69 14 7.38 14 5 14 C4.34 15.65 3.68 17.3 3 19 C-0.80635497 15.79239749 -4.54563567 12.59253891 -8 9 C-7.34 7.68 -6.68 6.36 -6 5 C-5.34 5 -4.68 5 -4 5 C-3.566875 4.0409375 -3.566875 4.0409375 -3.125 3.0625 C-2 1 -2 1 0 0 Z " fill="#207DBA" transform="translate(306,129)"/>
<path d="M0 0 C1.6875 1.5 1.6875 1.5 3 4 C2.35208262 6.82923922 1.23902204 9.38216883 0 12 C-0.66 12 -1.32 12 -2 12 C-2.33 12.66 -2.66 13.32 -3 14 C-3.99 14.33 -4.98 14.66 -6 15 C-6.99 15.495 -6.99 15.495 -8 16 C-9.67654729 15.72057545 -11.34608154 15.39171753 -13 15 C-13.33 15.66 -13.66 16.32 -14 17 C-15.32 17 -16.64 17 -18 17 C-17.34 15.35 -16.68 13.7 -16 12 C-19.3 12 -22.6 12 -26 12 C-26 11.67 -26 11.34 -26 11 C-25.23816406 10.84144531 -24.47632813 10.68289062 -23.69140625 10.51953125 C-16.70352839 8.94049768 -11.04842676 6.81421198 -5 3 C-3.989375 2.401875 -2.97875 1.80375 -1.9375 1.1875 C-1.298125 0.795625 -0.65875 0.40375 0 0 Z " fill="#016EB9" transform="translate(335,221)"/>
<path d="M0 0 C0.103125 0.61875 0.20625 1.2375 0.3125 1.875 C0.87525373 4.36526484 0.87525373 4.36526484 4 6 C4.66 5.34 5.32 4.68 6 4 C7.32 4.99 8.64 5.98 10 7 C9.21654285 8.17219543 8.42297164 9.33763668 7.625 10.5 C7.18414062 11.1496875 6.74328125 11.799375 6.2890625 12.46875 C5.86367188 12.9740625 5.43828125 13.479375 5 14 C4.34 14 3.68 14 3 14 C2.80019531 14.57492188 2.60039062 15.14984375 2.39453125 15.7421875 C0.46882945 18.85999042 -2.2232698 20.32152044 -5.3125 22.125 C-5.88162109 22.47175781 -6.45074219 22.81851563 -7.03710938 23.17578125 C-15.49416578 28.24418933 -15.49416578 28.24418933 -19.3125 27.625 C-20.1478125 27.315625 -20.1478125 27.315625 -21 27 C-19.35 26.34 -17.7 25.68 -16 25 C-16 24.01 -16 23.02 -16 22 C-14.35 22 -12.7 22 -11 22 C-10.67 21.34 -10.34 20.68 -10 20 C-6.9375 19.375 -6.9375 19.375 -4 19 C-3.7834375 17.576875 -3.7834375 17.576875 -3.5625 16.125 C-3 13 -3 13 -2 11 C-2.66 10.01 -3.32 9.02 -4 8 C-4.99 8.495 -4.99 8.495 -6 9 C-5.34 7.68 -4.68 6.36 -4 5 C-3.34 5 -2.68 5 -2 5 C-1.855625 4.360625 -1.71125 3.72125 -1.5625 3.0625 C-1 1 -1 1 0 0 Z " fill="#2883C0" transform="translate(339,214)"/>
<path d="M0 0 C0.99 0.33 1.98 0.66 3 1 C3.144375 1.7425 3.28875 2.485 3.4375 3.25 C3.90187492 5.52027739 4.41863569 7.75759479 5 10 C6.32 9.67 7.64 9.34 9 9 C9 10.32 9 11.64 9 13 C9.99 13 10.98 13 12 13 C12 12.01 12 11.02 12 10 C12.66 10 13.32 10 14 10 C13.4740625 9.13375 13.4740625 9.13375 12.9375 8.25 C11.83422289 5.60213494 12.19843491 4.66814674 13 2 C15.48730862 4.4293086 17.96337167 6.86977494 20.4375 9.3125 C21.49807617 10.34793945 21.49807617 10.34793945 22.58007812 11.40429688 C23.25361328 12.07138672 23.92714844 12.73847656 24.62109375 13.42578125 C25.2442749 14.03848877 25.86745605 14.65119629 26.50952148 15.2824707 C28 17 28 17 29 20 C28.34 20 27.68 20 27 20 C27 19.34 27 18.68 27 18 C25.8553125 17.7834375 25.8553125 17.7834375 24.6875 17.5625 C22 17 22 17 19 16 C19.33 14.68 19.66 13.36 20 12 C18.35 12 16.7 12 15 12 C15 14.64 15 17.28 15 20 C15.99 20.33 16.98 20.66 18 21 C17.34 21.66 16.68 22.32 16 23 C9.73 16.73 3.46 10.46 -3 4 C-1.68 3.67 -0.36 3.34 1 3 C0.67 2.01 0.34 1.02 0 0 Z " fill="#247FBC" transform="translate(313,118)"/>
<path d="M0 0 C0.99 0 1.98 0 3 0 C6 5.75 6 5.75 6 8 C4.68 8 3.36 8 2 8 C1.67 6.68 1.34 5.36 1 4 C-2.22833656 4.68327509 -2.22833656 4.68327509 -3.3125 7.625 C-5.04687833 11.09375666 -7.01983932 13.413876 -9.58984375 16.26171875 C-11.22541255 18.13664469 -11.22541255 18.13664469 -12.5625 21.3125 C-14 24 -14 24 -16.6875 25.375 C-17.450625 25.58125 -18.21375 25.7875 -19 26 C-19 25.34 -19 24.68 -19 24 C-21.57737166 25.03094867 -22.76284247 25.5108626 -24 28.0625 C-25 30 -25 30 -27.125 30.75 C-28.053125 30.87375 -28.053125 30.87375 -29 31 C-28.34 29.68 -27.68 28.36 -27 27 C-26.34 27 -25.68 27 -25 27 C-24.34 25.68 -23.68 24.36 -23 23 C-22.34 23 -21.68 23 -21 23 C-20.34 21.68 -19.68 20.36 -19 19 C-18.34 19 -17.68 19 -17 19 C-16.34 17.68 -15.68 16.36 -15 15 C-14.34 15 -13.68 15 -13 15 C-12.34 13.68 -11.68 12.36 -11 11 C-10.34 11 -9.68 11 -9 11 C-8.34 9.68 -7.68 8.36 -7 7 C-6.34 7 -5.68 7 -5 7 C-4.34 5.68 -3.68 4.36 -3 3 C-2.34 3 -1.68 3 -1 3 C-0.67 2.01 -0.34 1.02 0 0 Z " fill="#1D7CB9" transform="translate(346,165)"/>
<path d="M0 0 C0.33 0.99 0.66 1.98 1 3 C2.65 3.33 4.3 3.66 6 4 C6 4.66 6 5.32 6 6 C5.34 6 4.68 6 4 6 C3.731875 6.969375 3.46375 7.93875 3.1875 8.9375 C2.39865885 11.73480904 1.48298615 14.45310197 0.5 17.1875 C-1.36674109 22.66453732 -2.1784331 28.28769367 -3 34 C-4.73252349 30.78832601 -5.2984943 28.68142974 -5 25 C-4.67 24.67 -4.34 24.34 -4 24 C-3.76924918 22.65252916 -3.58846937 21.29622435 -3.4375 19.9375 C-3.293125 18.638125 -3.14875 17.33875 -3 16 C-2.34 16 -1.68 16 -1 16 C-0.67 13.03 -0.34 10.06 0 7 C-0.66 7 -1.32 7 -2 7 C-2 7.99 -2 8.98 -2 10 C-2.99 10 -3.98 10 -5 10 C-6.35386936 11.65002828 -7.68678142 13.3174387 -9 15 C-9.99 15.33 -10.98 15.66 -12 16 C-12.33 16.66 -12.66 17.32 -13 18 C-12.30121844 13.52779804 -11.08361385 9.03366271 -9 5 C-5.77208445 2.8480563 -4.71599191 2.79913557 -1 3 C-0.67 2.01 -0.34 1.02 0 0 Z " fill="#0170BC" transform="translate(256,159)"/>
<path d="M0 0 C1.12588014 0.95729916 2.2506715 1.91587895 3.375 2.875 C4.00148438 3.40867188 4.62796875 3.94234375 5.2734375 4.4921875 C6.55836651 5.61432007 7.79371975 6.79371975 9 8 C8.89834392 11.76127491 8.00920966 12.98989184 5.4375 15.8125 C4.633125 16.534375 3.82875 17.25625 3 18 C-0.21524305 16.59155282 -2.32183868 14.89655214 -4.75 12.375 C-5.36359375 11.74335938 -5.9771875 11.11171875 -6.609375 10.4609375 C-7.06828125 9.97882813 -7.5271875 9.49671875 -8 9 C-6.68 8.67 -5.36 8.34 -4 8 C-4 8.66 -4 9.32 -4 10 C-3.34 10 -2.68 10 -2 10 C-1.34 9.01 -0.68 8.02 0 7 C0.99 7 1.98 7 3 7 C3 6.01 3 5.02 3 4 C1.35 4 -0.3 4 -2 4 C-1.34 2.68 -0.68 1.36 0 0 Z " fill="#2982BB" transform="translate(322,145)"/>
<path d="M0 0 C0.99 0 1.98 0 3 0 C3.12375 1.134375 3.2475 2.26875 3.375 3.4375 C3.58125 4.613125 3.7875 5.78875 4 7 C4.66 7.33 5.32 7.66 6 8 C5.01 8.33 4.02 8.66 3 9 C3 9.99 3 10.98 3 12 C3.66 12 4.32 12 5 12 C4.67 12.99 4.34 13.98 4 15 C3.01 14.67 2.02 14.34 1 14 C-2.05824622 12.96621246 -2.05824622 12.96621246 -5 14 C-5 14.99 -5 15.98 -5 17 C-6.65 17 -8.3 17 -10 17 C-9.38722388 14.03824877 -8.74627478 12.61941217 -7 10 C-6.34 10 -5.68 10 -5 10 C-4.731875 9.46375 -4.46375 8.9275 -4.1875 8.375 C-2.79166667 5.58333333 -1.39583333 2.79166667 0 0 Z M6 5 C6.99 5.495 6.99 5.495 8 6 C8 7.65 8 9.3 8 11 C6 7.25 6 7.25 6 5 Z " fill="#026EB7" transform="translate(344,169)"/>
<path d="M0 0 C3.63559661 3.43361902 6.36113346 6.7973607 9 11 C8.67 11.66 8.34 12.32 8 13 C7.01 13 6.02 13 5 13 C4.67 14.65 4.34 16.3 4 18 C3.38125 17.814375 2.7625 17.62875 2.125 17.4375 C-0.04160178 16.76313824 -0.04160178 16.76313824 -2 18 C-5 14.25 -5 14.25 -5 12 C-5.99 12 -6.98 12 -8 12 C-8.33 12.99 -8.66 13.98 -9 15 C-9.33 15 -9.66 15 -10 15 C-10.36923077 9.46153846 -10.36923077 9.46153846 -8.5 7.125 C-8.005 6.75375 -7.51 6.3825 -7 6 C-6.67 6.99 -6.34 7.98 -6 9 C-5.34 9 -4.68 9 -4 9 C-4 9.66 -4 10.32 -4 11 C-3.4225 10.62875 -2.845 10.2575 -2.25 9.875 C0 9 0 9 2.25 9.875 C2.8275 10.24625 3.405 10.6175 4 11 C4 9.68 4 8.36 4 7 C3.01 6.67 2.02 6.34 1 6 C0.67 4.02 0.34 2.04 0 0 Z " fill="#0672B9" transform="translate(354,149)"/>
<path d="M0 0 C2.88437779 1.29299694 4.87219421 2.65941363 7 5 C5.35 4.67 3.7 4.34 2 4 C2.08378906 4.63808594 2.16757812 5.27617187 2.25390625 5.93359375 C2.35574219 6.75988281 2.45757812 7.58617187 2.5625 8.4375 C2.66691406 9.26121094 2.77132813 10.08492187 2.87890625 10.93359375 C2.91886719 11.61550781 2.95882813 12.29742187 3 13 C2.67 13.33 2.34 13.66 2 14 C4.64 14.66 7.28 15.32 10 16 C10 16.66 10 17.32 10 18 C11.423125 18.433125 11.423125 18.433125 12.875 18.875 C16 20 16 20 18 22 C16.421875 22.71875 16.421875 22.71875 14 23 C11.59279263 21.93276521 9.49001783 20.84748731 7.25 19.5 C6.63108887 19.13777344 6.01217773 18.77554688 5.37451172 18.40234375 C0.44339741 15.44083748 -3.91358122 12.06103729 -8 8 C-4.375 5 -4.375 5 -1 5 C-0.67 3.35 -0.34 1.7 0 0 Z " fill="#1579BC" transform="translate(268,232)"/>
<path d="M0 0 C0.99 0 1.98 0 3 0 C2.57815258 4.92155321 0.61671555 6.76804142 -3 10 C-3.54527344 10.53625 -4.09054687 11.0725 -4.65234375 11.625 C-10.17897116 16.85952236 -19.10164683 24 -27 24 C-27 23.34 -27 22.68 -27 22 C-25.68 22 -24.36 22 -23 22 C-23 21.34 -23 20.68 -23 20 C-21.68 20 -20.36 20 -19 20 C-18.938125 19.38125 -18.87625 18.7625 -18.8125 18.125 C-18 16 -18 16 -15.75 14.8125 C-13.17493405 14.05168506 -10.64555693 13.45352405 -8 13 C-8.12375 12.113125 -8.2475 11.22625 -8.375 10.3125 C-7.9659924 6.69959951 -7.73697452 6.33757065 -5.125 4.125 C-2 2 -2 2 0 2 C0 1.34 0 0.68 0 0 Z " fill="#1E7BB8" transform="translate(354,231)"/>
<path d="M0 0 C5.28 0 10.56 0 16 0 C15.67 0.99 15.34 1.98 15 3 C15 2.34 15 1.68 15 1 C8.565 1.495 8.565 1.495 2 2 C2 6.95 2 11.9 2 17 C2.99 16.01 3.98 15.02 5 14 C5 15.98 5 17.96 5 20 C8.63 20 12.26 20 16 20 C16 21.32 16 22.64 16 24 C10.72 24 5.44 24 0 24 C0 16.08 0 8.16 0 0 Z " fill="#3F4143" transform="translate(388,272)"/>
<path d="M0 0 C0 3.57575896 -1.08840607 5.05295935 -3 8 C-2.01 8 -1.02 8 0 8 C0.33 8.66 0.66 9.32 1 10 C3.60195202 8.12061627 3.60195202 8.12061627 6 6 C6.66 5.34 7.32 4.68 8 4 C8.99 4.33 9.98 4.66 11 5 C10.6875 6.9375 10.6875 6.9375 10 9 C9.01 9.33 8.02 9.66 7 10 C5.79117904 12.00016466 5.79117904 12.00016466 5 14 C4.34 14 3.68 14 3 14 C2.34 15.32 1.68 16.64 1 18 C0.67 16.68 0.34 15.36 0 14 C-1.11375 13.9175 -2.2275 13.835 -3.375 13.75 C-7 13 -7 13 -8.4375 10.9375 C-8.623125 10.298125 -8.80875 9.65875 -9 9 C-7.6078125 7.88625 -7.6078125 7.88625 -6.1875 6.75 C-3.72873042 4.70974439 -1.78352451 2.67528677 0 0 Z " fill="#167ABC" transform="translate(319,171)"/>
<path d="M0 0 C1.093125 0.226875 2.18625 0.45375 3.3125 0.6875 C3.43625 1.55375 3.43625 1.55375 3.5625 2.4375 C4.51781013 5.3034304 6.09719173 6.6865764 8.3125 8.6875 C7.6525 10.0075 6.9925 11.3275 6.3125 12.6875 C5.3225 12.3575 4.3325 12.0275 3.3125 11.6875 C2.9825 11.0275 2.6525 10.3675 2.3125 9.6875 C2.3125 10.3475 2.3125 11.0075 2.3125 11.6875 C0.4375 11.5 0.4375 11.5 -1.6875 10.6875 C-2.75 8.3125 -2.75 8.3125 -3.6875 5.6875 C-5.20757842 3.91472741 -5.20757842 3.91472741 -6.6875 2.6875 C-4.58035839 -0.41123767 -3.86755884 -0.32775922 0 0 Z " fill="#036DB4" transform="translate(311.6875,109.3125)"/>
<path d="M0 0 C1.65 0 3.3 0 5 0 C5.33 0.99 5.66 1.98 6 3 C6.99 3.33 7.98 3.66 9 4 C9 5.32 9 6.64 9 8 C10.65 8 12.3 8 14 8 C14 8.66 14 9.32 14 10 C12.03852126 11.38938077 10.03833424 12.7260411 8 14 C4.125 12.25 4.125 12.25 3 10 C1.68 9.67 0.36 9.34 -1 9 C-0.67 6.03 -0.34 3.06 0 0 Z " fill="#026EB6" transform="translate(276,161)"/>
<path d="M0 0 C1.22589844 0.15275391 1.22589844 0.15275391 2.4765625 0.30859375 C3.41628906 0.43427734 3.41628906 0.43427734 4.375 0.5625 C4.375 1.2225 4.375 1.8825 4.375 2.5625 C5.695 3.2225 7.015 3.8825 8.375 4.5625 C7.385 5.0575 7.385 5.0575 6.375 5.5625 C6.375 6.2225 6.375 6.8825 6.375 7.5625 C1.58479426 8.57096437 -1.30493022 9.14283208 -5.625 6.625 C-6.615 5.944375 -7.605 5.26375 -8.625 4.5625 C-8.625 3.9025 -8.625 3.2425 -8.625 2.5625 C-7.965 2.5625 -7.305 2.5625 -6.625 2.5625 C-6.625 1.9025 -6.625 1.2425 -6.625 0.5625 C-4.10446405 -0.69776798 -2.7707902 -0.35624445 0 0 Z " fill="#046EB5" transform="translate(281.625,226.4375)"/>
<path d="M0 0 C2.12579013 0.05988141 4.25078413 0.14862744 6.375 0.25 C8.15003906 0.31960937 8.15003906 0.31960937 9.9609375 0.390625 C13 1 13 1 14.4765625 2.921875 C15 5 15 5 14 7 C8.72 7 3.44 7 -2 7 C-1.34 5.35 -0.68 3.7 0 2 C0 1.34 0 0.68 0 0 Z " fill="#006FB8" transform="translate(299,234)"/>
<path d="M0 0 C0.66 0.33 1.32 0.66 2 1 C2 1.66 2 2.32 2 3 C4.97 3.495 4.97 3.495 8 4 C8 5.32 8 6.64 8 8 C5.36 8 2.72 8 0 8 C-0.66 9.65 -1.32 11.3 -2 13 C-3.65 13 -5.3 13 -7 13 C-4.29384966 3.40546697 -4.29384966 3.40546697 0 0 Z " fill="#17191A" transform="translate(341,283)"/>
<path d="M0 0 C2.64 0 5.28 0 8 0 C8 5.94 8 11.88 8 18 C10.97 18 13.94 18 17 18 C17 19.98 17 21.96 17 24 C10.6 24.49230769 10.6 24.49230769 7.5625 22 C7.046875 21.34 6.53125 20.68 6 20 C6.33 19.67 6.66 19.34 7 19 C7.08631874 17.65732587 7.10706473 16.31025678 7.09765625 14.96484375 C7.09443359 14.15595703 7.09121094 13.34707031 7.08789062 12.51367188 C7.07951172 11.66353516 7.07113281 10.81339844 7.0625 9.9375 C7.05573242 8.65649414 7.05573242 8.65649414 7.04882812 7.34960938 C7.03700373 5.23304337 7.01906769 3.11651315 7 1 C4.69 1 2.38 1 0 1 C0 0.67 0 0.34 0 0 Z " fill="#636364" transform="translate(208,272)"/>
<path d="M0 0 C-0.25 2.875 -0.25 2.875 -1 6 C-2.9375 7.125 -2.9375 7.125 -5 8 C-6.26804566 10.0335948 -6.26804566 10.0335948 -7 12 C-7.66 12 -8.32 12 -9 12 C-9.33 12.66 -9.66 13.32 -10 14 C-10.33 11.69 -10.66 9.38 -11 7 C-10.01 7.33 -9.02 7.66 -8 8 C-7.67 7.01 -7.34 6.02 -7 5 C-7.66 5 -8.32 5 -9 5 C-8.625 2.5625 -8.625 2.5625 -8 0 C-5.13822943 -1.43088528 -3.06624227 -0.59991697 0 0 Z " fill="#187ABC" transform="translate(319,185)"/>
<path d="M0 0 C-0.33 1.32 -0.66 2.64 -1 4 C-2.11375 3.95875 -3.2275 3.9175 -4.375 3.875 C-8.04366025 3.58878141 -8.04366025 3.58878141 -10 6 C-12.43017578 6.22705078 -12.43017578 6.22705078 -15.4453125 6.1953125 C-16.52167969 6.18886719 -17.59804688 6.18242187 -18.70703125 6.17578125 C-19.83496094 6.15902344 -20.96289062 6.14226562 -22.125 6.125 C-23.26066406 6.11597656 -24.39632813 6.10695312 -25.56640625 6.09765625 C-28.37781299 6.07403098 -31.18880298 6.04109013 -34 6 C-34 5.67 -34 5.34 -34 5 C-33.09121094 4.98582031 -32.18242187 4.97164062 -31.24609375 4.95703125 C-22.46592581 4.62383513 -15.34540801 3.12251086 -7.14453125 -0.0390625 C-4.10534038 -0.96780903 -2.87952865 -1.18610858 0 0 Z " fill="#2477A8" transform="translate(333,242)"/>
<path d="M0 0 C0.33 0 0.66 0 1 0 C1 4.29 1 8.58 1 13 C0.34 13 -0.32 13 -1 13 C-0.67 14.98 -0.34 16.96 0 19 C0.66 18.67 1.32 18.34 2 18 C1.67 22.62 1.34 27.24 1 32 C1.99 32.33 2.98 32.66 4 33 C3.01 34.32 2.02 35.64 1 37 C-1.48762885 30.27747917 -2.30076447 23.9227626 -2.3125 16.8125 C-2.31765625 16.06500488 -2.3228125 15.31750977 -2.328125 14.54736328 C-2.2647794 9.41523885 -1.40318667 4.93631006 0 0 Z " fill="#2B7FB5" transform="translate(258,176)"/>
<path d="M0 0 C2.29633824 3.44450737 2.54016485 5.93812283 3 10 C2.4225 10.12375 1.845 10.2475 1.25 10.375 C-1.02335767 11.00648824 -2.9253529 11.88858191 -5 13 C-5 12.34 -5 11.68 -5 11 C-6.32 10.67 -7.64 10.34 -9 10 C-8.5875 9.62875 -8.175 9.2575 -7.75 8.875 C-5.80966847 6.90055474 -5.80966847 6.90055474 -3.9375 3.875 C-2 1 -2 1 0 0 Z " fill="#016FB8" transform="translate(323,169)"/>
<path d="M0 0 C0.66 1.32 1.32 2.64 2 4 C1.01 3.67 0.02 3.34 -1 3 C-0.67 2.01 -0.34 1.02 0 0 Z M3 1 C5 2 5 2 5 2 Z M-2 4 C-1.34 4.33 -0.68 4.66 0 5 C-0.33 6.32 -0.66 7.64 -1 9 C-0.34 9 0.32 9 1 9 C0.67 10.65 0.34 12.3 0 14 C-0.66 13.34 -1.32 12.68 -2 12 C-2 14.31 -2 16.62 -2 19 C-2.99 18.34 -3.98 17.68 -5 17 C-5.99 17 -6.98 17 -8 17 C-7.57476184 15.39253944 -7.13429874 13.78910164 -6.6875 12.1875 C-6.44386719 11.29417969 -6.20023437 10.40085938 -5.94921875 9.48046875 C-4.9799181 6.94752262 -4.04990396 5.7283504 -2 4 Z " fill="#0870B7" transform="translate(311,181)"/>
<path d="M0 0 C-0.33 1.98 -0.66 3.96 -1 6 C-0.34 6.33 0.32 6.66 1 7 C0.34 7 -0.32 7 -1 7 C-0.2236068 10.0745356 -0.2236068 10.0745356 2 12 C1.01 12 0.02 12 -1 12 C-1 12.66 -1 13.32 -1 14 C-3.475 13.01 -3.475 13.01 -6 12 C-6 11.34 -6 10.68 -6 10 C-6.99 9.67 -7.98 9.34 -9 9 C-3.2 0 -3.2 0 0 0 Z " fill="#066FB4" transform="translate(335,157)"/>
<path d="M0 0 C0.33 0 0.66 0 1 0 C3.35507636 10.76059278 1.75657979 20.7479294 -2 31 C-3.485 32.485 -3.485 32.485 -5 34 C-5 30.37 -5 26.74 -5 23 C-4.01 23 -3.02 23 -2 23 C-2 21.35 -2 19.7 -2 18 C-1.34 18 -0.68 18 0 18 C0 12.06 0 6.12 0 0 Z " fill="#559AC8" transform="translate(355,183)"/>
<path d="M0 0 C4.53665737 3.7301405 8.77941122 7.67053566 12.9375 11.8125 C13.43419189 12.30468018 13.93088379 12.79686035 14.44262695 13.30395508 C18 16.87624634 18 16.87624634 18 18 C16.35 18 14.7 18 13 18 C13 16.68 13 15.36 13 14 C11.35 14 9.7 14 8 14 C8.33 12.68 8.66 11.36 9 10 C7.68 10 6.36 10 5 10 C4.67 9.34 4.34 8.68 4 8 C2.68 8 1.36 8 0 8 C0 5.36 0 2.72 0 0 Z " fill="#3B8CC3" transform="translate(272,151)"/>
<path d="M0 0 C1.875 0.125 1.875 0.125 4 1 C5.125 4 5.125 4 6 7 C6.66 7.33 7.32 7.66 8 8 C8.625 10.5625 8.625 10.5625 9 13 C8.01 13.495 8.01 13.495 7 14 C7 13.34 7 12.68 7 12 C4.50935112 11.31292445 2.62113708 11 0 11 C-0.19491452 9.54263913 -0.38069358 8.08405407 -0.5625 6.625 C-0.66691406 5.81289062 -0.77132813 5.00078125 -0.87890625 4.1640625 C-1 2 -1 2 0 0 Z " fill="#036EB6" transform="translate(350,148)"/>
<path d="M0 0 C2.47186455 2.96346786 3.66248361 5.54041689 4.6875 9.25 C5.06455078 10.58804687 5.06455078 10.58804687 5.44921875 11.953125 C5.63097656 12.62859375 5.81273437 13.3040625 6 14 C4.35 14 2.7 14 1 14 C-2 7.125 -2 7.125 -2 6 C-4.97 5.505 -4.97 5.505 -8 5 C-8 4.67 -8 4.34 -8 4 C-5.36 4 -2.72 4 0 4 C0 2.68 0 1.36 0 0 Z " fill="#424343" transform="translate(350,282)"/>
<path d="M0 0 C4.53665737 3.7301405 8.77941122 7.67053566 12.9375 11.8125 C13.43419189 12.30468018 13.93088379 12.79686035 14.44262695 13.30395508 C18 16.87624634 18 16.87624634 18 18 C15.69 18 13.38 18 11 18 C11.33 16.68 11.66 15.36 12 14 C11.01 13.67 10.02 13.34 9 13 C6.56677656 10.78797869 4.83318214 8.74977321 3 6 C2.34 6 1.68 6 1 6 C0.67 4.02 0.34 2.04 0 0 Z " fill="#2A7EBB" transform="translate(267,167)"/>
<path d="M0 0 C0.99 0 1.98 0 3 0 C3 0.66 3 1.32 3 2 C2.34 2 1.68 2 1 2 C0.731875 2.969375 0.46375 3.93875 0.1875 4.9375 C-0.60134115 7.73480904 -1.51701385 10.45310197 -2.5 13.1875 C-4.36674109 18.66453732 -5.1784331 24.28769367 -6 30 C-7.73252349 26.78832601 -8.2984943 24.68142974 -8 21 C-7.67 20.67 -7.34 20.34 -7 20 C-6.76924918 18.65252916 -6.58846937 17.29622435 -6.4375 15.9375 C-6.293125 14.638125 -6.14875 13.33875 -6 12 C-5.34 12 -4.68 12 -4 12 C-4 8.7 -4 5.4 -4 2 C-3.01 2 -2.02 2 -1 2 C-0.67 1.34 -0.34 0.68 0 0 Z " fill="#4993C0" transform="translate(259,163)"/>
<path d="M0 0 C1.32 0.99 2.64 1.98 4 3 C2.44499019 6.81684226 -0.03595495 9.19195732 -3 12 C-5.4375 11.1875 -5.4375 11.1875 -8 10 C-8.33 9.01 -8.66 8.02 -9 7 C-6.525 7.99 -6.525 7.99 -4 9 C-3.67 7.68 -3.34 6.36 -3 5 C-3.66 4.67 -4.32 4.34 -5 4 C-4.01 3.01 -3.02 2.02 -2 1 C-1.34 1.33 -0.68 1.66 0 2 C0 1.34 0 0.68 0 0 Z " fill="#4291C3" transform="translate(314,165)"/>
<path d="M0 0 C0.33 0 0.66 0 1 0 C0.90234375 2.01822917 0.8046875 4.03645833 0.70703125 6.0546875 C0.80371094 6.69664062 0.90039062 7.33859375 1 8 C1.99 8.66 2.98 9.32 4 10 C3.01 10 2.02 10 1 10 C-0.2904174 12.58083479 -1.10648248 15.25987959 -2 18 C-4.80497953 15.72095413 -5.89925211 14.5485163 -6.5625 10.9375 C-6.2840625 9.4834375 -6.2840625 9.4834375 -6 8 C-3.5 6.3125 -3.5 6.3125 -1 5 C-1 4.01 -1 3.02 -1 2 C-0.67 1.34 -0.34 0.68 0 0 Z " fill="#026EB8" transform="translate(361,211)"/>
<path d="M0 0 C0.33 0 0.66 0 1 0 C1.33 1.98 1.66 3.96 2 6 C-1.66388762 9.10126817 -5.40005318 11.47726999 -9.625 13.75 C-11.31496094 14.67039063 -11.31496094 14.67039063 -13.0390625 15.609375 C-16 17 -16 17 -19 17 C-19 16.34 -19 15.68 -19 15 C-17.68 15 -16.36 15 -15 15 C-15 14.34 -15 13.68 -15 13 C-13.68 13 -12.36 13 -11 13 C-10.938125 12.38125 -10.87625 11.7625 -10.8125 11.125 C-10 9 -10 9 -7.75 7.8125 C-5.17493405 7.05168506 -2.64555693 6.45352405 0 6 C0 4.02 0 2.04 0 0 Z " fill="#5097C5" transform="translate(346,238)"/>
<path d="M0 0 C2.475 0.495 2.475 0.495 5 1 C1.81269566 4.59368564 -1.74662652 6.70805894 -6 8.8125 C-6.92425781 9.29879883 -6.92425781 9.29879883 -7.8671875 9.79492188 C-12.41256553 12.07248791 -12.41256553 12.07248791 -15.4375 11.69921875 C-15.953125 11.46847656 -16.46875 11.23773438 -17 11 C-15.35 10.34 -13.7 9.68 -12 9 C-12 8.01 -12 7.02 -12 6 C-10.35 6 -8.7 6 -7 6 C-6.67 5.34 -6.34 4.68 -6 4 C-2.9375 3.375 -2.9375 3.375 0 3 C0 2.01 0 1.02 0 0 Z " fill="#4090C3" transform="translate(335,230)"/>
<path d="M0 0 C2.31 0.66 4.62 1.32 7 2 C7.66 5.3 8.32 8.6 9 12 C8.01 12.495 8.01 12.495 7 13 C7 12.34 7 11.68 7 11 C5.68 11.99 4.36 12.98 3 14 C3 12.68 3 11.36 3 10 C2.34 10 1.68 10 1 10 C1 9.01 1 8.02 1 7 C1.66 6.67 2.32 6.34 3 6 C2.2575 5.071875 2.2575 5.071875 1.5 4.125 C0 2 0 2 0 0 Z M4 3 C4.33 4.98 4.66 6.96 5 9 C5.33 9 5.66 9 6 9 C6 7.35 6 5.7 6 4 C5.34 3.67 4.68 3.34 4 3 Z " fill="#1577B7" transform="translate(346,171)"/>
<path d="M0 0 C0.33 0 0.66 0 1 0 C1.06058594 1.31355469 1.12117187 2.62710938 1.18359375 3.98046875 C1.26803256 5.71615541 1.35267888 7.45183198 1.4375 9.1875 C1.47681641 10.05181641 1.51613281 10.91613281 1.55664062 11.80664062 C1.76436597 15.97712644 2.098459 19.91301415 3 24 C3.03824623 26.33301986 3.04574284 28.66711508 3 31 C-1.39080639 24.41379042 -1.17889117 16.07731631 -1.1875 8.375 C-1.18830566 7.66384033 -1.18911133 6.95268066 -1.18994141 6.2199707 C-1.13432 1.13432 -1.13432 1.13432 0 0 Z " fill="#428CBD" transform="translate(242,184)"/>
<path d="M0 0 C2.9375 0.75 2.9375 0.75 6 2 C6.875 4.125 6.875 4.125 7 6 C6.34 6 5.68 6 5 6 C4.67 7.32 4.34 8.64 4 10 C3.01 9.67 2.02 9.34 1 9 C1 9.66 1 10.32 1 11 C0.34 10.67 -0.32 10.34 -1 10 C-1.125 3.375 -1.125 3.375 0 0 Z " fill="#026EB3" transform="translate(335,157)"/>
<path d="M0 0 C0.99 0.33 1.98 0.66 3 1 C3.36923077 7.4 3.36923077 7.4 1.5 10.4375 C1.005 10.953125 0.51 11.46875 0 12 C-2.31 10.02 -4.62 8.04 -7 6 C-5.68 5.34 -4.36 4.68 -3 4 C-1.26574227 1.96682993 -1.26574227 1.96682993 0 0 Z " fill="#237FBD" transform="translate(274,158)"/>
<path d="M0 0 C0.1953125 6.0546875 0.1953125 6.0546875 0 8 C-0.66 8.66 -1.32 9.32 -2 10 C-2 9.34 -2 8.68 -2 8 C-2.969375 7.731875 -3.93875 7.46375 -4.9375 7.1875 C-5.948125 6.795625 -6.95875 6.40375 -8 6 C-9 3 -9 3 -8 0 C-5.04215769 -1.22393475 -3.00272755 -0.96516243 0 0 Z " fill="#026EB7" transform="translate(304,205)"/>
<path d="M0 0 C2.31 0 4.62 0 7 0 C7 2.64 7 5.28 7 8 C4.69 8 2.38 8 0 8 C0 5.36 0 2.72 0 0 Z " fill="#8DB7D4" transform="translate(267,298)"/>
<path d="M0 0 C0.33 0 0.66 0 1 0 C0.125 7.75 0.125 7.75 -1 10 C-2.65 10 -4.3 10 -6 10 C-6.33 7.03 -6.66 4.06 -7 1 C-5 1 -5 1 -3.375 2.5 C-2.92125 2.995 -2.4675 3.49 -2 4 C-1.34 2.68 -0.68 1.36 0 0 Z " fill="#09090A" transform="translate(374,286)"/>
<path d="M0 0 C0.33 0.99 0.66 1.98 1 3 C-2.5429235 6.69696366 -5.46180782 8.83201756 -10.6484375 9.3984375 C-14.11627364 9.37733505 -17.54246329 9.26222891 -21 9 C-21 8.67 -21 8.34 -21 8 C-20.23816406 7.84144531 -19.47632813 7.68289062 -18.69140625 7.51953125 C-11.73493981 5.94759564 -6.01358086 3.84200999 0 0 Z " fill="#4392C2" transform="translate(330,224)"/>
<path d="M0 0 C3.1875 0.875 3.1875 0.875 6 2 C6 2.66 6 3.32 6 4 C4.02 4.99 4.02 4.99 2 6 C2.66 7.65 3.32 9.3 4 11 C3.01 11.33 2.02 11.66 1 12 C1 11.34 1 10.68 1 10 C-0.32 9.34 -1.64 8.68 -3 8 C-3.1875 5.125 -3.1875 5.125 -3 2 C-2.01 1.34 -1.02 0.68 0 0 Z " fill="#036EB6" transform="translate(308,163)"/>
<path d="M0 0 C0.99 0 1.98 0 3 0 C3 5.94 3 11.88 3 18 C1.68 17.34 0.36 16.68 -1 16 C-0.67 10.72 -0.34 5.44 0 0 Z " fill="#020101" transform="translate(327,273)"/>
<path d="M0 0 C1.9375 2.0625 1.9375 2.0625 3 4 C1.948125 3.979375 0.89625 3.95875 -0.1875 3.9375 C-3.84514947 3.88031598 -3.84514947 3.88031598 -6.75 4.5625 C-9 5 -9 5 -12 4 C-11 1 -11 1 -9.375 -0.25 C-5.92000764 -1.34105022 -3.48165932 -0.88624056 0 0 Z " fill="#197ABD" transform="translate(312,106)"/>
<path d="M0 0 C1.98 0 3.96 0 6 0 C6.82638376 2.89234315 7 4.88742431 7 8 C4.69 8 2.38 8 0 8 C0 5.36 0 2.72 0 0 Z " fill="#7CA9C5" transform="translate(385,298)"/>
<path d="M0 0 C1.6875 1.5 1.6875 1.5 3 4 C2.35208262 6.82923922 1.23902204 9.38216883 0 12 C-0.99 12 -1.98 12 -3 12 C-4.33691415 9.24752969 -5.01837615 7.39508723 -4.875 4.3125 C-4 2 -4 2 -1.9375 0.6875 C-1.298125 0.460625 -0.65875 0.23375 0 0 Z " fill="#0A72B5" transform="translate(335,221)"/>
<path d="M0 0 C1.65 0 3.3 0 5 0 C4.67 1.32 4.34 2.64 4 4 C4.99 3.67 5.98 3.34 7 3 C7.33 3.99 7.66 4.98 8 6 C7.34 6 6.68 6 6 6 C5.67 6.99 5.34 7.98 5 9 C3.35 8.67 1.7 8.34 0 8 C-0.79953138 4.71303767 -1.09658936 3.28976808 0 0 Z " fill="#016EBB" transform="translate(328,130)"/>
<path d="M0 0 C2.5 0.125 2.5 0.125 3.5 1.125 C3.54092937 3.45797433 3.54241723 5.79205225 3.5 8.125 C1.50045254 8.16754356 -0.50041636 8.16580783 -2.5 8.125 C-3.5 7.125 -3.5 7.125 -3.625 4.125 C-3.46033403 0.1730167 -3.46033403 0.1730167 0 0 Z M-0.5 3.125 C0.5 6.125 0.5 6.125 0.5 6.125 Z " fill="#5589AA" transform="translate(317.5,297.875)"/>
<path d="M0 0 C-0.30618405 3.67420866 -0.75771784 4.78135513 -3.5625 7.3125 C-4.366875 7.869375 -5.17125 8.42625 -6 9 C-7.32 8.34 -8.64 7.68 -10 7 C-9.505 6.566875 -9.01 6.13375 -8.5 5.6875 C-6.66781808 4.00259517 -6.66781808 4.00259517 -7 1 C-4.53721199 -0.231394 -2.7204945 -0.07159196 0 0 Z " fill="#026DB7" transform="translate(354,228)"/>
<path d="M0 0 C0.99 0 1.98 0 3 0 C4.0625 2.375 4.0625 2.375 5 5 C3.73134318 7.53731364 2.50290879 7.78646846 0 9 C-0.66 9.66 -1.32 10.32 -2 11 C-2 10.34 -2 9.68 -2 9 C-2.66 9 -3.32 9 -4 9 C-3.3543999 5.51375944 -2.07639763 2.87501211 0 0 Z " fill="#036DB9" transform="translate(324,189)"/>
<path d="M0 0 C0.66 0.33 1.32 0.66 2 1 C2.625 4.0625 2.625 4.0625 3 7 C2.34 7 1.68 7 1 7 C0.67 7.99 0.34 8.98 0 10 C-2.0625 10.6875 -2.0625 10.6875 -4 11 C-4 10.01 -4 9.02 -4 8 C-4.66 8 -5.32 8 -6 8 C-6 7.34 -6 6.68 -6 6 C-5.01 6 -4.02 6 -3 6 C-2.87625 5.195625 -2.7525 4.39125 -2.625 3.5625 C-2.41875 2.716875 -2.2125 1.87125 -2 1 C-1.34 0.67 -0.68 0.34 0 0 Z " fill="#036EB6" transform="translate(361,161)"/>
<path d="M0 0 C2 0 4 0 6 0 C6 2.64 6 5.28 6 8 C3.69 8 1.38 8 -1 8 C-1.04241723 5.66705225 -1.04092937 3.33297433 -1 1 C-0.67 0.67 -0.34 0.34 0 0 Z " fill="#7DA8C0" transform="translate(361,298)"/>
<path d="M0 0 C2.625 0.375 2.625 0.375 5 1 C5 3.31 5 5.62 5 8 C3.02 8 1.04 8 -1 8 C-1.625 5.125 -1.625 5.125 -2 2 C-1.34 1.34 -0.68 0.68 0 0 Z " fill="#76A4C2" transform="translate(235,298)"/>
<path d="M0 0 C1.98 0 3.96 0 6 0 C6 2.64 6 5.28 6 8 C3 9 3 9 0 8 C0 5.36 0 2.72 0 0 Z " fill="#84B1CD" transform="translate(373,298)"/>
<path d="M0 0 C1.67542976 0.28604898 3.34385343 0.61781233 5 1 C5.93423645 4.01031744 6.04449911 4.86650268 5 8 C3.02 8 1.04 8 -1 8 C-1.04241723 5.66705225 -1.04092937 3.33297433 -1 1 C-0.67 0.67 -0.34 0.34 0 0 Z " fill="#81B1CA" transform="translate(340,298)"/>
<path d="M0 0 C1.65 0 3.3 0 5 0 C6.35439668 2.70879335 6.06501451 5.00933268 6 8 C4.02 8 2.04 8 0 8 C0 5.36 0 2.72 0 0 Z " fill="#4F8BB5" transform="translate(302,298)"/>
<path d="M0 0 C1.65 0 3.3 0 5 0 C5.96398647 2.8919594 6 4.9994375 6 8 C2.25 9.125 2.25 9.125 0 8 C0 5.36 0 2.72 0 0 Z " fill="#83AEC9" transform="translate(281,298)"/>
<path d="M0 0 C1.98 0 3.96 0 6 0 C6 2.64 6 5.28 6 8 C4.02 8 2.04 8 0 8 C0 5.36 0 2.72 0 0 Z " fill="#77A5C2" transform="translate(327,298)"/>
<path d="M0 0 C1.98 0 3.96 0 6 0 C5.814375 0.763125 5.62875 1.52625 5.4375 2.3125 C4.77180827 5.08967375 4.77180827 5.08967375 6 8 C4.02 8 2.04 8 0 8 C0 5.36 0 2.72 0 0 Z " fill="#78A7C4" transform="translate(398,298)"/>
<path d="M0 0 C0.66 0 1.32 0 2 0 C2 1.32 2 2.64 2 4 C2.66 4 3.32 4 4 4 C4 11.26 4 18.52 4 26 C3.34 26 2.68 26 2 26 C2.03480469 24.56720703 2.03480469 24.56720703 2.0703125 23.10546875 C2.1814732 15.14159831 1.81734706 7.80485659 0 0 Z " fill="#478FBB" transform="translate(357,177)"/>
<path d="M0 0 C0.33 1.32 0.66 2.64 1 4 C0.34 4 -0.32 4 -1 4 C-0.67 5.32 -0.34 6.64 0 8 C0.99 8 1.98 8 3 8 C2.67 8.99 2.34 9.98 2 11 C-1.91841827 9.69386058 -4.32640809 8.16870152 -7 5 C-7 4.34 -7 3.68 -7 3 C-4.69 2.01 -2.38 1.02 0 0 Z " fill="#3788BD" transform="translate(305,190)"/>
<path d="M0 0 C0.33 0.66 0.66 1.32 1 2 C1.99 2.33 2.98 2.66 4 3 C3.01 3.33 2.02 3.66 1 4 C-0.20882096 6.00016466 -0.20882096 6.00016466 -1 8 C-1.66 8 -2.32 8 -3 8 C-3.33 8.99 -3.66 9.98 -4 11 C-6 7.25 -6 7.25 -6 5 C-5.01 4.67 -4.02 4.34 -3 4 C-2.67 3.01 -2.34 2.02 -2 1 C-1.34 0.67 -0.68 0.34 0 0 Z " fill="#3688BF" transform="translate(341,181)"/>
<path d="M0 0 C1.65 0.33 3.3 0.66 5 1 C5.33 1.99 5.66 2.98 6 4 C5.2575 3.95875 4.515 3.9175 3.75 3.875 C0.86467775 4.00615101 -0.62533337 4.38861907 -3 6 C-3.33 6.99 -3.66 7.98 -4 9 C-7.0625 10.1875 -7.0625 10.1875 -10 11 C-9.34 10.01 -8.68 9.02 -8 8 C-7.34 8 -6.68 8 -6 8 C-5.34 6.68 -4.68 5.36 -4 4 C-3.34 4 -2.68 4 -2 4 C-1.34 2.68 -0.68 1.36 0 0 Z " fill="#62A0C4" transform="translate(304,102)"/>
<path d="M0 0 C4.95 0.99 4.95 0.99 10 2 C10 2.66 10 3.32 10 4 C10.94875 4.28875 11.8975 4.5775 12.875 4.875 C16 6 16 6 18 8 C14.52545194 9.17482324 14.1324858 9.06339535 10.546875 7.34765625 C9.27382478 6.59841315 8.00834874 5.83617987 6.75 5.0625 C5.77546875 4.48338867 5.77546875 4.48338867 4.78125 3.89257812 C3.18087871 2.93941582 1.5895258 1.97114076 0 1 C0 0.67 0 0.34 0 0 Z " fill="#579AC7" transform="translate(268,246)"/>
<path d="M0 0 C0.66 0 1.32 0 2 0 C5 5.75 5 5.75 5 8 C2.36 8 -0.28 8 -3 8 C-1.125 1.125 -1.125 1.125 0 0 Z " fill="#689AB9" transform="translate(223,298)"/>
<path d="M0 0 C0.99 0 1.98 0 3 0 C6 5.75 6 5.75 6 8 C4.68 8 3.36 8 2 8 C1.67 6.68 1.34 5.36 1 4 C-0.98 4.99 -2.96 5.98 -5 7 C-4.34 5.68 -3.68 4.36 -3 3 C-2.34 3 -1.68 3 -1 3 C-0.67 2.01 -0.34 1.02 0 0 Z " fill="#589DC7" transform="translate(346,165)"/>
<path d="M0 0 C3.17730766 1.73307691 4.8693062 4.26166365 7.0625 7.125 C4.0925 6.63 4.0925 6.63 1.0625 6.125 C1.0625 5.465 1.0625 4.805 1.0625 4.125 C-1.2475 4.125 -3.5575 4.125 -5.9375 4.125 C-2.57865822 0.16636505 -2.57865822 0.16636505 0 0 Z " fill="#488DBF" transform="translate(264.9375,143.875)"/>
<path d="M0 0 C0.94875 0.45375 1.8975 0.9075 2.875 1.375 C7.42383401 3.34585006 12.13502224 4.16796155 17 5 C17 5.33 17 5.66 17 6 C12.05 6.33 7.1 6.66 2 7 C2 5.68 2 4.36 2 3 C1.34 2.67 0.68 2.34 0 2 C0 1.34 0 0.68 0 0 Z " fill="#4E99C7" transform="translate(286,227)"/>
<path d="M0 0 C0.66 0 1.32 0 2 0 C3.03046722 1.78614318 4.04913236 3.57910018 5.0625 5.375 C5.63097656 6.37273437 6.19945312 7.37046875 6.78515625 8.3984375 C7.18605469 9.25695312 7.58695312 10.11546875 8 11 C7.67 11.66 7.34 12.32 7 13 C5.68 12.67 4.36 12.34 3 12 C3 11.34 3 10.68 3 10 C2.34 10 1.68 10 1 10 C1 9.34 1 8.68 1 8 C1.66 8 2.32 8 3 8 C3 7.34 3 6.68 3 6 C2.01 5.67 1.02 5.34 0 5 C0 3.33333333 0 1.66666667 0 0 Z " fill="#3987BC" transform="translate(254,211)"/>
<path d="M0 0 C2.97 0.495 2.97 0.495 6 1 C5.75 3.875 5.75 3.875 5 7 C2.9375 8.375 2.9375 8.375 1 9 C0.67 8.01 0.34 7.02 0 6 C-0.66 5.34 -1.32 4.68 -2 4 C-1.34 3.34 -0.68 2.68 0 2 C0 1.34 0 0.68 0 0 Z " fill="#016EBB" transform="translate(292,179)"/>
<path d="M0 0 C0.33 0.99 0.66 1.98 1 3 C1.66 3 2.32 3 3 3 C3.66 5.31 4.32 7.62 5 10 C4.01 9.34 3.02 8.68 2 8 C2 7.34 2 6.68 2 6 C1.01 6 0.02 6 -1 6 C-1.33 6.99 -1.66 7.98 -2 9 C-2.33 9 -2.66 9 -3 9 C-3.36923077 3.46153846 -3.36923077 3.46153846 -1.5 1.125 C-1.005 0.75375 -0.51 0.3825 0 0 Z " fill="#3A8EC0" transform="translate(347,155)"/>
<path d="M0 0 C0.99 0.33 1.98 0.66 3 1 C2.01 1.33 1.02 1.66 0 2 C0 3.32 0 4.64 0 6 C0.66 5.67 1.32 5.34 2 5 C2.33 6.32 2.66 7.64 3 9 C1.8553125 9.2165625 1.8553125 9.2165625 0.6875 9.4375 C-2.08172908 9.9632594 -2.08172908 9.9632594 -5 11 C-4.32902328 6.80639551 -2.1441606 3.59665648 0 0 Z " fill="#3587B9" transform="translate(264,165)"/>
<path d="M0 0 C0.33 0 0.66 0 1 0 C1 4.29 1 8.58 1 13 C0.34 13 -0.32 13 -1 13 C-1 17.29 -1 21.58 -1 26 C-1.33 26 -1.66 26 -2 26 C-2.05449228 23.16640156 -2.09390733 20.33387515 -2.125 17.5 C-2.14175781 16.70851562 -2.15851563 15.91703125 -2.17578125 15.1015625 C-2.21989226 9.72001921 -1.50594058 5.17000073 0 0 Z " fill="#4C97C5" transform="translate(258,176)"/>
<path d="M0 0 C1.4943899 2.98877979 0.91874257 4.85002546 0 8 C-2.5625 9.375 -2.5625 9.375 -5 10 C-5 10.99 -5 11.98 -5 13 C-6.98 13.33 -8.96 13.66 -11 14 C-10.34 13.01 -9.68 12.02 -9 11 C-8.34 11 -7.68 11 -7 11 C-6.773125 10.484375 -6.54625 9.96875 -6.3125 9.4375 C-4.5024447 6.07596873 -2.26003596 3.07088856 0 0 Z " fill="#569EC8" transform="translate(352,220)"/>
<path d="M0 0 C2.475 0.99 2.475 0.99 5 2 C1.25 8.875 1.25 8.875 -1 10 C-1 8.02 -1 6.04 -1 4 C-1.66 3.67 -2.32 3.34 -3 3 C-2.01 2.01 -1.02 1.02 0 0 Z " fill="#398ABF" transform="translate(344,218)"/>
<path d="M0 0 C3.375 -0.125 3.375 -0.125 7 0 C8.33333333 1.33333333 9.66666667 2.66666667 11 4 C10.34 4.66 9.68 5.32 9 6 C7.88625 5.505 7.88625 5.505 6.75 5 C3.86116688 3.77217129 3.86116688 3.77217129 0 4 C0 2.68 0 1.36 0 0 Z " fill="#016FBC" transform="translate(269,178)"/>
<path d="M0 0 C3.63559661 3.43361902 6.36113346 6.7973607 9 11 C8.67 11.66 8.34 12.32 8 13 C6.68 12.34 5.36 11.68 4 11 C4 9.68 4 8.36 4 7 C3.01 6.67 2.02 6.34 1 6 C0.67 4.02 0.34 2.04 0 0 Z " fill="#4B93BE" transform="translate(354,149)"/>
<path d="M0 0 C0.99 0.99 1.98 1.98 3 3 C1.55754029 6.36573933 -0.083468 8.75010389 -3 11 C-5.75 10.75 -5.75 10.75 -8 10 C-8 9.67 -8 9.34 -8 9 C-6.35 9 -4.7 9 -3 9 C-3 7.68 -3 6.36 -3 5 C-2.34 5 -1.68 5 -1 5 C-0.67 3.35 -0.34 1.7 0 0 Z " fill="#5E9EC2" transform="translate(343,138)"/>
<path d="M0 0 C1.13199353 0.9080162 2.25532363 1.82683826 3.375 2.75 C4.00148438 3.26046875 4.62796875 3.7709375 5.2734375 4.296875 C7.08312318 6.08199481 8.00117455 7.67949644 9 10 C8.34 10 7.68 10 7 10 C7 9.34 7 8.68 7 8 C6.236875 7.855625 5.47375 7.71125 4.6875 7.5625 C2 7 2 7 -1 6 C-0.67 4.02 -0.34 2.04 0 0 Z " fill="#4A96C1" transform="translate(333,128)"/>
<path d="M0 0 C-0.33 1.32 -0.66 2.64 -1 4 C-4.63 3.67 -8.26 3.34 -12 3 C-4.82142857 -1.78571429 -4.82142857 -1.78571429 0 0 Z " fill="#2E83BA" transform="translate(333,242)"/>
<path d="M0 0 C1.32 0.33 2.64 0.66 4 1 C3.6875 2.9375 3.6875 2.9375 3 5 C2.01 5.33 1.02 5.66 0 6 C-1.20882096 8.00016466 -1.20882096 8.00016466 -2 10 C-2.33 10 -2.66 10 -3 10 C-3 8.02 -3 6.04 -3 4 C-2.34 4 -1.68 4 -1 4 C-0.67 2.68 -0.34 1.36 0 0 Z " fill="#4692C2" transform="translate(326,175)"/>
<path d="M0 0 C0.33 0.66 0.66 1.32 1 2 C-2.625 7.875 -2.625 7.875 -6 9 C-6 5.37546731 -5.07530387 3.92079805 -3 1 C-2.01 0.67 -1.02 0.34 0 0 Z M-7 9 C-7 12 -7 12 -7 12 Z " fill="#2680B9" transform="translate(342,171)"/>
<path d="M0 0 C0.66 0 1.32 0 2 0 C1.67 1.65 1.34 3.3 1 5 C0.01 5.33 -0.98 5.66 -2 6 C-3.20882096 8.00016466 -3.20882096 8.00016466 -4 10 C-4.66 10 -5.32 10 -6 10 C-6 8.68 -6 7.36 -6 6 C-5.34 5.67 -4.68 5.34 -4 5 C-4 4.34 -4 3.68 -4 3 C-3.01 3 -2.02 3 -1 3 C-0.67 2.01 -0.34 1.02 0 0 Z " fill="#4A94C7" transform="translate(340,163)"/>
<path d="M0 0 C0.66 0 1.32 0 2 0 C2 0.66 2 1.32 2 2 C5.465 1.505 5.465 1.505 9 1 C9.33 2.65 9.66 4.3 10 6 C7.25 6.3125 7.25 6.3125 4 6 C0 1.89473684 0 1.89473684 0 0 Z " fill="#3385BA" transform="translate(330,141)"/>
<path d="M0 0 C0.33 0.99 0.66 1.98 1 3 C-0.375 4.5 -0.375 4.5 -2 6 C-2.66 6 -3.32 6 -4 6 C-4.33 7.32 -4.66 8.64 -5 10 C-6.65 10.33 -8.3 10.66 -10 11 C-9.04882866 9.8274869 -8.08882991 8.66212985 -7.125 7.5 C-6.32449219 6.52546875 -6.32449219 6.52546875 -5.5078125 5.53125 C-5.01023437 5.0259375 -4.51265625 4.520625 -4 4 C-3.34 4 -2.68 4 -2 4 C-1.34 2.68 -0.68 1.36 0 0 Z " fill="#5FA3C5" transform="translate(292,114)"/>
<path d="M0 0 C2.31 0 4.62 0 7 0 C7 0.99 7 1.98 7 3 C6.34 3 5.68 3 5 3 C5 4.65 5 6.3 5 8 C4.34 8 3.68 8 3 8 C3 6.35 3 4.7 3 3 C2.01 3 1.02 3 0 3 C0 2.01 0 1.02 0 0 Z " fill="#7B9DB3" transform="translate(208,298)"/>
<path d="M0 0 C-1.33345504 3.59007126 -2.8943231 6.79570907 -5 10 C-5.33 10 -5.66 10 -6 10 C-6.36567164 3.539801 -6.36567164 3.539801 -4.6875 1.0625 C-3 0 -3 0 0 0 Z " fill="#3A8BBB" transform="translate(365,221)"/>
<path d="M0 0 C1.98 0.66 3.96 1.32 6 2 C6 2.66 6 3.32 6 4 C6.61875 4.103125 7.2375 4.20625 7.875 4.3125 C10 5 10 5 12 8 C8.76761586 7.92303847 6.66772205 7.62561345 4.265625 5.375 C2.78148327 3.62229929 1.36155666 1.84920638 0 0 Z " fill="#247AB3" transform="translate(296,211)"/>
<path d="M0 0 C7.48291572 6.15034169 7.48291572 6.15034169 10 10 C7.625 9.6875 7.625 9.6875 5 9 C4.34 8.01 3.68 7.02 3 6 C2.01 5.34 1.02 4.68 0 4 C0 2.68 0 1.36 0 0 Z " fill="#61A3C7" transform="translate(315,110)"/>
<path d="M0 0 C1.14926266 0.95421808 2.29430541 1.91352045 3.4375 2.875 C4.07558594 3.40867188 4.71367187 3.94234375 5.37109375 4.4921875 C7 6 7 6 8 8 C6.35 7.67 4.7 7.34 3 7 C2.67 7.99 2.34 8.98 2 10 C1.7834375 8.63875 1.7834375 8.63875 1.5625 7.25 C1.13535008 4.78202269 0.6258727 2.41933984 0 0 Z " fill="#2C82BE" transform="translate(297,197)"/>
<path d="M0 0 C1.12894876 0.93274109 2.25300876 1.87140122 3.375 2.8125 C4.00148438 3.33457031 4.62796875 3.85664063 5.2734375 4.39453125 C7 6 7 6 9 9 C7.35 9 5.7 9 4 9 C3.67 7.35 3.34 5.7 3 4 C1.68 4 0.36 4 -1 4 C-0.67 2.68 -0.34 1.36 0 0 Z " fill="#3084BF" transform="translate(285,185)"/>
<path d="M0 0 C2 3 2 3 3 6 C2.67 6.66 2.34 7.32 2 8 C-0.0625 8.625 -0.0625 8.625 -2 9 C-2 7.68 -2 6.36 -2 5 C-2.99 5 -3.98 5 -5 5 C-3.35 3.35 -1.7 1.7 0 0 Z " fill="#0B6CAF" transform="translate(323,169)"/>
<path d="M0 0 C0.33 0 0.66 0 1 0 C0.85923685 1.9587043 0.7122324 3.91696093 0.5625 5.875 C0.48128906 6.96554688 0.40007812 8.05609375 0.31640625 9.1796875 C0 12 0 12 -1 14 C-3.0625 14.625 -3.0625 14.625 -5 15 C-4.731875 14.38125 -4.46375 13.7625 -4.1875 13.125 C-2.5516213 8.82005607 -1.28728674 4.41968448 0 0 Z " fill="#4C95C2" transform="translate(358,204)"/>
<path d="M0 0 C-0.625 1.9375 -0.625 1.9375 -2 4 C-5.125 4.75 -5.125 4.75 -8 5 C-8 4.01 -8 3.02 -8 2 C-3.71900826 -1.23966942 -3.71900826 -1.23966942 0 0 Z " fill="#036EB3" transform="translate(316,203)"/>
<path d="M0 0 C0.33 0 0.66 0 1 0 C1.66 4.62 2.32 9.24 3 14 C2.01 14.495 2.01 14.495 1 15 C-1.25495121 10.49009758 -1.2430836 6.94269981 -1 2 C-0.67 1.34 -0.34 0.68 0 0 Z " fill="#4191C0" transform="translate(252,194)"/>
<path d="M0 0 C1.67542976 0.28604898 3.34385343 0.61781233 5 1 C4.67 2.65 4.34 4.3 4 6 C3.01 6.33 2.02 6.66 1 7 C0.34 5.02 -0.32 3.04 -1 1 C-0.67 0.67 -0.34 0.34 0 0 Z " fill="#2E83BB" transform="translate(329,170)"/>
<path d="M0 0 C0.33 0 0.66 0 1 0 C2.34516765 6.35897436 2.34516765 6.35897436 0.6875 9.4375 C-1 11 -1 11 -3 11 C-3.33 11.66 -3.66 12.32 -4 13 C-3.27991594 8.39146203 -1.68704061 4.32762591 0 0 Z " fill="#5196C8" transform="translate(247,164)"/>
<path d="M0 0 C5.52 -0.368 5.52 -0.368 7.875 1.4375 C9 3 9 3 9 4 C5.4780279 4.08004482 2.38018531 4.04005702 -1 3 C-0.67 2.01 -0.34 1.02 0 0 Z " fill="#016FBE" transform="translate(293,154)"/>
<path d="M0 0 C0.99 0.33 1.98 0.66 3 1 C3 1.66 3 2.32 3 3 C3.99 3 4.98 3 6 3 C6.33 4.65 6.66 6.3 7 8 C7.99 8.33 8.98 8.66 10 9 C9.34 9.66 8.68 10.32 8 11 C6.66072279 9.54712339 5.32873153 8.08752741 4 6.625 C3.2575 5.81289062 2.515 5.00078125 1.75 4.1640625 C0 2 0 2 0 0 Z " fill="#5497C0" transform="translate(251,228)"/>
<path d="M0 0 C1.14926266 0.95421808 2.29430541 1.91352045 3.4375 2.875 C4.07558594 3.40867187 4.71367187 3.94234375 5.37109375 4.4921875 C7 6 7 6 8 8 C5.125 7.6875 5.125 7.6875 2 7 C0 4 0 4 0 0 Z " fill="#559CC6" transform="translate(325,120)"/>
<path d="M0 0 C2.50298434 2.93828597 3.46930939 5.17902761 4 9 C3.01 9.66 2.02 10.32 1 11 C0.34 10.67 -0.32 10.34 -1 10 C-0.835 9.46375 -0.67 8.9275 -0.5 8.375 C0.09660212 5.54113991 0.0656368 2.8880194 0 0 Z " fill="#4790C0" transform="translate(268,205)"/>
<path d="M0 0 C0.66 0.33 1.32 0.66 2 1 C1.8125 2.8125 1.8125 2.8125 1 5 C-1.4375 6.8125 -1.4375 6.8125 -4 8 C-4.66 7.67 -5.32 7.34 -6 7 C-5.34 6.01 -4.68 5.02 -4 4 C-3.34 4 -2.68 4 -2 4 C-1.34 2.68 -0.68 1.36 0 0 Z " fill="#4E9BC3" transform="translate(315,196)"/>
<path d="M0 0 C0.66 0.99 1.32 1.98 2 3 C-4.75 6 -4.75 6 -7 6 C-6.875 4.125 -6.875 4.125 -6 2 C-2.9375 0.75 -2.9375 0.75 0 0 Z " fill="#2C82B8" transform="translate(309,182)"/>
<path d="M0 0 C0 3.59857954 -0.95830515 5.09451118 -3 8 C-3.66 8 -4.32 8 -5 8 C-5 8.66 -5 9.32 -5 10 C-6.32 10.33 -7.64 10.66 -9 11 C-9 10.34 -9 9.68 -9 9 C-7.52460414 7.75411016 -6.04550456 6.51187361 -4.53515625 5.30859375 C-2.6952004 3.74018355 -1.33816421 2.00724632 0 0 Z " fill="#74ABCF" transform="translate(319,171)"/>
<path d="M0 0 C0.66 0 1.32 0 2 0 C2 1.98 2 3.96 2 6 C2.99 6 3.98 6 5 6 C4.67 6.99 4.34 7.98 4 9 C2.68 8.67 1.36 8.34 0 8 C0 5.36 0 2.72 0 0 Z " fill="#8DAEC4" transform="translate(247,298)"/>
<path d="M0 0 C0.99 0 1.98 0 3 0 C3 0.66 3 1.32 3 2 C2.34 2 1.68 2 1 2 C0.67 3.65 0.34 5.3 0 7 C-0.99 7.33 -1.98 7.66 -3 8 C-3.33 6.02 -3.66 4.04 -4 2 C-3.01 2 -2.02 2 -1 2 C-0.67 1.34 -0.34 0.68 0 0 Z " fill="#3587BA" transform="translate(259,163)"/>
<path d="M0 0 C2.125 0.9375 2.125 0.9375 4 2 C2.68 3.32 1.36 4.64 0 6 C-0.99 5.67 -1.98 5.34 -3 5 C-2.625 3.0625 -2.625 3.0625 -2 1 C-1.34 0.67 -0.68 0.34 0 0 Z " fill="#4292C4" transform="translate(325,157)"/>
<path d="M0 0 C2.475 0.99 2.475 0.99 5 2 C5 2.99 5 3.98 5 5 C3.02 5 1.04 5 -1 5 C-0.67 3.35 -0.34 1.7 0 0 Z " fill="#3181B7" transform="translate(347,144)"/>
<path d="M0 0 C0.66 0 1.32 0 2 0 C2 2.64 2 5.28 2 8 C1.01 8 0.02 8 -1 8 C-1.04241723 5.66705225 -1.04092937 3.33297433 -1 1 C-0.67 0.67 -0.34 0.34 0 0 Z " fill="#7D96B7" transform="translate(259,298)"/>
<path d="M0 0 C-0.33 1.98 -0.66 3.96 -1 6 C-0.34 6.33 0.32 6.66 1 7 C-1.31 6.67 -3.62 6.34 -6 6 C-4.90218919 2.70656758 -3.7827394 0 0 0 Z " fill="#4793C5" transform="translate(335,157)"/>
<path d="M0 0 C0.99 0 1.98 0 3 0 C3.33 1.65 3.66 3.3 4 5 C4.99 5.33 5.98 5.66 7 6 C6.34 6.66 5.68 7.32 5 8 C2.5 5.6875 2.5 5.6875 0 3 C0 2.01 0 1.02 0 0 Z " fill="#3A89BE" transform="translate(324,133)"/>
<path d="M0 0 C1.21236328 0.01353516 1.21236328 0.01353516 2.44921875 0.02734375 C3.37154297 0.04474609 3.37154297 0.04474609 4.3125 0.0625 C1.41157498 1.99645001 0.41575263 2.36381941 -2.875 2.6875 C-4.133125 2.81125 -5.39125 2.935 -6.6875 3.0625 C-7.0175 2.4025 -7.3475 1.7425 -7.6875 1.0625 C-4.80538698 0.10179566 -2.98899956 -0.04331883 0 0 Z " fill="#3784BA" transform="translate(320.6875,254.9375)"/>
<path d="M0 0 C0.99 0.4021875 0.99 0.4021875 2 0.8125 C5.64939067 2.25705047 9.32245433 3.62871178 13 5 C9.5945335 6.1351555 8.68276913 5.84899821 5.375 4.75 C4.57835937 4.49734375 3.78171875 4.2446875 2.9609375 3.984375 C1 3 1 3 0 0 Z " fill="#70AACD" transform="translate(278,239)"/>
<path d="M0 0 C0.99 0 1.98 0 3 0 C3 0.66 3 1.32 3 2 C3.99 2.33 4.98 2.66 6 3 C6.33 3.99 6.66 4.98 7 6 C4.03 5.505 4.03 5.505 1 5 C0.67 3.35 0.34 1.7 0 0 Z " fill="#0170B8" transform="translate(288,199)"/>
<path d="M0 0 C1.9375 0.6875 1.9375 0.6875 4 2 C4.75 4.625 4.75 4.625 5 7 C4.01 6.34 3.02 5.68 2 5 C1.01 5.495 1.01 5.495 0 6 C0 4.02 0 2.04 0 0 Z " fill="#0D6EAD" transform="translate(345,182)"/>
<path d="M0 0 C0.66 0.33 1.32 0.66 2 1 C1.01 2.98 0.02 4.96 -1 7 C-2.65 7 -4.3 7 -6 7 C-5.34 6.01 -4.68 5.02 -4 4 C-3.34 4 -2.68 4 -2 4 C-1.34 2.68 -0.68 1.36 0 0 Z " fill="#5FA2CD" transform="translate(335,176)"/>
<path d="M0 0 C1.17539996 0.92652701 2.34010577 1.86663387 3.5 2.8125 C4.1496875 3.33457031 4.799375 3.85664063 5.46875 4.39453125 C7 6 7 6 7 9 C6.38125 8.505 5.7625 8.01 5.125 7.5 C3.16119096 5.80777227 3.16119096 5.80777227 1 6 C0.67 4.02 0.34 2.04 0 0 Z " fill="#3B89BE" transform="translate(267,167)"/>
<path d="M0 0 C1.66611905 -0.042721 3.33382885 -0.04063832 5 0 C6 1 6 1 6.0625 4.5625 C6.041875 5.696875 6.02125 6.83125 6 8 C5.01 7.34 4.02 6.68 3 6 C3.33 4.35 3.66 2.7 4 1 C2.35 1.33 0.7 1.66 -1 2 C-0.67 1.34 -0.34 0.68 0 0 Z " fill="#9EC1D7" transform="translate(315,298)"/>
<path d="M0 0 C2.31 1.65 4.62 3.3 7 5 C6.34 5.66 5.68 6.32 5 7 C3.68 7 2.36 7 1 7 C0.67 4.69 0.34 2.38 0 0 Z " fill="#4593C4" transform="translate(278,221)"/>
<path d="M0 0 C0.66 1.32 1.32 2.64 2 4 C0.68 3.67 -0.64 3.34 -2 3 C-2 3.66 -2 4.32 -2 5 C-1.34 5 -0.68 5 0 5 C-0.33 5.66 -0.66 6.32 -1 7 C-2.32 5.68 -3.64 4.36 -5 3 C-2.25 0 -2.25 0 0 0 Z " fill="#3489C0" transform="translate(298,186)"/>
<path d="M0 0 C0.99 0.33 1.98 0.66 3 1 C3 1.66 3 2.32 3 3 C3.99 3 4.98 3 6 3 C6.33 4.65 6.66 6.3 7 8 C5 8 5 8 2.375 5.6875 C0 3 0 3 0 0 Z " fill="#488ABA" transform="translate(275,141)"/>
<path d="M0 0 C1.5 1.1875 1.5 1.1875 3 3 C3.1875 5.6875 3.1875 5.6875 3 8 C1.35 6.68 -0.3 5.36 -2 4 C-1.34 2.68 -0.68 1.36 0 0 Z " fill="#488FBF" transform="translate(300,134)"/>
<path d="M0 0 C1.485 0.99 1.485 0.99 3 2 C3.99 2 4.98 2 6 2 C6.33 1.34 6.66 0.68 7 0 C6.67 1.65 6.34 3.3 6 5 C4.35 5 2.7 5 1 5 C0.67 3.35 0.34 1.7 0 0 Z " fill="#3D4446" transform="translate(367,291)"/>
<path d="M0 0 C2.88437779 1.29299694 4.87219421 2.65941363 7 5 C5.35 4.67 3.7 4.34 2 4 C1.67 4.66 1.34 5.32 1 6 C0 5 0 5 -0.0625 2.4375 C-0.041875 1.633125 -0.02125 0.82875 0 0 Z " fill="#388BBB" transform="translate(268,232)"/>
<path d="M0 0 C1.32 0 2.64 0 4 0 C4 1.32 4 2.64 4 4 C4.99 4.33 5.98 4.66 7 5 C6.34 5.66 5.68 6.32 5 7 C3.29115995 5.37660195 1.62553283 3.70680947 0 2 C0 1.34 0 0.68 0 0 Z " fill="#2A7EB6" transform="translate(275,189)"/>
<path d="M0 0 C2.31 1.98 4.62 3.96 7 6 C5.02 6.99 5.02 6.99 3 8 C1.5268006 5.25002779 0.77595125 3.10380501 0 0 Z " fill="#519DC9" transform="translate(287,138)"/>
<path d="M0 0 C0.99 0.33 1.98 0.66 3 1 C3 1.66 3 2.32 3 3 C3.66 3 4.32 3 5 3 C4.67 3.99 4.34 4.98 4 6 C2.35 6 0.7 6 -1 6 C-0.67 5.34 -0.34 4.68 0 4 C0.66 4.33 1.32 4.66 2 5 C1.34 3.35 0.68 1.7 0 0 Z " fill="#598FAF" transform="translate(341,300)"/>
<path d="M0 0 C0.66 0 1.32 0 2 0 C2 2.31 2 4.62 2 7 C1.01 7 0.02 7 -1 7 C-0.67 4.69 -0.34 2.38 0 0 Z " fill="#4B82A7" transform="translate(272,299)"/>
<path d="M0 0 C0.66 0.33 1.32 0.66 2 1 C-1.44615385 6.78461538 -1.44615385 6.78461538 -4.25 7.875 C-4.8275 7.91625 -5.405 7.9575 -6 8 C-5.34 6.68 -4.68 5.36 -4 4 C-3.34 4 -2.68 4 -2 4 C-1.34 2.68 -0.68 1.36 0 0 Z " fill="#74AFCD" transform="translate(323,188)"/>
<path d="M0 0 C1.98 0.66 3.96 1.32 6 2 C5.01 3.485 5.01 3.485 4 5 C3.34 5 2.68 5 2 5 C1.67 5.66 1.34 6.32 1 7 C0.67 4.69 0.34 2.38 0 0 Z " fill="#4998C4" transform="translate(308,192)"/>
<path d="M0 0 C-0.33 1.32 -0.66 2.64 -1 4 C-1.99 4 -2.98 4 -4 4 C-4 3.34 -4 2.68 -4 2 C-4.66 2 -5.32 2 -6 2 C-6 1.34 -6 0.68 -6 0 C-3 -1 -3 -1 0 0 Z " fill="#066CB1" transform="translate(302,189)"/>
<path d="M0 0 C2.475 0.495 2.475 0.495 5 1 C5.33 2.65 5.66 4.3 6 6 C4 6 4 6 1.875 4.125 C0 2 0 2 0 0 Z " fill="#418FC3" transform="translate(275,170)"/>
<path d="M0 0 C0.99 0.66 1.98 1.32 3 2 C2.01 2.33 1.02 2.66 0 3 C0 3.99 0 4.98 0 6 C-1.32 5.67 -2.64 5.34 -4 5 C-3.67 4.01 -3.34 3.02 -3 2 C-2.01 2 -1.02 2 0 2 C0 1.34 0 0.68 0 0 Z " fill="#0171BF" transform="translate(312,112)"/>
<path d="M0 0 C0.33 0.66 0.66 1.32 1 2 C1.66 2 2.32 2 3 2 C3 3.32 3 4.64 3 6 C2.34 6 1.68 6 1 6 C0.67 6.66 0.34 7.32 0 8 C-0.66 5.69 -1.32 3.38 -2 1 C-1.34 0.67 -0.68 0.34 0 0 Z " fill="#1B7BBF" transform="translate(333,239)"/>
<path d="M0 0 C0.99 0 1.98 0 3 0 C2.6875 2.375 2.6875 2.375 2 5 C1.01 5.66 0.02 6.32 -1 7 C-0.67 4.69 -0.34 2.38 0 0 Z " fill="#2B83BE" transform="translate(354,231)"/>
<path d="M0 0 C0.66 0 1.32 0 2 0 C2 0.99 2 1.98 2 3 C2.66 3 3.32 3 4 3 C4 4.98 4 6.96 4 9 C2 8 2 8 1.3671875 6.15234375 C1.20476562 5.42144531 1.04234375 4.69054687 0.875 3.9375 C0.70742187 3.20402344 0.53984375 2.47054687 0.3671875 1.71484375 C0.24601563 1.14894531 0.12484375 0.58304688 0 0 Z " fill="#5799C2" transform="translate(245,215)"/>
<path d="M0 0 C0 0.66 0 1.32 0 2 C0.66 2 1.32 2 2 2 C1.67 3.32 1.34 4.64 1 6 C0.34 6 -0.32 6 -1 6 C-1.33 5.01 -1.66 4.02 -2 3 C-2.66 2.34 -3.32 1.68 -4 1 C-2 0 -2 0 0 0 Z " fill="#056CB0" transform="translate(294,182)"/>
<path d="M0 0 C1.32 0.33 2.64 0.66 4 1 C3.01 1.495 3.01 1.495 2 2 C2 2.99 2 3.98 2 5 C0.68 4.67 -0.64 4.34 -2 4 C-1.34 2.68 -0.68 1.36 0 0 Z " fill="#086DAD" transform="translate(250,162)"/>
<path d="M0 0 C2.02054804 1.64169528 4.02043058 3.30911778 6 5 C6 5.33 6 5.66 6 6 C4.02 6 2.04 6 0 6 C0 4.02 0 2.04 0 0 Z " fill="#519EC7" transform="translate(312,135)"/>
<path d="M0 0 C0.33 0.66 0.66 1.32 1 2 C-0.25 4.5625 -0.25 4.5625 -2 7 C-2.99 7.33 -3.98 7.66 -5 8 C-3.375 2.25 -3.375 2.25 0 0 Z " fill="#0E6DAE" transform="translate(277,131)"/>
<path d="M0 0 C0.99 0.33 1.98 0.66 3 1 C2.42655063 3.86724686 2.1385485 4.8614515 0 7 C-0.99 5.68 -1.98 4.36 -3 3 C-1.68 3 -0.36 3 1 3 C0.67 2.01 0.34 1.02 0 0 Z " fill="#2E86C0" transform="translate(313,118)"/>
<path d="M0 0 C0.66 0.33 1.32 0.66 2 1 C2 2.65 2 4.3 2 6 C0.35 6 -1.3 6 -3 6 C-2.34 5.67 -1.68 5.34 -1 5 C-0.34444881 2.47266765 -0.34444881 2.47266765 0 0 Z " fill="#5085AF" transform="translate(238,300)"/>
<path d="M0 0 C2.5 2.3125 2.5 2.3125 5 5 C5 5.99 5 6.98 5 8 C4.67 7.34 4.34 6.68 4 6 C3.01 6 2.02 6 1 6 C0.67 4.02 0.34 2.04 0 0 Z " fill="#4894C1" transform="translate(272,214)"/>
<path d="M0 0 C0.33 0.66 0.66 1.32 1 2 C1.99 2.33 2.98 2.66 4 3 C3.01 3.33 2.02 3.66 1 4 C0.67 4.99 0.34 5.98 0 7 C-0.33 7 -0.66 7 -1 7 C-1.04254356 5.00045254 -1.04080783 2.99958364 -1 1 C-0.67 0.67 -0.34 0.34 0 0 Z " fill="#569BC9" transform="translate(341,181)"/>
<path d="M0 0 C0.66 0.33 1.32 0.66 2 1 C1.01 3.31 0.02 5.62 -1 8 C-2.32 7.01 -3.64 6.02 -5 5 C-3.35 3.35 -1.7 1.7 0 0 Z " fill="#6BA8D3" transform="translate(326,164)"/>
<path d="M0 0 C0 2.62113708 -0.31292445 4.50935112 -1 7 C-2.32 6.67 -3.64 6.34 -5 6 C-3.35 4.02 -1.7 2.04 0 0 Z " fill="#5095C5" transform="translate(257,150)"/>
<path d="M0 0 C0.99 0 1.98 0 3 0 C2.60196439 2.88575819 2.20990931 3.82189513 -0.0625 5.75 C-0.701875 6.1625 -1.34125 6.575 -2 7 C-2 5.68 -2 4.36 -2 3 C-1.01 3 -0.02 3 1 3 C0.67 2.01 0.34 1.02 0 0 Z " fill="#569DC5" transform="translate(297,122)"/>
</svg>
