<?xml version="1.0" encoding="UTF-8"?>
<svg version="1.1" xmlns="http://www.w3.org/2000/svg" width="6000" height="4000">
<path d="M0 0 C1980 0 3960 0 6000 0 C6000 1320 6000 2640 6000 4000 C4020 4000 2040 4000 0 4000 C0 2680 0 1360 0 0 Z " fill="#414141" transform="translate(0,0)"/>
<path d="M0 0 C2.84337042 1.29327692 4.90175187 2.65199895 7.1064899 4.8580929 C7.69887987 5.44598829 8.29126984 6.03388368 8.90161103 6.63959408 C9.86530184 7.61116593 9.86530184 7.61116593 10.84846115 8.60236549 C11.54024462 9.29184127 12.23202808 9.98131705 12.94477469 10.69168603 C15.27873664 13.02032317 17.60545331 15.35606952 19.93231201 17.69180298 C21.61413087 19.37275028 23.29638891 21.05325826 24.97904992 22.73336256 C28.64523088 26.39599485 32.30827607 30.06173367 35.96861458 33.73020363 C41.41144103 39.18508775 46.85997852 44.63424033 52.3097149 50.08221998 C61.47635386 59.24622944 70.6383254 68.41489192 79.79766083 77.58620071 C88.86867333 86.66904076 97.94174509 95.74981556 107.01758575 104.82783127 C107.58155394 105.39193693 108.14552212 105.95604259 108.72658024 106.53724236 C111.59061332 109.40195209 114.45468333 112.26662488 117.31876758 115.13128345 C137.61348598 135.43020447 157.90356191 155.73376012 178.19091797 176.04003906 C197.90178786 195.76927291 217.61475384 215.49640853 237.33056641 235.22070312 C237.93812106 235.82852083 238.54567571 236.43633853 239.17164111 237.06257495 C245.27286751 243.16643836 251.3741366 249.27025908 257.47543698 255.37404854 C269.90487224 267.80855645 282.33402251 280.24334922 294.76300049 292.67831421 C295.33448532 293.25007362 295.90597015 293.82183303 296.49477271 294.41091849 C334.66795599 332.6025081 372.83447394 370.80075858 411 409 C415.94527628 404.85222218 420.60217516 400.53991344 425.15513515 395.96791267 C425.84362666 395.28057501 426.53211816 394.59323735 427.24147305 393.88507128 C429.54376473 391.58542269 431.84247753 389.28223033 434.14122009 386.97903442 C435.80934263 385.31134806 437.47768494 383.64388151 439.1462279 381.97661579 C443.24747704 377.87736827 447.3463988 373.77580406 451.44434657 369.67325643 C456.35446439 364.75789256 461.26749954 359.84544858 466.18064058 354.93310688 C475.24710953 345.86795064 484.31125245 336.80047202 493.37406731 327.73166275 C502.34605736 318.75375358 511.31908258 309.7768811 520.29348946 300.80138779 C520.85170603 300.24310247 521.40992261 299.68481716 521.98505483 299.10961411 C524.82001553 296.27431507 527.65499471 293.43903451 530.489981 290.60376106 C550.56473902 270.52690321 570.63717809 250.44772839 590.70825195 230.3671875 C610.20577485 210.86047873 629.70434895 191.35482172 649.2043457 171.85058594 C649.80552955 171.24927056 650.4067134 170.64795519 651.02611494 170.02841813 C657.06350832 163.98970623 663.10092305 157.95101568 669.13835344 151.91234078 C681.43705037 139.6111077 693.73560474 127.30973209 706.03407288 115.00827026 C706.59952388 114.44268197 707.16497489 113.87709367 707.74756077 113.29436634 C745.50076259 75.53196546 783.25063045 37.76623177 821 0 C822.28850785 0.95978413 823.5761169 1.92077499 824.86334229 2.88227844 C825.5804752 3.41730138 826.29760811 3.95232431 827.03647232 4.50356007 C829.08575569 6.06535596 830.99578918 7.70146775 832.859375 9.48046875 C833.49415771 10.08165527 834.12894043 10.6828418 834.78295898 11.30224609 C835.43208252 11.92437988 836.08120605 12.54651367 836.75 13.1875 C838.15177469 14.5175271 839.55412337 15.8469495 840.95703125 17.17578125 C841.64104004 17.82498535 842.32504883 18.47418945 843.02978516 19.14306641 C845.80115508 21.75509114 848.61722486 24.31605776 851.4375 26.875 C858.45461363 33.29309173 865.12838081 39.8823979 871.3203125 47.1015625 C872.98204576 48.97970753 874.71125525 50.74305516 876.5 52.5 C880.21213359 56.16296626 883.60680882 60.04234601 887 64 C887.90715539 65.0433138 888.81474081 66.08625379 889.72265625 67.12890625 C896.74667083 75.22209349 903.49133148 83.48739028 910 92 C910.84884766 93.10988281 910.84884766 93.10988281 911.71484375 94.2421875 C924.93854241 111.5894051 937.63204858 129.17484595 948.77246094 147.94189453 C949.91961355 149.8652232 951.08419286 151.77633259 952.2578125 153.68359375 C961.60664069 168.93277515 970.12697966 184.72286043 977.93554688 200.81347656 C978.69460963 202.37268896 979.45958293 203.92902973 980.22851562 205.48339844 C1015.09424604 275.96382681 1034.16491466 352.88030212 1041 431 C1041.15686279 432.75062744 1041.15686279 432.75062744 1041.31689453 434.53662109 C1042.41708323 449.03195164 1042.24593002 463.59610329 1042.25 478.125 C1042.25044186 478.84741127 1042.25088371 479.56982254 1042.25133896 480.31412506 C1042.25881619 503.65561308 1041.79388879 526.80042018 1039 550 C1038.87271515 551.07374878 1038.87271515 551.07374878 1038.74285889 552.16918945 C1028.16623454 640.68180801 1000.01598019 726.50554273 954 803 C953.06582505 804.57517629 952.13219473 806.15067576 951.19921875 807.7265625 C937.07429595 831.4032175 920.98649395 854.06280788 903.40576172 875.29003906 C901.48627763 877.6248891 899.61866567 879.99938939 897.75 882.375 C894.37149243 886.61413792 890.79191057 890.63929453 887.140625 894.64453125 C885.29315879 896.67741834 883.48292676 898.73381416 881.6875 900.8125 C872.57479937 911.20954099 863.01132866 921.09223617 853.25 930.875 C852.70684143 931.42074677 852.16368286 931.96649353 851.60406494 932.52877808 C845.5819125 938.57351728 839.49124041 944.45520242 833 950 C831.22429779 951.61967817 829.45291693 953.24411718 827.6875 954.875 C822.28508543 959.7957178 816.69831141 964.42792553 811 969 C809.87979484 969.91225289 808.76002295 970.82503803 807.640625 971.73828125 C783.85526446 991.06551137 758.44016998 1008.49999216 732 1024 C731.18934082 1024.47598633 730.37868164 1024.95197266 729.54345703 1025.44238281 C657.78363591 1067.39427824 578.95224045 1093.85305531 248.88671875 1090.19921875 C173.74580819 1070.44169234 101.17815571 1036.71318399 39 990 C38.2894043 989.46810059 37.57880859 988.93620117 36.84667969 988.38818359 C17.02830015 973.51323491 -2.03806799 957.79442869 -20.02734375 940.75 C-22.62432066 938.28963919 -25.23945981 935.85224134 -27.87890625 933.4375 C-33.27160929 928.50153093 -38.54185126 923.64977848 -43.23046875 918.0234375 C-45.53206189 915.39159369 -48.01132377 912.95246974 -50.5 910.5 C-54.88357845 906.16272696 -59.01247941 901.70218823 -63 897 C-63.87803986 895.984927 -64.75702886 894.97067462 -65.63671875 893.95703125 C-93.3863145 861.91368233 -118.42258066 827.10467995 -139 790 C-139.57975586 788.96101563 -140.15951172 787.92203125 -140.75683594 786.8515625 C-180.59895842 715.07299853 -205.34861438 636.80294039 -219 518 C-219.07057617 516.92556641 -219.14115234 515.85113281 -219.21386719 514.74414062 C-219.62158729 508.16453046 -219.86897212 501.59070247 -220 495 C-220.02191406 493.92169922 -220.04382812 492.84339844 -220.06640625 491.73242188 C-220.99255844 436.93508386 -215.0119999 382.24361294 -202 329 C-201.71962891 327.84854492 -201.43925781 326.69708984 -201.15039062 325.51074219 C-184.20542255 256.9266385 -155.20532296 190.76065134 -116 132 C-115.51096191 131.26249512 -115.02192383 130.52499023 -114.51806641 129.76513672 C-105.87194568 116.76421916 -96.57138308 104.33088487 -87 92 C-85.9868056 90.68502955 -84.97376871 89.36993771 -83.9609375 88.0546875 C-74.88418663 76.32433785 -65.20704248 65.16290097 -55.08203125 54.328125 C-52.62046075 51.69259192 -50.22396368 49.00394558 -47.828125 46.30859375 C-43.1660706 41.11900775 -38.30439443 36.151898 -33.36108398 31.23071289 C-31.93160283 29.80662508 -30.50759489 28.37721956 -29.08398438 26.94726562 C-24.46160751 22.33132214 -19.79792933 17.83611306 -14.83813477 13.58422852 C-11.82300586 10.98558707 -8.91602147 8.27120526 -6 5.5625 C-5.41605469 5.02173828 -4.83210938 4.48097656 -4.23046875 3.92382812 C-2.81940763 2.61686168 -1.40956752 1.30857716 0 0 Z " fill="#016FB9" transform="translate(2590,1416)"/>
<path d="M0 0 C2.82021313 1.28481224 4.87189781 2.62297196 7.05700302 4.81435937 C7.63833417 5.39247706 8.21966533 5.97059475 8.81861258 6.56623116 C9.76374267 7.52138616 9.76374267 7.52138616 10.72796631 8.49583721 C11.40673277 9.17379397 12.08549924 9.85175073 12.78483438 10.55025163 C15.07456315 12.83969773 17.35702742 15.13625387 19.63964844 17.43278503 C21.28973516 19.08557826 22.94026906 20.73792514 24.59121323 22.38986188 C28.6620345 26.46538039 32.72818739 30.54551511 36.79247193 34.62755149 C41.65968828 39.51547204 46.53275683 44.39754181 51.40616238 49.27929031 C59.84879803 57.73659261 68.28790977 66.19740084 76.72454584 74.66068779 C90.11202492 88.09043954 103.50822365 101.51146532 116.90721792 114.92972726 C122.05996178 120.08995044 127.21243594 125.25044292 132.3649292 130.41091633 C132.93737973 130.98425015 133.50983025 131.55758398 134.09962776 132.14829155 C147.72854078 145.79831492 161.35499302 159.45079365 174.98046875 173.10424805 C175.57675125 173.70175011 176.17303374 174.29925217 176.7873854 174.91486036 C190.70510516 188.86110795 204.62111337 202.80906002 218.53369141 216.76043701 C219.1323746 217.36078866 219.73105779 217.96114031 220.3478829 218.57968444 C223.36679704 221.60702506 226.38569108 224.63438572 229.40457773 227.66175375 C230.0012299 228.2600821 230.59788206 228.85841044 231.2126146 229.47486995 C232.41690567 230.68254587 233.62119506 231.89022347 234.82548279 233.09790274 C254.70259073 253.03088798 274.58808188 272.9554776 294.48314823 292.87053916 C297.29001195 295.68024441 300.09676478 298.4900604 302.90344238 301.29995155 C303.45584688 301.85298617 304.00825138 302.40602078 304.57739541 302.97581402 C313.4840459 311.89317873 322.38152103 320.81964512 331.27545416 329.74969192 C340.20535586 338.71555001 349.14404251 347.6725689 358.09196377 356.62044426 C362.94348258 361.47246303 367.79079138 366.32852073 372.62684631 371.19595718 C377.04742654 375.64446005 381.47918874 380.08148394 385.92043352 384.50935344 C387.53176628 386.11995606 389.13880226 387.73487028 390.74125242 389.35431077 C392.90692108 391.54173604 395.08716762 393.71346183 397.27203369 395.88168621 C397.90212042 396.52547971 398.53220716 397.1692732 399.18138742 397.83257559 C401.08647719 399.76168058 401.08647719 399.76168058 404 402 C407.19352352 401.71385502 408.8443893 400.53028824 411.06801772 398.30457777 C411.94370193 397.43900638 411.94370193 397.43900638 412.83707672 396.5559487 C413.46991119 395.9152332 414.10274566 395.27451769 414.75475693 394.61438656 C415.43641015 393.93619487 416.11806338 393.25800317 416.82037276 392.55926022 C419.12228807 390.26533979 421.41327189 387.96079777 423.70452881 385.65623474 C425.36138536 384.00068537 427.01890057 382.34579496 428.67702031 380.69151074 C432.76688053 376.60767734 436.84968569 372.5168848 440.92964611 368.42316291 C445.81526352 363.52185771 450.70957273 358.62926757 455.60423984 353.73700255 C464.63764329 344.70754414 473.66403767 335.67110955 482.68648529 326.63070488 C491.62237905 317.67707189 500.56135747 308.72653725 509.50449371 299.78013802 C510.06014381 299.2242817 510.61579391 298.66842538 511.1882819 298.09572493 C514.01006002 295.27293183 516.83189355 292.45019414 519.65374842 289.62747777 C539.65098314 269.62393856 559.64125056 249.61344995 579.62744141 229.59887695 C599.04612314 210.1526508 618.46794704 190.70957171 637.89404297 171.27075195 C638.49263328 170.67176706 639.0912236 170.07278216 639.70795302 169.45564621 C645.71913957 163.44050416 651.73039017 157.42542612 657.74168769 151.41039496 C669.98785126 139.15662236 682.23358731 126.90242255 694.47906494 114.64796448 C695.04211684 114.08450071 695.60516874 113.52103694 696.18528282 112.94049851 C733.79735032 75.30081993 771.39941877 37.65115251 809 0 C812.08885458 3.03520431 814.71990778 5.78432207 816.91015625 9.52734375 C817.41909424 10.39077393 817.92803223 11.2542041 818.45239258 12.14379883 C819.24939575 13.52668091 819.24939575 13.52668091 820.0625 14.9375 C820.90687622 16.38709106 820.90687622 16.38709106 821.76831055 17.8659668 C832.19265569 35.86423884 841.84022111 54.05222498 850.1484375 73.125 C850.99090126 74.97996608 851.92087884 76.76285683 852.875 78.5625 C855.77045997 84.31988179 857.89954986 90.39143563 860.08007812 96.44580078 C860.72814963 98.24519677 861.38093186 100.0428996 862.03710938 101.83935547 C872.40565244 130.32532179 879.37532777 159.61557544 884.625 189.4375 C884.77785461 190.30506927 884.93070923 191.17263855 885.0881958 192.0664978 C887.69898798 207.03786094 889.37177365 221.80301697 890 237 C890.10910737 239.23308601 890.2184874 241.46615871 890.328125 243.69921875 C890.63853627 250.46453025 890.83922633 257.22964214 891 264 C891.02868164 265.06057617 891.05736328 266.12115234 891.08691406 267.21386719 C892.15086036 311.1319542 886.37750322 356.41260518 873.74658203 398.48779297 C872.84910048 401.50776851 871.98586535 404.53690495 871.12109375 407.56640625 C867.6378029 419.67303729 863.9364643 431.41126331 859 443 C857.74009182 446.26180309 856.50406181 449.53175051 855.2734375 452.8046875 C853.63170006 456.92413912 851.81787037 460.95586766 850 465 C849.25774552 466.67444948 848.51555994 468.3489295 847.7734375 470.0234375 C835.61837219 497.24693309 820.84126461 522.41515179 804 547 C803.31574951 548.00135986 803.31574951 548.00135986 802.61767578 549.02294922 C796.8640349 557.39570228 790.61065432 565.28364396 784.15625 573.125 C781.35090749 576.54401118 778.66460303 580.03276611 776 583.5625 C763.09753806 600.48265101 748.41727219 616.80964461 731.625 629.94140625 C728.57076824 632.33661479 725.63401847 634.84966319 722.6875 637.375 C706.32757345 651.28057557 689.08728572 664.42589746 671 676 C670.29907227 676.45084961 669.59814453 676.90169922 668.87597656 677.36621094 C653.67057031 687.13249151 638.26746679 696.11721664 622 704 C621.26652344 704.35707031 620.53304687 704.71414063 619.77734375 705.08203125 C602.8625753 713.29280222 585.83847587 721.05984108 567.8828125 726.7109375 C565.3811323 727.50757898 563.11657905 728.38995978 560.69921875 729.45703125 C555.85952177 731.58977907 550.77557326 732.90664773 545.6875 734.3125 C544.60243164 734.61446289 543.51736328 734.91642578 542.39941406 735.22753906 C531.36217691 738.25209042 520.23132286 740.83026937 509.06103516 743.31054688 C506.95896245 743.78400782 504.85977187 744.27039352 502.76318359 744.76757812 C490.93829748 747.57139899 479.0363212 749.36584298 467 751 C465.88496094 751.15533203 464.76992187 751.31066406 463.62109375 751.47070312 C445.55583332 753.88847552 427.64495365 754.26615654 409.4375 754.25 C407.79167938 754.24897278 407.79167938 754.24897278 406.11260986 754.2479248 C384.0858391 754.2025963 362.54200087 753.44064728 340.75 750.125 C338.97930681 749.86492944 337.20847298 749.60581463 335.4375 749.34765625 C327.00214587 748.10894697 318.57830056 746.7966625 310.1640625 745.421875 C309.44732361 745.30659454 308.73058472 745.19131409 307.99212646 745.07254028 C302.17854898 744.10624685 296.59829768 742.68194554 290.9296875 741.08203125 C288.15683698 740.30097641 285.37596515 739.6026643 282.5703125 738.94921875 C268.06513556 735.55012844 254.07356498 730.86062705 240 726 C238.54190479 725.50580728 237.08361074 725.0122003 235.625 724.51953125 C229.03058992 722.24534295 222.75304244 719.58548817 216.45703125 716.5859375 C213.33364883 715.15306375 210.19529459 713.85757954 207.00195312 712.59423828 C197.45335747 708.80417357 188.45416311 704.24680451 179.44140625 699.328125 C177.01042229 698.00566973 174.56898422 696.70449442 172.125 695.40625 C144.21164496 680.46354803 118.27078553 662.29196823 94 642 C93.47857422 641.56494141 92.95714844 641.12988281 92.41992188 640.68164062 C75.62729299 626.62500086 58.78972369 611.64639409 44.62109375 594.8984375 C42.7190635 592.67099967 40.7339228 590.52977029 38.75 588.375 C33.73144965 582.8063556 29.14641235 576.94594348 24.56689453 571.01708984 C22.86843695 568.83063666 21.1522911 566.65885566 19.43359375 564.48828125 C13.85918034 557.42725898 8.36238637 550.44015654 3.6875 542.73828125 C2.03576971 540.05804298 0.29382522 537.46487397 -1.48022461 534.86523438 C-7.37936247 526.19970597 -12.61776584 517.21019459 -17.79394531 508.09912109 C-19.3373842 505.41278758 -20.95359687 502.77251431 -22.5625 500.125 C-34.77808212 479.1631777 -43.74897725 455.97470159 -52.15380859 433.27587891 C-52.8777016 431.32892835 -53.61876422 429.38837629 -54.36328125 427.44921875 C-84.94800026 345.8567599 -88.27891757 250.80162718 -61 131 C-60.4440918 129.21335937 -60.4440918 129.21335937 -59.87695312 127.390625 C-58.57828208 123.23494787 -57.26035068 119.08553399 -55.9375 114.9375 C-55.61668961 113.92645706 -55.61668961 113.92645706 -55.28939819 112.89498901 C-53.18355171 106.28032231 -51.04043021 99.77005489 -48.0859375 93.47851562 C-46.93586767 90.85362602 -45.94631094 88.1862399 -44.9682312 85.49325562 C-41.65051066 76.36276811 -37.71992803 67.65189871 -33.4375 58.9375 C-32.91718201 57.87157623 -32.91718201 57.87157623 -32.38635254 56.78411865 C-22.77457665 37.11987622 -11.89567916 18.36864332 0 0 Z " fill="#006FB9" transform="translate(2596,1627)"/>
<path d="M0 0 C4.28411912 1.65501432 7.14412538 4.87597935 10.3062973 8.07416821 C10.93947768 8.70653887 11.57265805 9.33890954 12.22502571 9.99044296 C14.35968469 12.12481939 16.48707512 14.26629847 18.61462402 16.40776062 C20.15334103 17.94918429 21.69250539 19.49016152 23.23207998 21.03072864 C27.47258386 25.27647963 31.70683414 29.52842056 35.94016147 33.78132546 C40.50231437 38.36235116 45.07027685 42.93757677 49.63764954 47.51339722 C57.03994834 54.93040359 64.43928155 62.35035751 71.83639412 69.77253607 C84.31749002 82.29590802 96.8073082 94.81055092 109.29992243 107.32243177 C114.10431437 112.13430296 118.90843655 116.94644349 123.71257782 121.75856495 C124.24632286 122.29319329 124.7800679 122.82782163 125.32998704 123.37865083 C138.03689932 136.10667267 150.74135015 148.83715017 163.44482422 161.56860352 C164.00074596 162.12574483 164.55666771 162.68288614 165.12943556 163.25691052 C178.10519683 176.26119983 191.07924622 189.26719345 204.04986572 202.27661133 C204.60802356 202.83643763 205.1661814 203.39626392 205.74125311 203.97305465 C208.55582091 206.79604894 211.37036861 209.61906326 214.18490893 212.44208495 C214.74117525 213.00002744 215.29744156 213.55796994 215.87056444 214.13281979 C216.99334009 215.2589803 218.11611407 216.38514248 219.23888638 217.51130633 C237.77090077 236.09919904 256.31129878 254.67869482 274.86127352 273.24866445 C277.47840021 275.86863267 280.095416 278.48871162 282.71235657 281.10886574 C283.227416 281.62455529 283.74247544 282.14024484 284.27314274 282.67156135 C292.57726292 290.98639527 300.8722052 299.31032805 309.16360588 307.63784364 C317.48859598 315.99879156 325.82256099 324.35070098 334.16537941 332.6938599 C338.68867525 337.21792578 343.20768692 341.74607505 347.71598244 346.28509331 C351.83679589 350.43383234 355.96878414 354.57107807 360.11026412 358.69918404 C361.61258042 360.20077029 363.11060159 361.70666758 364.6040327 363.21709105 C366.62267512 365.25749534 368.65586149 367.28215334 370.6937027 369.30335522 C371.2804721 369.90383139 371.86724151 370.50430755 372.4717918 371.12297997 C374.25079313 372.92560382 374.25079313 372.92560382 377 375 C381.64326536 374.53373048 384.20948537 371.19882226 387.3275013 368.03605556 C387.96296924 367.40344996 388.59843718 366.77084436 389.25316173 366.11906889 C391.39799268 363.98021184 393.53187658 361.83075062 395.66604614 359.68125916 C397.2101046 358.13707683 398.75482498 356.59355614 400.30015266 355.05064398 C404.5582051 350.79542899 408.80681805 346.53089502 413.05402255 342.26485622 C417.63073726 337.67112376 422.21609934 333.08603798 426.80047607 328.49995422 C434.74703144 320.54864176 442.68771442 312.59149534 450.62506485 304.6309948 C458.95206968 296.27980647 467.28259239 287.93215115 475.61770248 279.5890522 C476.13563097 279.07062724 476.65355946 278.55220229 477.18718275 278.01806749 C479.81744102 275.38533856 482.44777324 272.75268353 485.07814096 270.12006397 C490.42724886 264.76634007 495.7758707 259.41213063 501.12434196 254.05777073 C501.9275111 253.25371767 501.9275111 253.25371767 502.74690588 252.43342111 C515.49542508 239.67062464 528.23899441 226.90288892 540.98193359 214.13452148 C541.5396117 213.5757332 542.0972898 213.01694492 542.67186724 212.44122366 C547.19056602 207.9135288 551.70925231 203.38582147 556.22791823 198.85809381 C569.24385348 185.81607193 582.26100402 172.77526343 595.27880859 159.73510742 C595.83649327 159.17646204 596.39417795 158.61781665 596.96876217 158.04224262 C609.69403498 145.29508765 622.42034787 132.54897274 635.14924431 119.80543613 C635.95104654 119.00270932 635.95104654 119.00270932 636.7690468 118.1837658 C642.10447854 112.84221365 647.44004611 107.50079723 652.7758396 102.15960644 C664.25332635 90.67041204 675.72776477 79.17819503 687.1962273 67.67999225 C695.55363771 59.30096047 703.91439946 50.9252867 712.27855195 42.55298489 C716.8139631 38.01287846 721.34764923 33.47108105 725.87701797 28.92494583 C730.01644062 24.77024035 734.16034855 20.62006604 738.30799411 16.47356994 C739.81437196 14.96594617 741.3190228 13.45659462 742.82184424 11.94542574 C744.85141433 9.90504997 746.88693561 7.87081113 748.92418098 5.83810329 C749.51780876 5.23836395 750.11143654 4.6386246 750.72305304 4.02071133 C754.7717219 0 754.7717219 0 757 0 C763.63189492 20.710778 766.90789954 42.52393906 770 64 C770.2545697 65.76737267 770.2545697 65.76737267 770.51428223 67.57044983 C771.75807718 76.77995574 772.30741031 85.77939971 772.30078125 95.0859375 C772.30469312 96.48052084 772.3090326 97.87510304 772.31376648 99.26968384 C772.32114916 102.17217895 772.32099904 105.07455233 772.31567383 107.97705078 C772.31106783 110.89127136 772.31787781 113.80507208 772.33618164 116.71923828 C772.49043495 141.51434695 770.81986514 165.57506636 765.46875 189.85888672 C765.03480464 191.84102254 764.62568095 193.82854856 764.21875 195.81640625 C761.61547168 208.47909156 758.14413146 220.84289303 754.21875 233.1484375 C753.09637686 236.66812951 752.04836747 240.2075325 751 243.75 C749.06260934 250.02928988 746.60827322 255.97422006 744 262 C743.36530023 263.53698242 742.73264954 265.07481191 742.1015625 266.61328125 C726.87447965 303.4023649 705.48772541 338.11664879 679.38671875 368.21484375 C677.29677349 370.65368331 675.31771671 373.1312938 673.375 375.6875 C663.71120179 388.26650575 652.37507536 399.14056496 640 409 C638.7797324 409.99684305 637.56107144 410.99565505 636.34375 411.99609375 C610.46993126 433.24081348 583.37783654 452.66526425 553 467 C552.35160156 467.30776367 551.70320313 467.61552734 551.03515625 467.93261719 C547.85149228 469.4409174 544.66143666 470.93400338 541.4609375 472.40625 C539.31486651 473.39450842 537.17327631 474.39263922 535.0390625 475.40625 C529.38647493 478.06248026 523.70731476 480.1946562 517.76171875 482.10546875 C515.52201116 482.83091859 513.32355083 483.59839425 511.125 484.4375 C509.75038367 484.95934509 508.37529462 485.47994513 507 486 C506.06309326 486.35763428 505.12618652 486.71526855 504.16088867 487.08374023 C495.39819279 490.33083716 486.56961118 492.83288769 477.49682617 495.05761719 C475.19782132 495.62246413 472.90258826 496.20102645 470.60742188 496.78125 C455.66931054 500.51585267 440.77125917 503.13644974 425.4375 504.625 C424.26509766 504.74617188 423.09269531 504.86734375 421.88476562 504.9921875 C406.20151873 506.56822105 390.62822608 507.23943073 374.875 507.25 C373.95958435 507.25067474 373.0441687 507.25134949 372.10101318 507.25204468 C323.26735119 507.19534638 272.83717233 497.8040116 228 478 C226.43077942 477.34633084 224.86034388 476.69557479 223.2890625 476.046875 C211.15236566 471.00317012 199.4790096 465.40031128 188 459 C187.29456055 458.60731934 186.58912109 458.21463867 185.86230469 457.81005859 C159.67598361 443.1009119 135.58924503 425.36257262 113.39453125 405.17578125 C111.77584529 403.70496873 110.14794029 402.24424845 108.51171875 400.79296875 C100.46277205 393.6453038 92.7470006 386.22110859 85.75390625 378.02734375 C84.53774821 376.62158423 83.29323499 375.24005267 82.02734375 373.87890625 C74.74911659 366.04589589 68.37099746 357.57221798 62 349 C61.4313623 348.23494141 60.86272461 347.46988281 60.27685547 346.68164062 C53.81872887 337.95335131 47.54547974 329.19661382 42.06152344 319.81542969 C40.83474837 317.71738475 39.59238768 315.62882698 38.3515625 313.5390625 C32.46258932 303.55677025 27.00760984 293.45053867 22 283 C21.51402344 282.00871094 21.02804688 281.01742187 20.52734375 279.99609375 C18.948323 276.69290549 17.45567356 273.35875502 16 270 C15.47067871 268.78666992 15.47067871 268.78666992 14.93066406 267.54882812 C6.99616465 249.14290358 1.32657949 230.27976586 -4 211 C-4.28246582 210.0006543 -4.56493164 209.00130859 -4.85595703 207.97167969 C-8.65475889 194.47205335 -10.71420878 180.81776844 -12.59765625 166.93359375 C-12.93224526 164.49401754 -13.28431024 162.05908682 -13.65625 159.625 C-21.16562072 110.15149881 -16.90815802 54.78422701 -2 7 C-1.32271375 4.66956546 -0.6609459 2.33514809 0 0 Z " fill="#FEFEFE" transform="translate(2623,1783)"/>
<path d="M0 0 C2.83703869 1.2907647 4.89152552 2.64264216 7.08906317 4.84641951 C7.67756141 5.43170429 8.26605965 6.01698907 8.87239116 6.62000975 C9.51049962 7.26480147 10.14860808 7.9095932 10.80605316 8.57392406 C11.4932615 9.26032269 12.18046983 9.94672132 12.88850266 10.65391991 C15.20694808 12.97208264 17.5181297 15.29735668 19.82946777 17.62260437 C21.50017851 19.29602159 23.17133641 20.96899248 24.84290457 22.64155322 C28.48491871 26.28771794 32.12381454 29.93696534 35.76003075 33.58891106 C41.16708436 39.01928806 46.57990995 44.44388374 51.99405827 49.86718619 C60.5424662 58.430261 69.08735038 66.99684181 77.62975912 75.56590108 C91.18508691 89.16350095 104.7491339 102.75237539 118.31597634 116.33848568 C123.53322982 121.56321849 128.75021361 126.7882206 133.96721649 132.01320362 C134.5468347 132.59370513 135.12645291 133.17420663 135.7236353 133.7722991 C149.5232892 147.59306348 163.32048245 161.41628318 177.11669922 175.24047852 C177.72045593 175.84545479 178.32421264 176.45043107 178.946265 177.07373996 C193.03842151 191.19442427 207.12886654 205.31681309 221.21588135 219.44262695 C221.82206923 220.0504833 222.42825712 220.65833965 223.05281434 221.28461588 C226.1095704 224.34979841 229.16630635 227.41500099 232.22303492 230.48021094 C232.82716594 231.08601814 233.43129697 231.69182535 234.053735 232.31599034 C235.27312151 233.53876172 236.49250636 234.76153476 237.71188953 235.98430948 C257.83808886 256.16638593 277.97267132 276.34006699 298.11682873 296.50421967 C300.95882894 299.3490614 303.80071825 302.19401388 306.64253235 305.03904152 C307.2018526 305.59899189 307.76117285 306.15894225 308.3374422 306.73586081 C317.35567241 315.76480531 326.36472767 324.80285197 335.37024088 333.84447864 C344.41216341 342.92235731 353.46287098 351.99139737 362.52281272 361.05129322 C367.91122516 366.44025408 373.29244046 371.83618274 378.66384052 377.24210182 C382.6656267 381.26808988 386.68021893 385.28109587 390.70009452 389.28901444 C392.33161551 390.91980528 393.95883945 392.55490782 395.5814783 394.19453665 C397.77437419 396.40918826 399.98185376 398.60814837 402.19394684 400.80359936 C402.8320553 401.45541458 403.47016376 402.1072298 404.12760884 402.778797 C406.05605515 404.73132549 406.05605515 404.73132549 409 407 C412.21193868 406.7186634 413.86387388 405.51046527 416.09777653 403.27251762 C416.68822064 402.68830294 417.27866475 402.10408827 417.8870011 401.50217012 C418.84742785 400.52906426 418.84742785 400.52906426 419.82725716 399.53629971 C420.51675306 398.84966615 421.20624896 398.16303258 421.91663867 397.45559195 C424.24525491 395.13295219 426.56293358 392.79969027 428.88088989 390.46641541 C430.55694196 388.79023948 432.23365586 387.11472513 433.91097724 385.4398194 C437.56657857 381.78646228 441.21746771 378.12846267 444.86432266 374.46637726 C450.2871728 369.020943 455.71859879 363.58412418 461.15188658 358.14910667 C470.29085458 349.00678021 479.42295497 339.8576231 488.55133438 330.70472527 C497.59285815 321.6390194 506.63789925 312.5768448 515.6875267 303.51922798 C516.53096408 302.6750459 516.53096408 302.6750459 517.3914406 301.81380964 C520.24698031 298.95579928 523.10259396 296.09786281 525.95824312 293.23996181 C531.76552982 287.42805907 537.5723305 281.61567078 543.37898064 275.80313206 C543.9602999 275.22122352 544.54161916 274.63931497 545.14055415 274.03977284 C558.98181507 260.18423412 572.81812679 246.32375599 586.65380859 232.46264648 C587.5620782 231.55271161 587.5620782 231.55271161 588.48869669 230.62439422 C593.39498552 225.70910931 598.30126186 220.79381193 603.20751783 215.87849422 C617.33962851 201.72029736 631.47295409 187.56331364 645.60693359 173.40698242 C646.21242806 172.80052725 646.81792253 172.19407207 647.44176532 171.56923947 C661.25782436 157.73129848 675.07492336 143.89439742 688.89460564 130.06007481 C689.4749403 129.47912376 690.05527496 128.89817271 690.65319552 128.29961708 C696.44576277 122.50092943 702.23846584 116.70237751 708.03139481 110.90405123 C720.49257409 98.43116393 732.95070584 85.95525279 745.40286229 73.47335725 C754.47720576 64.37739307 763.55483419 55.28471936 772.63598527 46.19555157 C778.03777799 40.78873722 783.43667129 35.37906294 788.83159752 29.96539701 C792.84956628 25.93406651 796.87265619 21.90788029 800.89782451 17.88373954 C802.53340724 16.24691079 804.16726264 14.60835401 805.79928984 12.96798014 C808.00312475 10.75334149 810.21291594 8.54483027 812.42442513 6.33785915 C813.06939196 5.68678075 813.71435879 5.03570235 814.37887007 4.3648943 C818.7717219 0 818.7717219 0 821 0 C822.71104285 1.96248642 824.30018245 3.93155832 825.875 6 C826.60746948 6.95060303 826.60746948 6.95060303 827.35473633 7.92041016 C828.39111794 9.26911011 829.42431891 10.62025917 830.45458984 11.97363281 C831.90347811 13.87343891 833.36613684 15.76174396 834.83203125 17.6484375 C852.30687134 40.33591729 867.38099764 64.83853416 881 90 C881.59989746 91.10504883 881.59989746 91.10504883 882.21191406 92.23242188 C887.14556478 101.34624944 891.79935316 110.52046541 896 120 C896.57016194 121.26569283 897.14048143 122.53131471 897.7109375 123.796875 C901.52725298 132.32469108 904.97622094 140.94052599 908.16699219 149.72021484 C909.09189003 152.25148567 910.03391837 154.77606755 910.9765625 157.30078125 C914.83856849 167.69939818 918.43680597 178.0941391 921.38476562 188.7890625 C922.03490229 191.12542666 922.71187578 193.45304719 923.390625 195.78125 C930.65351985 221.07341209 935.62948095 246.91785262 939 273 C939.15976318 274.18045898 939.15976318 274.18045898 939.32275391 275.38476562 C948.37408054 342.74489054 942.77657503 413.09209947 924.69384766 478.47460938 C924.04164687 480.84841828 923.4132962 483.22707009 922.79296875 485.609375 C919.76387838 497.09230061 915.91204987 508.24841184 911.91503906 519.42675781 C911.1236852 521.65217663 910.34899633 523.88195332 909.5859375 526.1171875 C907.28118162 532.79354484 904.6274162 539.15435983 901.59375 545.53125 C899.81020199 549.41308978 898.2152847 553.34887656 896.625 557.3125 C893.47756125 565.08099857 889.90450107 572.55916489 886.04150391 579.99511719 C885.00248981 581.99520715 883.97584242 584.00134061 882.94921875 586.0078125 C874.19404575 602.97413198 864.3242871 619.23941327 853.75 635.125 C853.3801297 635.68209656 853.0102594 636.23919312 852.62918091 636.81317139 C847.34421507 644.75362356 841.78724275 652.42038658 836 660 C835.1301649 661.15100885 834.26036348 662.30204314 833.390625 663.453125 C827.23958319 671.48988766 820.89187182 679.35474192 814.47949219 687.18408203 C813.19680023 688.75844883 811.92904462 690.34496236 810.6640625 691.93359375 C798.8482449 706.714347 785.42975287 720.76179663 771 733 C769.90290651 733.94836416 768.80662527 734.89766835 767.7109375 735.84765625 C762.05456594 740.74191425 756.39173846 745.58583691 750.4375 750.1171875 C748.51890687 751.59917771 746.63009949 753.10307558 744.75 754.6328125 C724.92634796 770.74405956 703.8939659 784.87872951 682 798 C681.26958496 798.43876465 680.53916992 798.8775293 679.78662109 799.32958984 C666.73276911 807.15254972 653.64734232 814.58685347 639.63525391 820.56274414 C635.95598633 822.13201642 632.36189183 823.78138385 628.8125 825.625 C624.19643672 827.99499222 619.43751834 829.8155083 614.56640625 831.59375 C611.58436027 832.76958412 608.72485346 834.04857235 605.82421875 835.40625 C600.08925837 838.03763636 594.2510504 840.06801852 588.25 842 C586.11579855 842.6963484 583.98168358 843.39296192 581.84765625 844.08984375 C580.83203613 844.41968262 579.81641602 844.74952148 578.77001953 845.08935547 C576.52277292 845.82813829 574.287911 846.58824493 572.05859375 847.37890625 C559.60825055 851.75023185 546.81388259 854.89345295 534 858 C532.17927979 858.44545166 532.17927979 858.44545166 530.32177734 858.89990234 C496.3537346 867.06276533 460.95253105 871.93651727 426 872 C423.4804626 872.02543973 420.96093155 872.05151364 418.44140625 872.078125 C361.80349542 872.51552392 304.60427293 866.35376819 250.76269531 847.93164062 C247.74552646 846.91418602 244.71476336 845.94705028 241.6796875 844.984375 C175.15431194 823.68827547 110.86744113 787.56794675 59.37109375 740.16015625 C57.34308792 738.31256609 55.28940545 736.50628644 53.21875 734.70703125 C49.08462294 731.0982698 45.05922731 727.38481922 41.0625 723.625 C40.36519775 722.96943115 39.66789551 722.3138623 38.94946289 721.63842773 C32.01066447 715.09530152 25.20133845 708.524832 18.99609375 701.2734375 C16.97728727 698.97413149 14.89200598 696.7456697 12.79394531 694.51879883 C6.56514185 687.88715213 0.88118159 680.96740577 -4.64990234 673.74853516 C-5.97587794 672.03124091 -7.32122004 670.33152753 -8.67578125 668.63671875 C-25.24798651 647.88161791 -39.53105902 625.8624632 -53 603 C-53.38816895 602.34370605 -53.77633789 601.68741211 -54.17626953 601.01123047 C-75.43349736 564.95966556 -91.96470639 524.52168143 -102.45556641 484.03759766 C-103.01209476 481.95473413 -103.61410464 479.89011775 -104.23046875 477.82421875 C-107.82533299 465.66507842 -110.17202947 453.34298704 -112.4609375 440.87988281 C-113.13036798 437.30352324 -113.87387134 433.74753687 -114.625 430.1875 C-119.13572648 407.50644594 -120.5897343 384.56594728 -121.625 361.5 C-121.66512207 360.63141357 -121.70524414 359.76282715 -121.74658203 358.86791992 C-123.86123544 305.50488716 -118.37119992 251.4881839 -104 200 C-103.74250977 199.06865234 -103.48501953 198.13730469 -103.21972656 197.17773438 C-97.44053434 176.42119566 -90.37421429 156.44369422 -82.06689453 136.57177734 C-81.07723237 134.18617067 -80.10946481 131.79334532 -79.15234375 129.39453125 C-75.58900766 120.49021057 -71.6391111 111.89399334 -67.2265625 103.37939453 C-65.83307627 100.67618657 -64.46393972 97.96118148 -63.09375 95.24609375 C-49.45589796 68.40263451 -33.53708886 42.75787325 -15 19 C-14.54608887 18.41750488 -14.09217773 17.83500977 -13.62451172 17.23486328 C-9.11997259 11.46038775 -4.58157812 5.71362307 0 0 Z M5 71 C3.75801811 72.4956086 3.75801811 72.4956086 2.56640625 74.48828125 C1.84855957 75.62753052 1.84855957 75.62753052 1.11621094 76.78979492 C0.60348633 77.6222876 0.09076172 78.45478027 -0.4375 79.3125 C-1.23559082 80.5950769 -1.23559082 80.5950769 -2.04980469 81.90356445 C-10.29344032 95.23175155 -18.16101415 108.70394321 -24.95361328 122.83349609 C-26.09899288 125.20496099 -27.26622762 127.56506701 -28.43359375 129.92578125 C-34.01234536 141.30737358 -38.80823815 152.82648977 -43.16113281 164.72753906 C-44.2930803 167.79394397 -45.49026825 170.83358518 -46.6875 173.875 C-51.89010202 187.47113328 -55.76621131 201.23318895 -59.32421875 215.33203125 C-59.90376661 217.62007281 -60.4948488 219.90447062 -61.09375 222.1875 C-75.97840934 279.80553615 -79.77520945 341.93496171 -72 401 C-71.85546387 402.12374023 -71.71092773 403.24748047 -71.56201172 404.40527344 C-66.15855206 445.29923061 -54.9959332 484.66400149 -40 523 C-39.44528852 524.43358447 -38.89059957 525.86717766 -38.3359375 527.30078125 C-35.94860292 533.42222913 -33.43029688 539.40239071 -30.3984375 545.234375 C-28.94653021 548.10574473 -27.60082559 551.01275263 -26.25878906 553.93652344 C-12.73404689 583.27722741 5.38319015 610.41769146 25 636 C25.45874512 636.60054199 25.91749023 637.20108398 26.39013672 637.81982422 C43.46058408 660.10299731 62.63232308 682.21611088 84.1015625 700.37890625 C86.32900033 702.2809365 88.47022971 704.2660772 90.625 706.25 C96.22072601 711.29211537 102.10106822 715.91387607 108.06542969 720.50683594 C110.05269667 722.040673 112.03047576 723.58620164 114.0078125 725.1328125 C147.157596 750.93728333 183.74984753 772.40860305 222.73657227 788.07739258 C225.42261235 789.17226319 228.09293986 790.30262019 230.765625 791.4296875 C254.03573802 801.13577171 277.89712946 808.13946712 302.51904297 813.40917969 C304.44282383 813.8673129 306.34740342 814.40643388 308.24072266 814.97753906 C312.44776461 816.12178453 316.5975242 816.81360615 320.90625 817.4375 C321.74861206 817.56310303 322.59097412 817.68870605 323.4588623 817.81811523 C326.13861568 818.21644524 328.81928564 818.60819584 331.5 819 C333.26828916 819.2626172 335.0365189 819.52563479 336.8046875 819.7890625 C341.097471 820.42682234 345.3924558 821.04804267 349.68847656 821.66357422 C351.74463619 821.96283362 353.79831199 822.27904841 355.8515625 822.59765625 C410.61909133 830.72250943 471.58011165 826.40350295 525 812 C526.530179 811.62451451 528.06150616 811.25368736 529.59375 810.88671875 C538.85236521 808.66159466 548.00903671 806.19228758 557.125 803.4375 C558.06029541 803.15672607 558.99559082 802.87595215 559.95922852 802.58666992 C565.27977305 800.95209913 570.43522874 799.08769081 575.58398438 796.9753418 C578.65053735 795.73737907 581.75519859 794.62741515 584.86962891 793.5168457 C593.40265078 790.46368841 601.61562432 787.05740575 609.75976562 783.08105469 C612.3651702 781.8237823 614.98656545 780.60335379 617.609375 779.3828125 C637.79481469 769.93124331 657.53190297 759.51998858 676 747 C676.61568848 746.58717773 677.23137695 746.17435547 677.86572266 745.74902344 C691.71759234 736.45482133 705.04687168 726.50914184 718 716 C719.60399961 714.72895583 721.20817108 713.4581285 722.8125 712.1875 C742.02533274 696.79318018 760.73746268 680.39720462 776 661 C777.57610627 659.0608171 779.16011046 657.12822645 780.74389648 655.1953125 C795.96005221 636.59462048 810.24893373 617.38067954 823 597 C823.57113525 596.09531982 823.57113525 596.09531982 824.15380859 595.17236328 C831.48867723 583.50575204 837.7435215 571.26894114 844 559 C844.40702148 558.20255371 844.81404297 557.40510742 845.23339844 556.58349609 C850.93886894 545.37158314 856.30673711 534.1396489 860.69140625 522.3359375 C861.70909687 519.74158588 862.78724083 517.22662059 863.9375 514.69140625 C866.01476092 510.05949845 867.77270569 505.35630532 869.4375 500.5625 C869.73897949 499.69705566 870.04045898 498.83161133 870.35107422 497.93994141 C873.04216237 490.09272264 875.29292014 482.16373342 877.41601562 474.14746094 C877.96986178 472.11082599 878.56161276 470.09066571 879.171875 468.0703125 C894.34376805 417.26586149 897.74962954 364.01956847 895.16210938 311.31787109 C895.05653579 309.15711058 894.9584943 306.99596466 894.86914062 304.83447266 C894.2218423 289.81292991 892.23039981 275.22517805 889.625 260.4375 C889.4781073 259.60304352 889.3312146 258.76858704 889.17987061 257.90884399 C886.5218578 242.95581719 883.49276492 228.05083088 879.5625 213.375 C879.35423584 212.5919751 879.14597168 211.8089502 878.93139648 211.00219727 C876.84517049 203.26130388 874.48734657 195.62022624 872 188 C871.76667969 187.2795752 871.53335938 186.55915039 871.29296875 185.81689453 C860.31819743 152.00491526 845.22624845 119.97349797 827.25 89.3125 C826.71906738 88.40363037 826.18813477 87.49476074 825.64111328 86.55834961 C822.402048 81.10273559 818.9016684 76.00066147 815 71 C810.09542263 75.1141896 805.47561587 79.38559341 800.96535969 83.92555904 C800.28988518 84.60137769 799.61441068 85.27719633 798.91846725 85.97349432 C796.66039298 88.23393047 794.40594015 90.4979437 792.15144348 92.76194763 C790.51505451 94.4014818 788.87843628 96.04078717 787.2416088 97.67988354 C783.68583429 101.24156525 780.13167271 104.80484617 776.57873154 108.36935425 C771.29558566 113.669682 766.00964607 118.96721505 760.72291194 124.26396345 C752.37357098 132.62918141 744.02584026 140.99600385 735.67912869 149.3638453 C722.43696967 162.63940017 709.18904357 175.90918852 695.9390995 189.17697294 C693.11872519 192.00115797 690.29840288 194.82539494 687.47807437 197.64962572 C684.05459248 201.07783539 680.63110574 204.5060402 677.20760322 207.93422927 C664.30508358 220.85444347 651.40326336 233.77535589 638.50219727 246.69702148 C637.9127428 247.28741263 637.32328833 247.87780378 636.71597161 248.48608557 C617.57842708 267.65414174 598.44774162 286.82902843 579.32004338 306.00690965 C559.65569855 325.72275193 539.98309046 345.43031453 520.30052014 365.1279628 C517.52392784 367.90669624 514.74743785 370.68553189 511.97101402 373.46443367 C511.15136543 374.28480769 511.15136543 374.28480769 510.31515828 375.12175492 C501.50652921 383.9386986 492.70682676 392.76450032 483.9104916 401.59370737 C475.08074688 410.45611416 466.24211564 419.30957574 457.39417581 428.15381788 C452.59732983 432.94917454 447.80501856 437.74886744 443.02327728 442.55929184 C438.65278406 446.9558349 434.27110536 451.34088673 429.87993344 455.71677376 C428.28686276 457.30841553 426.6980856 458.90436771 425.11389194 460.50484519 C422.97288816 462.66664556 420.8173158 464.81273579 418.65711689 466.95532894 C418.03430508 467.59156166 417.41149327 468.22779439 416.76980838 468.88330689 C415.0279029 470.59193891 415.0279029 470.59193891 412 473 C408.80694735 472.71063525 407.15710544 471.53147482 404.93428361 469.30457777 C404.35100659 468.72753018 403.76772957 468.15048259 403.16677749 467.5559487 C402.53451472 466.9152332 401.90225195 466.27451769 401.2508297 465.61438656 C400.56977566 464.93619487 399.88872163 464.25800317 399.1870296 463.55926022 C396.88712985 461.26533658 394.59816905 458.96079339 392.30892944 456.65623474 C390.65350138 455.00068282 388.99741146 453.34579248 387.3407141 451.69151074 C383.25432497 447.60766152 379.17498249 443.51686724 375.09846812 439.42316291 C370.21692308 434.52183517 365.32666605 429.62923569 360.4360093 424.73700255 C351.40973575 415.70737058 342.39032994 406.67090828 333.37464523 397.63070488 C324.44476504 388.67664239 315.51136744 379.72611141 306.57338333 370.78013802 C306.01802348 370.2242817 305.46266363 369.66842538 304.89047469 369.09572493 C302.0701352 366.2729148 299.24972178 363.45017855 296.42927285 360.62747777 C290.69357658 354.88716548 284.95836634 349.14636763 279.22330666 343.40541935 C278.36207929 342.54330806 278.36207929 342.54330806 277.48345339 341.66378038 C263.81293337 327.97898264 250.14736265 314.28924551 236.48242188 300.59887695 C235.88438302 299.99972792 235.28634416 299.40057889 234.67018292 298.78327382 C229.82445503 293.92854985 224.97873963 289.07381342 220.13304461 284.21905665 C206.17533633 270.23526214 192.21641311 256.2526808 178.25683594 242.27075195 C177.65881175 241.67176706 177.06078756 241.07278216 176.44464142 240.45564621 C162.79901773 226.78814054 149.15235405 213.12167481 135.50310707 199.45778751 C134.92992863 198.88399269 134.3567502 198.31019787 133.76620272 197.71901532 C128.04506289 191.99175509 122.32378724 186.26463059 116.60228569 180.53773173 C104.29480837 168.21854645 91.99037871 155.89633751 79.69192442 143.56814397 C70.72960177 134.5842005 61.7639941 125.60354761 52.79486369 116.62640052 C47.9313015 111.75826061 43.06944496 106.88844413 38.21211815 102.01408195 C33.77292684 97.55960885 29.32924977 93.10966429 24.88183649 88.66340054 C23.26644203 87.04676007 21.65277484 85.4283916 20.04093604 83.80820601 C17.86433002 81.62079598 15.68176847 79.43951475 13.49748802 77.2597723 C12.86054292 76.61671563 12.22359781 75.97365895 11.56735134 75.31111571 C8.80086198 72.10117426 8.80086198 72.10117426 5 71 Z " fill="#FDFEFE" transform="translate(2591,1556)"/>
<path d="M0 0 C2.67542229 1.52021544 4.59156857 3.38060394 6.76947039 5.56004977 C7.24304485 6.0298631 7.71661931 6.49967643 8.20454451 6.98372653 C9.79871158 8.56890957 11.38190882 10.1646188 12.96541899 11.7604425 C14.11406314 12.90706332 15.26336427 14.05302632 16.41326702 15.19838494 C19.57854113 18.35498601 22.73434867 21.52090744 25.88872916 24.68838942 C29.28969697 28.10023007 32.69928621 31.50343539 36.10782927 34.90770507 C42.78810872 41.5823419 49.46036687 48.26494276 56.1300262 54.95018996 C63.89698499 62.73466677 71.67197678 70.51109939 79.44737037 78.28714972 C93.32381696 92.16528578 107.1931804 106.05047888 121.05848235 119.93974853 C134.51073223 133.41523522 147.96749992 146.88618756 161.4295761 160.3518579 C162.25793915 161.18044372 163.0863022 162.00902954 163.93976716 162.86272401 C165.6085399 164.53193935 167.27731292 166.2011544 168.94608624 167.87036916 C169.76929768 168.69380017 170.59250913 169.51723119 171.44066638 170.36561465 C172.2618072 171.18697146 173.08294803 172.00832827 173.92897191 172.85457468 C186.75630549 185.68561268 199.57980917 198.52047791 212.40278852 211.3558672 C217.04917022 216.00668018 221.69604746 220.65699738 226.34326968 225.30697048 C233.71925887 232.68739884 241.09356493 240.06950047 248.46450076 247.45497597 C251.83219546 250.82926316 255.20064305 254.20278882 258.5712406 257.57417655 C261.65949885 260.66322494 264.74542234 263.75458627 267.82952651 266.84778195 C268.94306645 267.96381851 270.05743126 269.07903283 271.17272256 270.19331921 C276.43955083 275.45631959 281.64910569 280.72712132 286.46755874 286.41015881 C289.12750826 289.46749621 292.04540492 292.26880905 294.93958586 295.10210204 C302.25529759 302.33399882 302.25529759 302.33399882 305.37708586 306.03960204 C309.40005289 310.80337118 313.89920491 315.11113093 318.34754485 319.47295165 C321.35078108 322.43548196 324.24766163 325.41890056 326.97083586 328.6421411 C331.26818392 333.57967677 335.92536409 338.13943463 340.59966582 342.71508574 C342.74111566 344.81390533 344.87277166 346.92256209 347.00517577 349.03056502 C350.95936384 352.93922782 354.91762016 356.84357423 358.8917343 360.73198485 C361.6726789 363.45369773 364.44139017 366.1873333 367.20229644 368.92936492 C368.25362719 369.96894094 369.30948161 371.00396258 370.36986846 372.03429961 C371.84421797 373.46783539 373.30248218 374.91603229 374.75794524 376.3687036 C375.59176726 377.18840636 376.42558928 378.00810912 377.28467864 378.85265136 C378.93958586 381.10210204 378.93958586 381.10210204 378.70950717 383.05365539 C377.86107317 385.3109923 376.97780499 386.43419069 375.27575225 388.12669921 C374.71062926 388.69594619 374.14550627 389.26519317 373.56325835 389.85169005 C372.94035414 390.46380843 372.31744994 391.07592681 371.67566985 391.70659423 C371.0220346 392.36066756 370.36839934 393.0147409 369.69495696 393.68863463 C367.53223261 395.84926862 365.35907527 397.99908208 363.18567961 400.14897704 C361.6842997 401.64476192 360.18358066 403.14121042 358.68349761 404.63829589 C354.73300613 408.5773315 350.77358839 412.50727524 346.81226653 416.43541503 C342.77181964 420.44517729 338.73984902 424.46344255 334.70716399 428.48100829 C326.79292698 436.36306801 318.86923725 444.23555209 310.93958586 452.10210204 C307.17248594 448.9150848 303.4450624 445.73236255 299.95130461 442.24321532 C299.2536801 441.54874297 298.55605559 440.85427062 297.83729094 440.13875365 C297.10792327 439.40736175 296.37855559 438.67596984 295.62708586 437.92241454 C294.8545346 437.15082 294.08198333 436.37922545 293.28602141 435.58424926 C291.66117603 433.96008096 290.0375791 432.33466281 288.4151718 430.70805907 C285.95046332 428.2380031 283.48047431 425.77331897 281.00989836 423.30913329 C279.42364023 421.72221415 277.83769243 420.13498472 276.25208586 418.54741454 C275.52271819 417.8200711 274.79335051 417.09272765 274.04188079 416.3433435 C270.03988843 412.32326845 266.20598344 408.21589814 262.52039641 403.90309691 C259.81255616 400.8180932 256.87134756 397.97218515 253.93958586 395.10210204 C246.62387414 387.87020527 246.62387414 387.87020527 243.50208586 384.16460204 C239.47911884 379.4008329 234.97996681 375.09307315 230.53162688 370.73125243 C227.48711031 367.72800131 224.54916383 364.69657151 221.77466029 361.44078612 C217.66856396 356.7239175 213.28800898 352.31461534 208.85964507 347.90190673 C207.96753323 347.00894047 207.0754214 346.11597421 206.15627587 345.19594836 C203.70018518 342.73763802 201.24101519 340.28242907 198.78129774 337.8277483 C196.12177008 335.17256154 193.46515613 332.51446219 190.80817717 329.85672545 C186.21107114 325.25909649 181.61214585 320.66329389 177.01196021 316.06874633 C170.36096435 309.42589674 163.71274977 302.78026931 157.06519865 296.13397276 C146.27845821 285.34941793 135.48948908 274.56709557 124.69910735 263.78618407 C114.22071846 253.31698201 103.74338619 242.84672436 93.26746672 232.37505126 C92.62112775 231.72897501 91.97478877 231.08289876 91.30886377 230.41724443 C88.06619752 227.17588328 84.82355197 223.93450142 81.5809167 220.69310927 C54.70368037 193.82623026 27.82282234 166.96297718 0.93958586 140.10210204 C-2.17242213 141.4859291 -4.29034207 143.08294011 -6.69169694 145.48728919 C-7.39982365 146.1914338 -8.10795035 146.89557841 -8.83753544 147.62106073 C-9.9931793 148.78544312 -9.9931793 148.78544312 -11.17216951 149.97334838 C-11.99638123 150.79585125 -12.82059295 151.61835413 -13.66978079 152.46578133 C-15.95610337 154.74937751 -18.23787752 157.03740889 -20.51781756 159.32737422 C-22.97768478 161.79587292 -25.44332353 164.25859474 -27.90826875 166.72202086 C-32.17802762 170.9907307 -36.44410739 175.26308909 -40.70771486 179.53794265 C-46.87219009 185.7186673 -53.04217613 191.89386636 -59.21352407 198.06772785 C-69.22581105 208.0843928 -79.23362292 218.10551657 -89.23863679 228.12944579 C-98.95797393 237.86713907 -108.67940803 247.60273097 -118.40367585 257.33550048 C-119.30267868 258.23529147 -119.30267868 258.23529147 -120.21984318 259.15326007 C-123.22652455 262.1625515 -126.23324726 265.17180163 -129.23999053 268.18103123 C-154.18654422 293.14832062 -179.12584214 318.12284687 -204.06041414 343.10210204 C-198.43412854 349.96629627 -192.1498942 356.14913314 -185.87379915 362.40897155 C-184.62271773 363.66048938 -183.37185623 364.91222709 -182.12119502 366.16416484 C-178.69371814 369.59387285 -175.26313927 373.02046317 -171.83203751 376.44654429 C-168.12886443 380.1453932 -164.42858761 383.84713751 -160.72795564 387.54852843 C-154.31922603 393.95778203 -147.9086701 400.36520422 -141.49686509 406.77138114 C-132.22650783 416.03360648 -122.95891774 425.29859653 -113.69199763 434.56426061 C-98.65643993 449.59763045 -83.61865108 464.62876643 -68.5794571 479.65849853 C-53.97151381 494.25726082 -39.36462265 508.85707451 -24.7591446 523.45830321 C-23.85864828 524.35853681 -22.95815196 525.25877041 -22.03036787 526.18628382 C-17.51278495 530.70256169 -12.9952227 535.21886023 -8.47767073 539.73516905 C28.99154396 577.19401943 66.46438057 614.64924495 103.93958586 652.10210204 C103.0057217 653.20248857 102.07026445 654.30152319 101.13416404 655.40000796 C100.61340761 656.01218175 100.09265118 656.62435554 99.55611426 657.25508004 C96.98775751 660.18964738 94.24047082 662.93226031 91.4752304 665.6799829 C90.85987929 666.29548003 90.24452819 666.91097716 89.61053008 667.54512572 C87.60018376 669.55478202 85.58633175 671.56088478 83.57239836 673.56694579 C82.16827926 674.96919748 80.76438251 676.37167185 79.36069793 677.77435851 C75.68374207 681.44751472 72.00379195 685.11765658 68.32319182 688.78716063 C64.5606835 692.53939971 60.80104008 696.29450697 57.04114836 700.04936767 C49.67674837 707.4030754 42.3091792 714.75359912 34.93958586 722.10210204 C30.16542176 718.11738643 25.6547435 713.96022787 21.2685892 709.5541532 C20.63243728 708.91915513 19.99628536 708.28415705 19.34085611 707.62991661 C17.21661089 705.50831154 15.09594191 703.38316841 12.97524565 701.25801635 C11.4349919 699.71819882 9.89451834 698.17860114 8.35384429 696.63920414 C4.12602489 692.41361945 -0.09867229 688.18492522 -4.32286566 683.95571613 C-8.8806209 679.39364192 -13.44126623 674.83445852 -18.00156099 670.27492309 C-25.90056557 662.37661551 -33.79758226 654.47632391 -41.69340783 646.5748384 C-49.97320795 638.28911835 -58.25404391 630.00443579 -66.53626138 621.72113204 C-67.0515012 621.20582348 -67.56674103 620.69051491 -68.09759418 620.15959094 C-70.71431349 617.54253329 -73.33105127 614.92549412 -75.94779617 612.30846207 C-94.47521104 593.7789476 -113.00030707 575.24711645 -131.52403718 556.71391845 C-149.51797904 538.71079011 -167.51297254 520.708714 -185.50938874 502.70805907 C-186.06425686 502.15305943 -186.61912498 501.59805979 -187.19080728 501.02624197 C-192.76309525 495.45263547 -198.33540459 489.87905032 -203.90772958 484.30548082 C-215.25888353 472.95179075 -226.60989489 461.59795813 -237.96082002 450.2440393 C-238.48270087 449.72202116 -239.00458172 449.20000302 -239.54227714 448.66216615 C-274.38404523 413.81119963 -309.22247903 378.95690007 -344.06041414 344.10210204 C-342.44120582 340.04522564 -339.55784433 337.31788509 -336.51558572 334.29721141 C-335.94042937 333.71824938 -335.36527301 333.13928736 -334.77268767 332.54278103 C-332.83288876 330.59262768 -330.88600909 328.64969997 -328.93910676 326.70664001 C-327.53737892 325.30046189 -326.13608324 323.89385287 -324.73518437 322.48684889 C-320.87542594 318.61287545 -317.00939388 314.74521576 -313.14230257 310.878564 C-308.9764393 306.71105567 -304.81629204 302.53784801 -300.65535432 298.36542296 C-292.0272185 289.71560727 -283.39253673 281.0723474 -274.75594365 272.43097729 C-274.28652441 271.96129688 -273.81710517 271.49161646 -273.33346111 271.0077033 C-272.62794651 270.30179829 -272.62794651 270.30179829 -271.90817908 269.58163257 C-266.69913405 264.36950683 -261.49180195 259.1556707 -256.28453141 253.94177222 C-240.56366991 238.20126484 -224.84119008 222.46237853 -209.11191446 206.73027873 C-208.60877487 206.22704509 -208.10563529 205.72381144 -207.58724905 205.2053283 C-205.5481723 203.16587306 -203.50908831 201.12642506 -201.47000256 199.08697882 C-199.93519663 197.55190117 -198.40039318 196.01682104 -196.86558992 194.48174071 C-196.10485336 193.72087212 -196.10485336 193.72087212 -195.32874838 192.94463244 C-179.38238978 176.99536636 -163.44566509 161.03652688 -147.51598054 145.0706079 C-129.62908376 127.14302597 -111.73373311 109.22393915 -93.8266322 91.31653696 C-91.91903266 89.40884059 -90.01146806 87.50110927 -88.10392839 85.59335303 C-87.63421992 85.12360045 -87.16451145 84.65384786 -86.68056939 84.16986035 C-79.57760223 77.06584092 -72.48146441 69.9550468 -65.38881761 62.84072471 C-57.32783882 54.75531945 -49.25841467 46.67846592 -41.17766424 38.61281886 C-37.05138674 34.49374521 -32.92933718 30.37065405 -28.81795961 26.23670363 C-25.05976975 22.45807716 -21.29039732 18.69100748 -17.51148717 14.93310604 C-16.14102043 13.56616364 -14.77483376 12.19491498 -13.41322978 10.81914421 C-11.57234926 8.96033927 -9.71699165 7.11736178 -7.85692483 5.27778697 C-7.32252713 4.7308259 -6.78812943 4.18386482 -6.23753786 3.62032917 C-2.66458891 0.1320414 -2.66458891 0.1320414 0 0 Z " fill="#016FB9" transform="translate(3002.060414135456,1003.8978979587555)"/>
<path d="M0 0 C22.48253456 18.01291259 34.14464871 44.90615944 37.47583008 73.06396484 C41.05895302 108.26982289 37.53672645 146.58712122 14.90185547 175.21484375 C-0.48568852 193.89686377 -22.14358706 205.33885174 -46.1015625 208.27734375 C-72.85941226 210.55640351 -98.11945859 205.10447198 -119.50390625 188.28125 C-142.40839073 168.76636596 -153.04713364 141.03829734 -155.60913086 111.63574219 C-157.86655266 78.50561781 -154.66273345 41.53647214 -132.62109375 14.9453125 C-130.40329423 12.44183033 -128.12643878 10.01200027 -125.81640625 7.59375 C-125.27628906 6.97886719 -124.73617187 6.36398438 -124.1796875 5.73046875 C-93.65164784 -27.71965027 -34.14017976 -26.27568398 0 0 Z " fill="#000000" transform="translate(2373.81640625,2692.40625)"/>
<path d="M0 0 C21.83460886 18.18129831 33.19732605 45.20040712 35.93823242 73.09326172 C36.08851971 76.05974757 36.12511692 79.02172756 36.14135742 81.99169922 C36.1470575 82.82553131 36.15275757 83.6593634 36.15863037 84.51846313 C36.16802639 86.27824662 36.17459271 88.03804726 36.1784668 89.79785156 C36.18808008 92.42660307 36.21911652 95.05453985 36.25073242 97.68310547 C36.4493478 129.34894947 27.49647665 159.35894028 5.06323242 182.40576172 C-0.13496513 187.55375502 -5.63966784 191.55380902 -12.06176758 195.09326172 C-13.39208008 195.87443359 -13.39208008 195.87443359 -14.74926758 196.67138672 C-37.6193987 209.24995883 -66.13564006 209.98278008 -90.85083008 203.02685547 C-116.50012298 194.41074045 -133.81621476 177.65139766 -146.31176758 154.21826172 C-155.04947428 135.91990642 -157.5994284 116.28404444 -157.45288086 96.20703125 C-157.43677434 93.59435874 -157.45285356 90.98323223 -157.47192383 88.37060547 C-157.5101761 58.05096768 -149.0598804 27.83440857 -127.81176758 5.34326172 C-93.55940117 -27.01277991 -36.8108708 -29.55663709 0 0 Z " fill="#000000" transform="translate(2829.061767578125,2693.90673828125)"/>
<path d="M0 0 C3.39988432 1.47149705 5.61484706 3.36601566 8.22474289 5.97864723 C9.48548649 7.23341769 9.48548649 7.23341769 10.77169967 8.51353705 C11.68998494 9.43764801 12.60827022 10.36175897 13.55438232 11.31387329 C14.54323507 12.30185401 15.53252715 13.28939517 16.52222085 14.27653348 C19.24267277 16.99250726 21.95683894 19.71468819 24.67003703 22.43790579 C27.5961693 25.3726635 30.52806725 28.30165099 33.45927429 31.2313385 C38.53770747 36.30872226 43.61246179 41.3897592 48.68474579 46.47328568 C56.01844889 53.82323301 63.35765906 61.16766085 70.69823125 68.51074712 C82.60726057 80.42415523 94.51181538 92.34202415 106.41357422 104.26269531 C117.97601144 115.84348656 129.5405444 127.42217836 141.10791016 138.99804688 C141.82075121 139.71141337 142.53359225 140.42477987 143.26803455 141.15976353 C146.84411064 144.73844967 150.42022806 148.31709451 153.99636602 151.89571881 C183.67065419 181.59074522 213.33768867 211.29301025 243 241 C242.06463992 242.10091564 241.1278673 243.20063124 240.19052315 244.29985809 C239.66901401 244.91239425 239.14750487 245.52493041 238.61019242 246.15602827 C236.08295171 249.05019195 233.39650223 251.7754849 230.69091797 254.50195312 C230.09174561 255.10930298 229.49257324 255.71665283 228.87524414 256.34240723 C226.91720827 258.32499969 224.95527219 260.30365712 222.9921875 262.28125 C222.31866367 262.9600975 221.64513985 263.63894501 220.95120621 264.33836365 C217.39662008 267.91953044 213.83847029 271.49711685 210.27783203 275.07226562 C207.33198991 278.0315262 204.39361746 280.99791736 201.46142578 283.97070312 C197.91233818 287.5689062 194.35132072 291.15486869 190.78116226 294.73216248 C189.42370065 296.09635672 188.07051335 297.46481777 186.72167587 298.83753967 C184.84268212 300.74793764 182.94875926 302.64218331 181.05029297 304.53320312 C180.49435455 305.10554688 179.93841614 305.67789062 179.3656311 306.26757812 C177.79440308 307.81359863 177.79440308 307.81359863 175 310 C171.22105543 309.75795706 169.36722418 307.74044309 166.77525711 305.1444006 C165.93476137 304.30987801 165.09426564 303.47535541 164.22830033 302.61554426 C162.85087242 301.22500856 162.85087242 301.22500856 161.44561768 299.80638123 C160.45697824 298.81904954 159.46768001 297.83237717 158.47777915 296.8463102 C155.75505681 294.13031068 153.04180178 291.40502038 150.32996297 288.67815983 C147.40563344 285.74090011 144.47266539 282.81228921 141.54072571 279.88262939 C136.46065026 274.80412859 131.3861056 269.72015473 126.31525421 264.63244438 C118.98360983 257.27644048 111.64371599 249.92871401 104.30176875 242.58299495 C92.39077984 230.66543677 80.48650872 218.74119157 68.58642578 206.81274414 C57.02515814 195.22394824 45.46075036 183.63830084 33.89208984 172.05688477 C33.17924879 171.34325555 32.46640775 170.62962633 31.73196545 169.89437198 C28.15590656 166.31439803 24.57978568 162.73448602 21.00363398 159.15460479 C-8.67386116 129.44599893 -38.34047035 99.726541 -68 70 C-66.66584386 67.23828543 -65.43133697 65.18254861 -63.25387573 63.0133667 C-62.69579224 62.45253387 -62.13770874 61.89170105 -61.56271362 61.31387329 C-60.95275543 60.71110565 -60.34279724 60.10833801 -59.71435547 59.48730469 C-59.07032776 58.84298492 -58.42630005 58.19866516 -57.76275635 57.53482056 C-55.63560693 55.40906302 -53.50146388 53.29047492 -51.3671875 51.171875 C-49.88987407 49.69829219 -48.41300196 48.22426682 -46.93655396 46.74981689 C-43.05129631 42.87219179 -39.16006971 39.00061059 -35.26757812 35.13024902 C-31.29586322 31.17900061 -27.329811 27.22207739 -23.36328125 23.265625 C-15.5810588 15.50484579 -7.79252001 7.75043852 0 0 Z " fill="#0270B9" transform="translate(3000,1278)"/>
<path d="M0 0 C2.09083783 0.01605343 4.17972862 0.00006209 6.27050781 -0.01904297 C30.71759713 -0.0593091 53.03815992 7.06473629 70.72363281 24.39111328 C71.35140625 24.98279297 71.97917969 25.57447266 72.62597656 26.18408203 C85.31166239 39.21495659 89.38641648 58.00730091 90.72363281 75.39111328 C73.89363281 75.39111328 57.06363281 75.39111328 39.72363281 75.39111328 C38.40363281 70.77111328 37.08363281 66.15111328 35.72363281 61.39111328 C32.41718212 53.00689902 27.27498857 47.66772065 18.97363281 43.95361328 C9.09749735 40.76286182 -5.6789004 40.09755872 -15.11621094 44.89111328 C-28.83849059 54.41978486 -34.59019435 68.18505314 -37.56542969 84.03564453 C-38.60829161 90.15615607 -39.13457001 96.18286303 -39.27636719 102.39111328 C-39.30706299 103.63803955 -39.30706299 103.63803955 -39.33837891 104.91015625 C-40.18239162 142.57033969 -40.18239162 142.57033969 -23.58886719 175.25048828 C-14.19957584 184.03121445 -1.47303894 185.90123736 10.91894531 185.71142578 C15.14196502 185.35589435 19.11093464 184.6366587 23.22363281 183.64111328 C23.88186035 183.48433105 24.54008789 183.32754883 25.21826172 183.16601562 C29.7304582 181.96391577 33.17682222 180.4335131 36.72363281 177.39111328 C37.34322249 174.45168279 37.5647351 172.28513556 37.52832031 169.34423828 C37.5487439 168.3182251 37.5487439 168.3182251 37.56958008 167.27148438 C37.61156171 164.7283554 37.60206561 162.18458643 37.59863281 159.64111328 C37.63988281 153.94861328 37.68113281 148.25611328 37.72363281 142.39111328 C25.51363281 142.39111328 13.30363281 142.39111328 0.72363281 142.39111328 C0.72363281 130.51111328 0.72363281 118.63111328 0.72363281 106.39111328 C30.75363281 106.39111328 60.78363281 106.39111328 91.72363281 106.39111328 C91.90925781 121.24111328 92.09488281 136.09111328 92.28613281 151.39111328 C92.40903687 158.408125 92.40903687 158.408125 92.53442383 165.56689453 C92.57507324 171.30712891 92.57507324 171.30712891 92.58262634 173.99975586 C92.59639079 175.86876745 92.62793138 177.73770213 92.67381287 179.60620117 C93.04165033 195.38349242 93.04165033 195.38349242 89.76998901 200.3669281 C87.50967616 202.40962144 85.37910677 203.91615908 82.72363281 205.39111328 C81.69238281 206.14521484 80.66113281 206.89931641 79.59863281 207.67626953 C49.71159328 226.15263229 10.40196685 232.58031251 -23.89355469 224.54345703 C-47.43032545 218.18286362 -66.85263575 205.12659684 -79.34667969 183.92626953 C-98.13599065 150.3262332 -99.24777297 103.09828553 -88.88574219 66.40234375 C-83.8083627 49.64455038 -75.69845571 35.66641198 -63.27636719 23.39111328 C-62.62023438 22.72466797 -61.96410156 22.05822266 -61.28808594 21.37158203 C-45.08291405 5.99922411 -21.7679226 -0.19770586 0 0 Z " fill="#000000" transform="translate(2542.2763671875,2673.60888671875)"/>
<path d="M0 0 C12.21 0 24.42 0 37 0 C41.49625616 8.99251232 41.49625616 8.99251232 43.26196289 13.46948242 C43.88777504 15.04588249 43.88777504 15.04588249 44.52622986 16.65412903 C44.98292557 17.81369614 45.43962128 18.97326324 45.91015625 20.16796875 C46.98149995 22.86966787 48.05565227 25.5702495 49.12939453 28.27099609 C49.42528064 29.01621804 49.72116674 29.76143999 50.0260191 30.52924442 C53.90516843 40.29287581 57.83293108 50.03698751 61.75571823 59.7831459 C63.60152368 64.36953604 65.44605978 68.95643627 67.29064369 73.54331779 C70.62855188 81.84358784 73.96701011 90.14363624 77.30688477 98.44311523 C87.96366707 124.92599916 98.60617548 151.41258084 109 178 C112.00146372 172.19018312 114.57601652 166.32332147 116.97680664 160.2434082 C117.35369314 159.29758314 117.73057964 158.35175808 118.11888695 157.37727165 C118.93567009 155.32645428 119.75088499 153.27501177 120.56469536 151.22301292 C122.33203612 146.76701337 124.10718133 142.31413559 125.88184071 137.86104679 C126.8206451 135.50518684 127.75906366 133.14917311 128.6971159 130.79301357 C133.3663101 119.06806922 138.07131585 107.35763219 142.78263474 95.64956284 C144.18511221 92.16419516 145.58698633 88.67858539 146.98867798 85.19290161 C150.774776 75.77803557 154.56186076 66.36356675 158.34985352 56.94946289 C160.72092098 51.0566275 163.09103179 45.16340809 165.46055794 39.26995277 C166.34641157 37.06721662 167.23262481 34.86462504 168.11923027 32.66219139 C169.34788227 29.61003442 170.5753129 26.55738881 171.80249023 23.50463867 C172.15517471 22.62940048 172.50785919 21.75416229 172.87123108 20.85240173 C175.65306162 13.92664219 178.31976761 6.9686042 181 0 C193.87 0 206.74 0 220 0 C220 72.93 220 145.86 220 221 C210.1 221 200.2 221 190 221 C189.94000883 207.25002373 189.8978324 193.50008989 189.875 179.75 C189.87328796 178.72502285 189.87157593 177.7000457 189.86981201 176.64400864 C189.81819481 141.60904569 190.42431607 106.64954725 191.69290161 71.63949585 C191.99277989 63.08810584 192.12180786 54.5561562 192 46 C181.3728398 71.80437204 170.8637511 97.65491217 160.41893005 123.53358459 C156.7049376 132.73436974 152.97929557 141.93040887 149.25 151.125 C148.64713023 152.61165154 148.04426561 154.09830517 147.44140625 155.58496094 C144.96067997 161.7020486 142.47923701 167.81884544 139.99755859 173.93554688 C138.30282175 178.11265956 136.60841992 182.28990801 134.91418457 186.46722412 C133.97530019 188.78181291 133.03600212 191.09623349 132.09667969 193.41064453 C128.37024642 202.59623278 124.67473182 211.79359425 121 221 C113.41 221 105.82 221 98 221 C90.92548756 204.01571773 83.95392503 186.99222504 77.06271362 169.93276978 C70.31968927 153.24107082 63.53282457 136.56749482 56.73239136 119.89910889 C51.60262458 107.32451132 46.48608596 94.74487734 41.41015625 82.1484375 C40.74345917 80.49478432 40.74345917 80.49478432 40.06329346 78.807724 C37.9471055 73.55784838 35.83381291 68.30683667 33.72509766 63.05395508 C32.97697581 61.19609095 32.22877113 59.33826017 31.48046875 57.48046875 C31.13991959 56.62911346 30.79937042 55.77775818 30.44850159 54.90060425 C29.17114643 51.17869 29.17114643 51.17869 27 48 C26.87938798 58.19925373 27.03975191 68.36617103 27.4375 78.55859375 C28.7274349 112.21597648 29.18105768 145.81712357 29.125 179.5 C29.12328796 180.53457714 29.12157593 181.56915428 29.11981201 182.63508224 C29.0970588 195.42346791 29.05531265 208.21171608 29 221 C19.43 221 9.86 221 0 221 C0 148.07 0 75.14 0 0 Z " fill="#000000" transform="translate(3524,2677)"/>
<path d="M0 0 C9.9 0 19.8 0 30 0 C34.44407002 6.34867146 38.8070668 12.68073855 43 19.1875 C44.13781649 20.94544477 45.27584586 22.70325179 46.4140625 24.4609375 C47.0009082 25.36811523 47.58775391 26.27529297 48.19238281 27.20996094 C51.24251561 31.91781042 54.30908452 36.61491965 57.375 41.3125 C58.64324497 43.25650011 59.91147404 45.20051059 61.1796875 47.14453125 C61.81100586 48.11213379 62.44232422 49.07973633 63.09277344 50.07666016 C66.22916008 54.88401981 69.36453396 59.69203988 72.5 64.5 C73.74999503 66.41666991 74.99999504 68.33333657 76.25 70.25 C97.5 102.83333333 118.75 135.41666667 140 168 C140.33 112.56 140.66 57.12 141 0 C150.57 0 160.14 0 170 0 C170 72.93 170 145.86 170 221 C160.43 221 150.86 221 141 221 C131.22983621 209.41537722 131.22983621 209.41537722 128.61328125 203.98046875 C125.04241935 196.9342436 120.84281051 190.48436303 116.4375 183.9375 C115.00542796 181.75110819 113.57701378 179.56231596 112.15234375 177.37109375 C111.45737793 176.30487793 110.76241211 175.23866211 110.04638672 174.14013672 C109.3710791 173.1038916 108.69577148 172.06764648 108 171 C106.730547 169.05333439 105.46101816 167.10671823 104.19140625 165.16015625 C102.34720376 162.3324925 100.50310444 159.50476187 98.65942383 156.67675781 C91.11808319 145.1101261 83.55830451 133.55555031 76 122 C67.74452291 109.37857402 59.48965621 96.75676249 51.25 84.125 C50.70907715 83.29589111 50.1681543 82.46678223 49.61083984 81.61254883 C43.39632476 72.08210029 37.20067414 62.53949868 31 53 C30.67 108.44 30.34 163.88 30 221 C20.1 221 10.2 221 0 221 C0 148.07 0 75.14 0 0 Z " fill="#000000" transform="translate(3069,2677)"/>
<path d="M0 0 C8.58 0 17.16 0 26 0 C31.62972119 13.9575576 37.08519108 27.97052809 42.43365479 42.03799438 C44.73597456 48.09312635 47.04386596 54.14613433 49.3515625 60.19921875 C49.58731365 60.81775412 49.8230648 61.43628948 50.06595993 62.07356834 C54.64736543 74.09281938 59.2627904 86.09881269 63.88769531 98.10137939 C71.67726106 118.31728526 79.41441734 138.55242012 87.09545898 158.80981445 C87.86700763 160.84457029 88.63857328 162.87931968 89.41015625 164.9140625 C89.78822922 165.91114731 90.16630219 166.90823212 90.55583191 167.93553162 C93.27241183 175.09503243 96.00592158 182.24793704 98.74609375 189.3984375 C99.50233644 191.37416408 100.25852256 193.34991231 101.01464844 195.32568359 C102.09138308 198.13919325 103.16914609 200.95228174 104.25061035 203.76397705 C105.22595592 206.2998871 106.19737162 208.83726955 107.16796875 211.375 C107.45755966 212.12445892 107.74715057 212.87391785 108.04551697 213.64608765 C110 218.77245271 110 218.77245271 110 221 C100.1 221 90.2 221 80 221 C77.39112368 213.88848267 74.78317916 206.77674387 72.18414307 199.66164398 C70.97358325 196.34845223 69.76131906 193.03590709 68.54492188 189.72485352 C67.14962003 185.92657668 65.76210595 182.1254964 64.375 178.32421875 C63.93752441 177.13664474 63.50004883 175.94907074 63.04931641 174.72550964 C62.64890137 173.62459488 62.24848633 172.52368011 61.8359375 171.3894043 C61.48063965 170.41899704 61.1253418 169.44858978 60.75927734 168.44877625 C60 166 60 166 60 163 C28.98 163 -2.04 163 -34 163 C-34.66 165.97 -35.32 168.94 -36 172 C-36.54895483 173.7815093 -37.1339184 175.55277985 -37.77172852 177.30444336 C-38.10870255 178.23828354 -38.44567657 179.17212372 -38.79286194 180.13426208 C-39.33045387 181.59727501 -39.33045387 181.59727501 -39.87890625 183.08984375 C-40.25103745 184.11557999 -40.62316864 185.14131622 -41.00657654 186.19813538 C-42.18667749 189.44651257 -43.37461451 192.69196259 -44.5625 195.9375 C-45.36441732 198.14370397 -46.16585441 200.35008256 -46.96679688 202.55664062 C-47.72874495 204.65119512 -48.4911002 206.74560156 -49.25390625 208.83984375 C-49.6143251 209.82935532 -49.97474396 210.81886688 -50.34608459 211.83836365 C-50.8468174 213.20602623 -50.8468174 213.20602623 -51.35766602 214.60131836 C-51.65141617 215.40468124 -51.94516632 216.20804413 -52.24781799 217.03575134 C-53 219 -53 219 -54 221 C-63.9 221 -73.8 221 -84 221 C-82.02302579 214.41008598 -79.98900333 208.0611487 -77.5078125 201.67578125 C-77.17008316 200.7974614 -76.83235382 199.91914154 -76.48439026 199.01420593 C-75.75246541 197.11195873 -75.01887568 195.21035145 -74.28378296 193.30932617 C-73.09320164 190.23026359 -71.90699773 187.14954558 -70.72192383 184.06835938 C-69.45681472 180.77915966 -68.19145593 177.49005861 -66.92481995 174.20144653 C-62.59281021 162.95301045 -58.29256261 151.69252792 -53.99624634 140.43041992 C-52.67594418 136.96971047 -51.35503421 133.50923359 -50.03393555 130.04882812 C-46.02892923 119.55815965 -42.02532521 109.06695726 -38.02354431 98.57505798 C-29.07116192 75.10437045 -20.10702095 51.63826848 -11.09597778 28.19003296 C-10.20380248 25.86839478 -9.31193283 23.54663912 -8.42037964 21.22476196 C-7.19278498 18.02833356 -5.96381979 14.83243592 -4.734375 11.63671875 C-4.18599724 10.20820084 -4.18599724 10.20820084 -3.62654114 8.75082397 C-3.29313217 7.88518829 -2.95972321 7.01955261 -2.61621094 6.12768555 C-2.18160553 4.99752266 -2.18160553 4.99752266 -1.73822021 3.8445282 C-1 2 -1 2 0 0 Z " fill="#000000" transform="translate(3370,2677)"/>
<path d="M0 0 C17.82 0 35.64 0 54 0 C54 59.4 54 118.8 54 180 C84.36 180 114.72 180 146 180 C146 193.53 146 207.06 146 221 C97.82 221 49.64 221 0 221 C0 148.07 0 75.14 0 0 Z " fill="#000000" transform="translate(2052,2677)"/>
<path d="M0 0 C45.87 0 91.74 0 139 0 C139 7.92 139 15.84 139 24 C103.03 24 67.06 24 30 24 C30 47.43 30 70.86 30 95 C61.35 95 92.7 95 125 95 C125 102.92 125 110.84 125 119 C93.65 119 62.3 119 30 119 C30 144.74 30 170.48 30 197 C66.63 197 103.26 197 141 197 C141 204.92 141 212.84 141 221 C94.47 221 47.94 221 0 221 C0 148.07 0 75.14 0 0 Z " fill="#000000" transform="translate(3808,2677)"/>
<path d="M0 0 C13.89732224 11.46459179 18.77537069 26.93213555 20.61401367 44.46484375 C22.3929189 69.98655423 24.63205342 104.78706925 6.66015625 125.484375 C-0.93298413 132.99724963 -9.40770089 137.11252653 -20.1875 137.5625 C-32.84555657 137.33043563 -41.07751946 133.42248054 -49.875 124.625 C-62.63075036 107.82259781 -63.41766355 86.1423391 -63.4375 65.9375 C-63.43883942 65.1349176 -63.44017883 64.33233521 -63.44155884 63.50543213 C-63.43721855 51.52712412 -62.93245295 40.02004351 -60.1875 28.3125 C-59.98253906 27.34699219 -59.77757813 26.38148438 -59.56640625 25.38671875 C-56.71333636 13.99216012 -50.12676533 4.18670056 -40.11328125 -1.9609375 C-28.17675745 -8.372556 -11.15331285 -7.82651208 0 0 Z " fill="#FEFEFE" transform="translate(2336.1875,2721.6875)"/>
<path d="M0 0 C9.20857204 7.47252977 14.74684227 18.99054909 16.97265625 30.42578125 C17.14104507 31.28585281 17.3094339 32.14592438 17.48292542 33.03205872 C19.18161892 42.53437037 19.31938823 51.97420198 19.21655273 61.60327148 C19.18741296 64.57136577 19.19604422 67.53768045 19.20898438 70.50585938 C19.19527733 84.71703956 19.12508528 100.19982004 12 112.9375 C11.47394165 113.92532471 11.47394165 113.92532471 10.93725586 114.93310547 C6.01512064 123.89314669 -0.70319302 131.90297504 -10.73046875 135.1875 C-20.87467925 137.45225397 -32.42256991 137.52584167 -41.5625 132.0625 C-54.01356188 123.51961851 -60.01601532 111.15830516 -62.83886719 96.70605469 C-67.50962572 70.22363041 -69.17014852 33.41484069 -54.5625 9.6875 C-49.46524708 2.49972817 -42.38696645 -4.39408982 -33.5234375 -6.171875 C-21.28026648 -7.86663376 -10.39533814 -6.99647997 0 0 Z " fill="#FEFEFE" transform="translate(2791.25,2722.625)"/>
<path d="M0 0 C0.66 0 1.32 0 2 0 C9.6037993 20.81605408 9.6037993 20.81605408 13.25 31.25 C14.76400598 35.58080784 16.31631247 39.88127732 18.0625 44.125 C20.01418718 48.87410548 21.61154861 53.73002412 23.21289062 58.60498047 C24.47997955 62.45822535 25.80245548 66.27303027 27.2578125 70.05859375 C28.178481 72.46686872 29.05804207 74.88887756 29.9375 77.3125 C30.27394531 78.23804687 30.61039063 79.16359375 30.95703125 80.1171875 C31.66688073 82.07924337 32.37244743 84.04285282 33.07421875 86.0078125 C33.42097656 86.97460938 33.76773438 87.94140625 34.125 88.9375 C34.43695312 89.81277344 34.74890625 90.68804688 35.0703125 91.58984375 C35.94414874 93.99262 35.94414874 93.99262 37.1171875 96.12890625 C38 98 38 98 38 101 C13.58 101 -10.84 101 -36 101 C-32.62674566 89.75581887 -32.62674566 89.75581887 -30.94921875 85.15234375 C-30.5833667 84.14316895 -30.21751465 83.13399414 -29.84057617 82.09423828 C-29.46006104 81.05251465 -29.0795459 80.01079102 -28.6875 78.9375 C-27.88498785 76.72541594 -27.08290582 74.51317579 -26.28125 72.30078125 C-25.89195312 71.22779785 -25.50265625 70.15481445 -25.1015625 69.04931641 C-23.60823703 64.91553202 -22.14351069 60.77204754 -20.6875 56.625 C-18.8233281 51.32149351 -16.93148377 46.02938896 -15 40.75 C-13.79738842 37.44281816 -12.61752402 34.12780558 -11.4375 30.8125 C-9.04771868 24.11674075 -6.59806794 17.46773086 -3.9375 10.875 C-2.49214333 7.28652827 -1.16561711 3.69112085 0 0 Z " fill="#FDFDFD" transform="translate(3382,2715)"/>
<path d="M0 0 C5.99070768 5.35079118 8.5797186 11.24990001 9.1640625 19.24462891 C10.23902352 42.11890352 10.23902352 42.11890352 2.75 51.375 C-2.71435862 57.02188417 -7.54113375 59.54264663 -15.4453125 60.03515625 C-23.82720063 59.91980917 -29.60043323 57.31862471 -35.625 51.4375 C-43.23384267 41.41549688 -43.18153357 29.02733954 -42 17 C-40.51065434 9.20957653 -36.9305549 3.25868376 -31 -2 C-21.27452192 -8.15285348 -8.76687961 -7.40186107 0 0 Z " fill="#0D76BD" transform="translate(3130,2938)"/>
<path d="M0 0 C32.16666667 0 32.16666667 0 38.875 5.25 C42.86689846 10.41598625 44.59479213 15.24780964 44.3515625 21.7265625 C43.53249308 27.02321138 41.21574044 30.84215196 37.375 34.5 C35 36 35 36 33 36 C34.76834165 39.39713643 36.54011256 42.79247287 38.3125 46.1875 C38.81201172 47.14720703 39.31152344 48.10691406 39.82617188 49.09570312 C40.31279297 50.02705078 40.79941406 50.95839844 41.30078125 51.91796875 C41.96847534 53.19837036 41.96847534 53.19837036 42.6496582 54.50463867 C43.6019037 56.26433876 44.61471706 57.99191141 45.66870117 59.69262695 C47 62 47 62 47 64 C43.7 64 40.4 64 37 64 C32.23587317 55.71719066 27.54406668 47.40652336 23 39 C19.04 39 15.08 39 11 39 C10.67 47.25 10.34 55.5 10 64 C6.7 64 3.4 64 0 64 C0 42.88 0 21.76 0 0 Z " fill="#157BBF" transform="translate(3787,2933)"/>
<path d="M0 0 C3.3 0 6.6 0 10 0 C12.23055711 2.2477682 13.1552511 3.57333341 14.5 6.3125 C15.30425003 7.76298878 16.11610357 9.20927562 16.93359375 10.65234375 C17.39491699 11.47976074 17.85624023 12.30717773 18.33154297 13.15966797 C21.42865208 18.43209516 24.89647281 23.46511345 28.31738281 28.53109741 C29.94725164 30.94478134 31.5708179 33.36264528 33.1917572 35.78233337 C34.25696547 37.37221867 35.32481638 38.9603325 36.39282227 40.54833984 C38 43 38 43 39 45 C39.33 30.15 39.66 15.3 40 0 C42.97 0 45.94 0 49 0 C49 21.12 49 42.24 49 64 C40 64 40 64 37.72265625 62.15625 C37.17480469 61.2796875 36.62695312 60.403125 36.0625 59.5 C35.08603516 57.99179688 35.08603516 57.99179688 34.08984375 56.453125 C33.39208569 55.30277615 32.69552719 54.15169906 32 53 C31.21205599 51.74327077 30.42159917 50.48811423 29.62890625 49.234375 C27.93854354 46.55099064 26.26392847 43.85855593 24.59765625 41.16015625 C21.98841702 36.95621665 19.29695701 32.81090358 16.5625 28.6875 C16.1495166 28.0594043 15.7365332 27.43130859 15.31103516 26.78417969 C13.36969649 23.8733745 11.4899004 21.4899004 9 19 C9 33.85 9 48.7 9 64 C6.03 64 3.06 64 0 64 C0 42.88 0 21.76 0 0 Z " fill="#0E76BD" transform="translate(2630,2933)"/>
<path d="M0 0 C2.64 0 5.28 0 8 0 C12.90402163 10.07558793 16.67748052 20.56504599 20.5625 31.0625 C21.55460964 33.73415963 22.54786616 36.40538754 23.54208374 39.07626343 C24.17635178 40.78019592 24.80969408 42.48447333 25.44204712 44.18911743 C27.32268956 49.24337183 29.27120727 54.2586862 31.38647461 59.22045898 C32 61 32 61 32 64 C29.03 64 26.06 64 23 64 C17 50.63106796 17 50.63106796 17 47 C4.625 47.495 4.625 47.495 -8 48 C-9.98 53.28 -11.96 58.56 -14 64 C-17.3 64 -20.6 64 -24 64 C-21.87043657 56.59507171 -19.37336195 49.42113199 -16.62109375 42.2265625 C-16.20835709 41.14039642 -15.79562042 40.05423035 -15.37037659 38.93515015 C-14.50387982 36.65713905 -13.63568608 34.37977277 -12.76586914 32.10302734 C-11.4340161 28.61587822 -10.1082124 25.12647326 -8.78320312 21.63671875 C-7.93785445 19.41653168 -7.09216339 17.19647493 -6.24609375 14.9765625 C-5.85022568 13.93488922 -5.4543576 12.89321594 -5.04649353 11.81997681 C-4.67593338 10.85151825 -4.30537323 9.88305969 -3.92358398 8.88525391 C-3.59954086 8.03605377 -3.27549774 7.18685364 -2.94163513 6.31192017 C-2.05904979 4.14498014 -1.07761292 2.0757557 0 0 Z " fill="#0E77BD" transform="translate(2191,2933)"/>
<path d="M0 0 C3.3 0 6.6 0 10 0 C10 8.91 10 17.82 10 27 C19.9 27 29.8 27 40 27 C40 18.09 40 9.18 40 0 C42.97 0 45.94 0 49 0 C49 21.12 49 42.24 49 64 C46.03 64 43.06 64 40 64 C40 54.43 40 44.86 40 35 C30.43 35.33 20.86 35.66 11 36 C10.67 45.24 10.34 54.48 10 64 C6.7 64 3.4 64 0 64 C0 42.88 0 21.76 0 0 Z " fill="#1379BE" transform="translate(3540,2933)"/>
<path d="M0 0 C3.34400824 2.88360131 6.10082395 6.22453148 7.6171875 10.39453125 C7.7421875 13.64453125 7.7421875 13.64453125 7.6171875 16.39453125 C4.6471875 16.39453125 1.6771875 16.39453125 -1.3828125 16.39453125 C-1.59035156 15.77964844 -1.79789063 15.16476563 -2.01171875 14.53125 C-3.68518462 10.14102783 -4.60588788 7.87827677 -8.6953125 5.33203125 C-13.5561972 4.09621311 -17.31144342 3.50680164 -22.0078125 5.51953125 C-26.08282172 8.73664379 -29.44370554 12.12438308 -30.3828125 17.39453125 C-30.65099148 20.78690284 -30.65985167 24.1801556 -30.6953125 27.58203125 C-30.72431641 28.49017578 -30.75332031 29.39832031 -30.78320312 30.33398438 C-30.84261159 36.71810959 -29.84522886 41.93853637 -26.3828125 47.39453125 C-21.1686973 51.65095182 -17.0588713 52.8323056 -10.3828125 52.39453125 C-7.61328929 51.56173756 -5.05557626 50.51990546 -2.3828125 49.39453125 C-2.0528125 44.77453125 -1.7228125 40.15453125 -1.3828125 35.39453125 C-6.0028125 35.39453125 -10.6228125 35.39453125 -15.3828125 35.39453125 C-15.3828125 33.08453125 -15.3828125 30.77453125 -15.3828125 28.39453125 C-7.7928125 28.39453125 -0.2028125 28.39453125 7.6171875 28.39453125 C7.75193777 32.47896165 7.85120516 36.55896472 7.9296875 40.64453125 C7.97158203 41.80339844 8.01347656 42.96226562 8.05664062 44.15625 C8.18072742 52.74305641 8.18072742 52.74305641 5.2890625 56.0859375 C4.40734375 56.51777344 3.525625 56.94960937 2.6171875 57.39453125 C1.6065625 57.95140625 0.5959375 58.50828125 -0.4453125 59.08203125 C-8.17023863 62.14507385 -17.6310844 62.42233101 -25.3828125 59.39453125 C-33.30529581 55.54386613 -37.16625059 50.5192418 -40.125 42.34375 C-43.23992169 31.01482248 -42.66756747 16.78171119 -37.28125 6.23828125 C-33.81612995 0.96235653 -29.36434832 -2.24252932 -23.2578125 -3.91796875 C-15.02105215 -5.44586696 -6.92311916 -4.98407126 0 0 Z " fill="#1178BE" transform="translate(2336.3828125,2936.60546875)"/>
<path d="M0 0 C3.7270473 3.27612059 6.15337225 6.62842835 7.58203125 11.390625 C7.70703125 14.203125 7.70703125 14.203125 7.58203125 16.390625 C4.61203125 16.390625 1.64203125 16.390625 -1.41796875 16.390625 C-1.99546875 15.1325 -2.57296875 13.874375 -3.16796875 12.578125 C-4.80608852 9.30188547 -6.12442963 7.19675936 -9.41796875 5.390625 C-13.84830095 3.9138476 -17.69545512 3.65240487 -22.04296875 5.515625 C-27.30803121 9.67225326 -29.98709048 13.26264353 -31.13671875 19.83984375 C-32.20739536 29.55028575 -32.20848538 39.74014473 -26.10546875 47.890625 C-22.23600353 51.49012753 -19.22640819 52.2231769 -14.04296875 52.703125 C-9.65481199 52.32483562 -6.46734573 51.09562583 -2.41796875 49.390625 C-2.08796875 44.770625 -1.75796875 40.150625 -1.41796875 35.390625 C-6.03796875 35.390625 -10.65796875 35.390625 -15.41796875 35.390625 C-15.41796875 33.080625 -15.41796875 30.770625 -15.41796875 28.390625 C-7.82796875 28.390625 -0.23796875 28.390625 7.58203125 28.390625 C7.71703097 32.28761687 7.81616435 36.17993153 7.89453125 40.078125 C7.93642578 41.18091797 7.97832031 42.28371094 8.02148438 43.41992188 C8.14526767 51.61437583 8.14526767 51.61437583 5.2890625 55.55078125 C-1.92166997 60.45158211 -10.18800395 62.02451649 -18.875 61.140625 C-26.88868734 59.611608 -32.49804949 56.41879525 -37.12890625 49.62109375 C-43.16031508 39.18492877 -43.2961789 24.23330681 -40.29296875 12.703125 C-37.56857981 5.44231169 -33.53863838 0.31681995 -26.4453125 -2.91796875 C-17.75263951 -5.88252197 -7.53842705 -5.52288972 0 0 Z " fill="#1078BE" transform="translate(3002.41796875,2936.609375)"/>
<path d="M0 0 C5.15889084 4.7198363 5.69564857 8.30426859 6 15 C3.03 15 0.06 15 -3 15 C-3.350625 13.741875 -3.70125 12.48375 -4.0625 11.1875 C-5.39639641 7.64923019 -5.8384953 7.09938751 -9.25 5 C-14.21595233 3.67574605 -17.95119725 3.11528972 -22.75 5.1875 C-25.3906982 7.3147291 -26.74835083 8.83406386 -28 12 C-27.88575482 15.17931787 -27.88575482 15.17931787 -26 18 C-21.51792527 20.82204705 -17.0308972 22.3390757 -12 23.9375 C-5.35871844 26.09256232 -0.17693993 28.48814623 4.4375 33.8125 C6.9516062 38.94127664 7.27622387 42.99737692 6.5 48.625 C4.22399102 53.74602021 0.6491435 56.76373303 -4.40234375 59.12109375 C-12.61210353 61.89883202 -21.35920282 61.66984351 -29.1953125 57.9609375 C-33.71363482 55.37665721 -36.62652811 52.74694378 -39 48 C-39.75 44.125 -39.75 44.125 -40 41 C-37.03 41 -34.06 41 -31 41 C-28 46.75 -28 46.75 -28 49 C-19.87977067 52.0934207 -13.41123851 53.19627063 -5 50 C-3.80245183 46.40735548 -3.66905042 43.77282526 -4 40 C-7.81276823 34.50831394 -15.08606961 33.2177144 -21.11523438 31.17578125 C-27.84938826 28.77311938 -33.63013066 25.9154363 -37.4375 19.625 C-38.50198574 14.65739988 -38.558218 10.64181765 -36.9375 5.875 C-33.5301219 0.81889056 -29.75192645 -2.83483505 -23.75 -4.4375 C-15.40164284 -5.81704113 -7.0122296 -4.96103319 0 0 Z " fill="#1379BE" transform="translate(3371,2937)"/>
<path d="M0 0 C7.31330868 7.99612374 6.67317612 18.32122426 6.23339844 28.49707031 C5.809191 34.56583388 4.26922994 38.78359565 -0.09765625 43.05078125 C-3.85766119 45.88658329 -7.21261113 46.92730204 -11.91015625 46.55078125 C-16.51791074 45.64629611 -19.34380531 44.08019626 -22.78515625 40.86328125 C-28.43766972 32.05201025 -27.9034571 20.59418726 -26.48046875 10.50390625 C-25.17414463 5.18184502 -23.08260269 2.04136023 -18.82421875 -1.390625 C-13.04761921 -4.58543821 -5.26106496 -3.99152372 0 0 Z " fill="#FDFEFE" transform="translate(3123.91015625,2943.44921875)"/>
<path d="M0 0 C13.2 0 26.4 0 40 0 C40 2.64 40 5.28 40 8 C30.1 8.33 20.2 8.66 10 9 C9.67 14.94 9.34 20.88 9 27 C17.91 27 26.82 27 36 27 C36 29.64 36 32.28 36 35 C27.42 35.33 18.84 35.66 10 36 C9.67 42.6 9.34 49.2 9 56 C19.56 56 30.12 56 41 56 C41 58.64 41 61.28 41 64 C27.47 64 13.94 64 0 64 C0 42.88 0 21.76 0 0 Z " fill="#177CBF" transform="translate(3670,2933)"/>
<path d="M0 0 C13.2 0 26.4 0 40 0 C40 2.64 40 5.28 40 8 C30.1 8.33 20.2 8.66 10 9 C9.67 14.94 9.34 20.88 9 27 C17.91 27 26.82 27 36 27 C36 29.64 36 32.28 36 35 C27.42 35.33 18.84 35.66 10 36 C9.67 42.6 9.34 49.2 9 56 C19.56 56 30.12 56 41 56 C41 58.64 41 61.28 41 64 C27.47 64 13.94 64 0 64 C0 42.88 0 21.76 0 0 Z " fill="#1178BE" transform="translate(2760,2933)"/>
<path d="M0 0 C13.2 0 26.4 0 40 0 C40 2.64 40 5.28 40 8 C30.1 8.33 20.2 8.66 10 9 C9.67 14.94 9.34 20.88 9 27 C17.91 27 26.82 27 36 27 C36 29.64 36 32.28 36 35 C27.42 35.33 18.84 35.66 10 36 C9.67 42.6 9.34 49.2 9 56 C19.23 56 29.46 56 40 56 C40 58.64 40 61.28 40 64 C26.8 64 13.6 64 0 64 C0 42.88 0 21.76 0 0 Z " fill="#167BBF" transform="translate(3909,2933)"/>
<path d="M0 0 C13.2 0 26.4 0 40 0 C40 2.64 40 5.28 40 8 C30.1 8.33 20.2 8.66 10 9 C9.67 14.94 9.34 20.88 9 27 C17.91 27 26.82 27 36 27 C36 29.64 36 32.28 36 35 C27.42 35.33 18.84 35.66 10 36 C9.67 42.6 9.34 49.2 9 56 C19.23 56 29.46 56 40 56 C40 58.64 40 61.28 40 64 C26.8 64 13.6 64 0 64 C0 42.88 0 21.76 0 0 Z " fill="#1078BE" transform="translate(3218,2933)"/>
<path d="M0 0 C16.17 0 32.34 0 49 0 C49 2.64 49 5.28 49 8 C42.73 8.33 36.46 8.66 30 9 C29.67 27.15 29.34 45.3 29 64 C26.03 64 23.06 64 20 64 C20 45.52 20 27.04 20 8 C13.4 8 6.8 8 0 8 C0 5.36 0 2.72 0 0 Z " fill="#0E76BD" transform="translate(2052,2933)"/>
<path d="M0 0 C3.3 0 6.6 0 10 0 C10 18.48 10 36.96 10 56 C19.57 56 29.14 56 39 56 C39 58.64 39 61.28 39 64 C26.13 64 13.26 64 0 64 C0 42.88 0 21.76 0 0 Z " fill="#187CC0" transform="translate(2424,2933)"/>
<path d="M0 0 C2.97 0 5.94 0 9 0 C9 21.12 9 42.24 9 64 C6.03 64 3.06 64 0 64 C0 42.88 0 21.76 0 0 Z " fill="#1178BE" transform="translate(2540,2933)"/>
<path d="M0 0 C2.536875 -0.04125 5.07375 -0.0825 7.6875 -0.125 C8.47729248 -0.14320801 9.26708496 -0.16141602 10.08081055 -0.18017578 C15.12247001 -0.21969821 19.03552382 0.10568368 22.75 3.6875 C25.20264723 8.22489738 25.3174059 11.80972787 24 16.75 C22.08931767 19.85485879 20.8967992 21.35165386 17.44921875 22.578125 C11.70140237 23.5681795 5.80036928 23.1539921 0 23 C0 15.41 0 7.82 0 0 Z " fill="#FDFEFE" transform="translate(3797,2941)"/>
<path d="M0 0 C1.70013735 2.55020603 2.52824598 4.24874599 3.4375 7.08984375 C3.69273437 7.87423828 3.94796875 8.65863281 4.2109375 9.46679688 C4.47132813 10.28212891 4.73171875 11.09746094 5 11.9375 C5.51797988 13.55169968 6.0387247 15.16501525 6.5625 16.77734375 C6.79066406 17.49140381 7.01882812 18.20546387 7.25390625 18.94116211 C7.96354184 21.04429132 7.96354184 21.04429132 9.08984375 23.07641602 C10 25 10 25 10 28 C3.4 28 -3.2 28 -10 28 C-8.16250315 21.56876102 -6.08912198 15.24701975 -3.875 8.9375 C-3.60929199 8.1751001 -3.34358398 7.4127002 -3.06982422 6.62719727 C-1.12175378 1.12175378 -1.12175378 1.12175378 0 0 Z " fill="#F4F9FB" transform="translate(2195,2945)"/>
<path d="M0 0 C3 4 3 4 3 6 C2.34 6 1.68 6 1 6 C1 10.62 1 15.24 1 20 C0.67 20 0.34 20 0 20 C0 13.4 0 6.8 0 0 Z " fill="#A5A5A5" transform="translate(3550,2722)"/>
</svg>
